<?xml version="1.0" encoding="UTF-8" standalone="no"?>
<svg
   xmlns:dc="http://purl.org/dc/elements/1.1/"
   xmlns:cc="http://creativecommons.org/ns#"
   xmlns:rdf="http://www.w3.org/1999/02/22-rdf-syntax-ns#"
   xmlns:svg="http://www.w3.org/2000/svg"
   xmlns="http://www.w3.org/2000/svg"
   style="enable-background:new"
   id="svg8"
   version="1.1"
   viewBox="0 0 100 100"
   height="100mm"
   width="100mm">
  <defs
     id="defs2" />
  <metadata
     id="metadata5">
    <rdf:RDF>
      <cc:Work
         rdf:about="">
        <dc:format>image/svg+xml</dc:format>
        <dc:type
           rdf:resource="http://purl.org/dc/dcmitype/StillImage" />
        <dc:title></dc:title>
      </cc:Work>
    </rdf:RDF>
  </metadata>
  <g
     transform="translate(0,-197)"
     style="display:inline;opacity:1"
     id="layer3">
    <circle
       r="50"
       style="fill:#e0e0e0;stroke-width:0.59665865;enable-background:new"
       class="st0"
       cx="50"
       cy="247"
       id="circle893" />
  </g>
  <g
     transform="translate(0,-197)"
     style="display:inline"
     id="layer2">
    <g
       transform="matrix(0.32258065,0,0,0.32258065,-38.387097,235.38709)"
       id="g869">
      <circle
         style="fill:#ffffff"
         class="st0"
         cx="274"
         cy="36"
         r="155"
         id="circle837" />
      <g
         id="g851">
	<path
   style="fill:#f17a22"
   class="st1"
   d="M 410.5,29.7 H 305.1 v -71.1 h 81.6 c 14,20.4 22.6,44.8 23.8,71.1 z"
   id="path839" />

	<path
   style="fill:#f6eb00"
   class="st2"
   d="m 410.6,38.6 c -0.5,26.1 -8.3,50.5 -21.5,71.1 -2,3.1 -4,6 -6.2,8.9 -3.4,4.5 -7.2,8.8 -11.1,12.9 -2.8,2.9 -5.8,5.7 -8.9,8.4 -16.4,14 -36.1,24.2 -57.7,29.2 -2.9,0.7 -5.9,1.3 -8.9,1.8 -7.2,1.2 -14.6,1.8 -22.2,1.8 -16.7,0 -32.8,-3 -47.6,-8.5 v -45.5 h 145.3 v -80 z"
   id="path841" />

	<path
   style="fill:#e62825"
   class="st3"
   d="m 362.8,38.6 v 71.1 H 158.9 C 145.7,89.1 137.9,64.8 137.4,38.6 Z"
   id="path843" />

	<path
   style="fill:#9dc950"
   class="st4"
   d="M 380,-50.3 H 226.4 v -41.8 c 14.8,-5.5 30.9,-8.5 47.6,-8.5 7.5,0 15,0.6 22.2,1.8 3,0.5 6,1.1 8.9,1.8 21.7,5 41.4,15.2 57.7,29.2 3.1,2.7 6.1,5.4 8.9,8.3 2.9,2.9 5.7,6 8.3,9.2 z"
   id="path845" />

	<g
   id="g849">
		<path
   style="fill:#57c2f0"
   class="st5"
   d="M 217.5,-88.5 V 29.7 h -80 c 1.2,-26.3 9.8,-50.7 23.9,-71.1 2.1,-3.1 4.3,-6 6.7,-8.9 13.2,-16.2 30.1,-29.4 49.4,-38.2 z"
   id="path847" />

	</g>

</g>
    </g>
  </g>
  <style
     type="text/css"
     id="style835">
	.st0{fill:#FFFFFF;}
	.st1{fill:#F17A22;}
	.st2{fill:#F6EB00;}
	.st3{fill:#E62825;}
	.st4{fill:#9DC950;}
	.st5{fill:#57C2F0;}
</style>
  <style
     type="text/css"
     id="style891">
	.st0{fill:#E0E0E0;enable-background:new    ;}
</style>
</svg>
