<svg width="16" height="17" viewBox="0 0 16 17" fill="none" xmlns="http://www.w3.org/2000/svg">
<path d="M0.209704 0.909073L0.292893 0.814866C0.653377 0.454382 1.22061 0.426652 1.6129 0.731677L1.70711 0.814866L8 7.10697L14.2929 0.814866C14.6834 0.424342 15.3166 0.424342 15.7071 0.814866C16.0976 1.20539 16.0976 1.83855 15.7071 2.22908L9.415 8.52197L15.7071 14.8149C16.0676 15.1753 16.0953 15.7426 15.7903 16.1349L15.7071 16.2291C15.3466 16.5896 14.7794 16.6173 14.3871 16.3123L14.2929 16.2291L8 9.93697L1.70711 16.2291C1.31658 16.6196 0.683418 16.6196 0.292893 16.2291C-0.0976309 15.8386 -0.0976309 15.2054 0.292893 14.8149L6.585 8.52197L0.292893 2.22908C-0.0675905 1.8686 -0.0953204 1.30136 0.209704 0.909073L0.292893 0.814866L0.209704 0.909073Z" fill="#202325"/>
</svg>
