<svg width="653" height="358" viewBox="0 0 653 358" fill="none" xmlns="http://www.w3.org/2000/svg">
<g opacity="0.1" clip-path="url(#clip0_1_231)">
<path d="M14.7884 344.24C29.6819 323.33 46.624 305.631 72.3693 297.603C84.5867 293.783 92.7624 283.614 96.4535 270.787C104.482 242.809 93.7775 220.312 75.8204 199.827C54.5598 175.595 -1.93218 165.26 -25.4259 198.553C-42.5709 222.822 -64.9019 234.763 -93.7108 230.13C-99.8934 230.13 -104.876 230.13 -109.859 230.13C-129.607 230.407 -147.453 235.833 -157.419 254.122C-167.828 273.205 -162.734 292.085 -150.553 308.455C-130.665 335.086 -113.752 363.813 -100.115 394.125C-86.8454 423.653 -62.8165 428.157 -40.4301 406.158C-20.7567 386.743 -1.34159 366.866 14.7884 344.24Z" stroke="white" stroke-width="0.461385" stroke-linejoin="round"/>
<path d="M-82.1025 383.199C-88.1291 375.274 -93.5048 366.874 -98.1771 358.082C-108.131 339.749 -117.74 321.238 -127.004 302.549C-139.923 276.472 -130.456 260.619 -101.684 259.142C-95.4641 258.81 -89.2631 258.164 -82.1947 257.592C-64.3484 260.563 -45.7822 258.386 -27.1238 256.651C-17.9884 255.82 -10.6247 252.369 -5.78942 245.079C1.14981 234.578 10.5251 226.292 18.3502 216.658C25.7324 207.615 34.9601 206.341 45.3136 209.793C58.786 214.259 68.4197 222.951 69.9699 237.476C71.0957 247.977 68.4012 257.924 57.7156 263.738C50.3334 267.742 43.7633 273.907 35.9567 276.38C16.3386 282.617 9.1225 297.179 4.26874 315.45C-4.0731 346.824 -23.2667 370.963 -49.9347 388.939C-61.7277 396.819 -73.2992 394.549 -82.1025 383.199Z" stroke="white" stroke-width="0.461385" stroke-linejoin="round"/>
<path d="M-641.448 688.47C-600.44 672.543 -558.399 663.315 -514.475 674.85C-498.234 679.113 -482.252 684.336 -466.103 688.968C-440.137 696.35 -432.164 691.275 -420.371 666.822C-409.962 645.266 -391.47 629.597 -373.771 613.873C-340.551 584.234 -307.941 553.801 -281.882 517.352C-272.87 504.944 -266.856 490.617 -264.312 475.495C-259.957 448.328 -241.741 437.624 -215.793 446.428C-190.232 455.12 -164.745 464.883 -136.767 459.586C-113.402 455.249 -107.589 445.837 -113.919 423.045C-123.276 389.363 -136.066 357.786 -162.014 332.724C-180.709 314.73 -189.199 291.273 -191.542 265.657C-193.388 244.157 -181.263 229.337 -166.96 215.717C-164.651 213.626 -162.216 211.678 -159.67 209.885C-137.081 193.164 -136.029 171.35 -143.3 146.527C-151.199 119.62 -136.029 109.617 -116.374 104.615C-102.901 101.146 -88.6905 99.8723 -74.7567 99.0787C-53.6253 97.8237 -39.5254 111.997 -25.6838 124.806C-10.0706 139.293 8.42168 147.137 28.2059 153.374C62.3114 164.134 92.246 180.67 110.443 213.557C116.902 225.24 120.372 237.863 123.362 250.468C127.348 267.466 130.836 284.518 137.554 300.722C139.639 305.797 137.923 310.522 136.41 315.284C139.935 328.202 136.502 331.709 123.602 333.518C95.5127 337.43 65.7257 334.2 40.5525 351.216C19.5827 365.341 0.681372 382.317 -15.6072 401.655C-30.8514 419.796 -46.1509 437.79 -64.2741 453.071C-73.5018 460.841 -74.3876 469.515 -69.8107 479.776C-62.004 497.309 -49.0115 511.538 -39.3039 527.76C-16.3085 566.406 -0.252332 607.82 -2.68844 653.257C-5.05073 697.55 -32.9922 725.418 -71.1948 743.928C-80.1272 748.265 -89.761 751.108 -99.0625 754.633C-135.715 768.474 -167.255 753.562 -198.611 737.155C-221.866 724.743 -247.807 718.216 -274.167 718.146C-307.793 718.294 -339.278 727.171 -363.547 752.805C-365.933 755.291 -367.598 758.378 -368.363 761.738C-374.694 795.29 -390.178 825.981 -398.409 858.979C-402.637 875.9 -405.05 893.222 -405.606 910.654C-406.418 934.886 -389.218 946.476 -370.227 955.224C-346.457 966.187 -322.243 976.06 -298.141 986.377C-286.846 991.231 -276.566 997.45 -268.612 1007.1C-252.814 1026.04 -252.261 1048.7 -267.634 1067.84C-287.416 1091.99 -304.381 1118.32 -318.202 1146.31C-327.324 1165.48 -339.956 1182.78 -355.445 1197.3C-391.839 1231.32 -391.802 1267.43 -370.209 1310.32C-359.136 1332.08 -338.115 1338.91 -315.027 1338.84C-293.172 1338.52 -271.537 1334.43 -251.079 1326.73C-209.721 1311.82 -195.215 1322.25 -199.644 1365.86C-204.569 1414.94 -218.859 1462.63 -241.741 1506.34C-256.044 1533.56 -279.501 1544.69 -308.439 1534.02C-345.22 1520.55 -378.292 1530.33 -411.568 1543.25C-435.43 1552.48 -454.864 1547.03 -468.908 1525.66C-482.196 1505.36 -492.088 1483.21 -509.4 1465.37C-548.673 1424.77 -642.094 1433.37 -661.841 1495.63" stroke="white" stroke-width="0.461385" stroke-linejoin="round"/>
<path d="M349.385 -638.75C375.462 -614.333 386.72 -583.513 392.109 -549.61C392.786 -545.871 392.32 -542.016 390.773 -538.546C389.226 -535.076 386.668 -532.153 383.435 -530.158C375.942 -525.267 368.357 -527.777 361.584 -532.446C350.843 -539.829 341.172 -548.576 328.936 -553.947C318.619 -558.469 309.299 -560.443 298.725 -554.833C267.221 -538.131 231.51 -532.096 199.711 -516.187C189.395 -511.039 179.662 -504.796 170.681 -497.566C144.29 -476.176 114.448 -468.535 81.3755 -474.22C50.9874 -479.478 20.2308 -482.323 -10.6061 -482.728C-31.2208 -483.005 -49.547 -490.682 -67.6517 -499.061C-79.7409 -504.798 -92.13 -509.881 -104.766 -514.286C-130.861 -523.108 -153.691 -535.953 -169.655 -560.314C-182.85 -580.467 -200.881 -582.904 -222.695 -571.793C-261.12 -552.231 -275.589 -520.432 -267.228 -478.095C-262.042 -451.741 -254.217 -426.088 -247.278 -400.251C-237.956 -366.364 -239.453 -330.412 -251.56 -297.417C-256.431 -284.171 -257.983 -269.933 -256.081 -255.948C-254.679 -246.13 -251.375 -236.477 -242.849 -231.052C-214.501 -213.058 -189.328 -190.191 -158.508 -175.962C-133.556 -164.483 -107.645 -156.713 -80.4413 -154.794C-44.1027 -152.247 -17.693 -173.692 -5.99229 -212.818C0.983845 -236.053 6.57584 -259.842 20.8972 -280.161C42.0102 -310.096 73.4397 -318.622 105.995 -302.086C136.17 -286.75 162.007 -265.176 187.199 -242.918C195.411 -235.702 198.992 -225.57 201.446 -215.051C210.895 -174.633 213.571 -133.183 220.511 -92.3778C225.863 -61.0036 250.925 -42.7144 282.742 -49.266C287.67 -50.2811 289.349 -53.806 291.97 -57.4048C308.118 -79.1822 312.64 -107.64 332.701 -127.166C358.926 -152.69 387.587 -172.677 425.679 -176.221C447.346 -178.232 461.316 -165.018 456.407 -143.665C447.456 -104.817 425.845 -74.4207 392.478 -52.9386C380.556 -45.2796 369.077 -36.8455 359.83 -26.7504C350.584 -16.6553 356.914 -2.85069 359 9.6436C362.931 33.1189 378.36 50.8175 387.735 71.4876C394.673 86.9554 397.073 104.076 394.656 120.856C392.164 138.868 371.144 149.849 347.945 145.937C327.966 142.673 307.747 141.099 287.504 141.23C270.894 141.23 258.363 148.76 247.289 159.686C241.753 165.222 240.904 172.402 239.907 180.153C236.216 208.556 232.839 237.365 209.271 258.072C202.282 264.363 193.659 268.553 184.393 270.16C172.213 272.208 161.324 269.68 155.658 256.743C151.543 247.33 146.431 238.287 143.183 228.598C128.603 185.69 94.6265 162.694 56.2946 145.198C29.3682 132.907 3.95516 119.675 -15.6814 96.4762C-31.756 77.4118 -52.9059 68.7931 -78.282 73.0009C-92.1051 75.3078 -105.965 78.0024 -119.788 79.7187C-168.437 85.7352 -189.513 72.3365 -204.683 25.829C-212.947 0.286104 -217.697 -26.2626 -218.801 -53.0863C-220.13 -83.187 -230.613 -105.776 -262.319 -113.509C-286.311 -119.36 -303.585 -133.626 -317.113 -154.111C-327.393 -169.669 -347.232 -171.994 -372.848 -163.339C-394.017 -156.141 -412.509 -145.013 -425.742 -126.631C-436.815 -111.239 -447.888 -95.6997 -457.651 -79.5144C-470.459 -58.4383 -469.315 -37.067 -459.164 -14.4591C-430.503 49.415 -379.898 92.4714 -324.052 130.563C-304.564 143.833 -287.806 158.246 -279.058 181.168C-272.577 198.451 -261.176 213.458 -246.263 224.335C-222.363 241.923 -217.786 269.477 -212.157 295.96C-209.408 308.879 -207.931 321.798 -211.844 335.584C-219.097 360.85 -240.523 367.364 -260.75 376.001C-264.442 377.57 -268.446 378.493 -272.267 379.84C-302.22 390.267 -308.882 402.983 -301.389 433.859C-297.292 450.783 -292.715 467.78 -293.73 485.423C-295.373 514.343 -312.868 534.699 -332.117 553.708C-361.037 582.351 -396.434 602.744 -427.993 628.065C-430.189 629.911 -432.902 631.129 -434.582 633.251C-455.123 659.236 -483.267 662.78 -513.165 659.089C-552.29 654.198 -590.179 660.731 -627.994 669.184C-638.329 671.491 -648.59 674.111 -658.907 676.474" stroke="white" stroke-width="0.461385" stroke-linejoin="round"/>
<path d="M1196.56 -461.67C1182.29 -447.132 1167.06 -433.568 1150.98 -421.068C1141.75 -413.981 1146.05 -408.149 1150.98 -401.561C1160.79 -388.346 1171.48 -375.852 1180.19 -361.734C1194.68 -338.222 1193.85 -313.75 1186.95 -288.687C1181.54 -269.088 1172.61 -250.669 1162.95 -232.952C1146.73 -203.239 1141.05 -171.68 1142.14 -138.368C1143.02 -110.999 1133.55 -87.0807 1116.89 -65.7832C1107.67 -53.9963 1098.38 -42.3079 1089.02 -30.7179C1075 -13.2038 1056.21 -2.79492 1035.02 2.50177C1014.28 7.76156 996.08 -0.285056 982.995 -15.6768C956.253 -47.051 922.609 -71.1906 894.815 -101.716C874.034 -124.527 844.34 -118.16 817.303 -109.725C805.428 -106.231 794.473 -100.156 785.221 -91.9344C775.968 -83.7125 768.647 -73.5473 763.782 -62.166C746.729 -23.8157 713.952 -12.927 676.082 -9.42045C657.313 -7.68564 637.99 -6.8921 622.155 5.98976C620.166 7.4639 618.5 9.32967 617.259 11.4721C616.018 13.6145 615.228 15.9882 614.939 18.4471C613.174 31.6966 610.152 44.748 605.914 57.4249C596.964 85.108 558.982 100.961 529.638 87.3781C515.797 80.9556 514.726 65.5453 514.708 53.1987C514.508 42.075 516.847 31.0521 521.548 20.9687C526.249 10.8852 533.188 2.00684 541.837 -4.99111C559.222 -19.1095 562.618 -36.679 559.222 -58.1795C554.701 -87.3944 547.891 -115.391 532.868 -141.229C524.046 -156.381 511.165 -167.066 496.843 -175.777C483.481 -183.842 471.615 -190.117 469.455 -208.868C467.61 -224.998 461.077 -240.334 464.103 -257.424C467.315 -275.676 475.822 -290.644 487.56 -304.393C505.074 -324.934 515.852 -348.335 516.018 -375.741C516.203 -408.186 526.15 -436.367 551.397 -457.776C562.637 -467.299 574.356 -466.376 584.82 -456.059C591.612 -449.671 597.865 -442.733 603.515 -435.315C616.526 -417.432 635.646 -406.396 656.741 -409.81C706.017 -417.801 756.4 -414.129 805.196 -425.719C820.643 -429.41 835.776 -434.522 851.814 -435.075C872.835 -435.832 881.546 -428.653 882.967 -407.392C884.974 -381.361 890.563 -355.731 899.577 -331.227C905.759 -313.805 923.569 -299.853 935.989 -303.673C948.434 -307.728 960.33 -313.307 971.405 -320.283C1011.79 -344.995 1048.81 -374.966 1090.89 -396.928C1103.67 -403.251 1115.96 -410.531 1127.65 -418.706C1129.09 -419.758 1131.34 -419.739 1129.29 -422.489C1100.8 -461.448 1061.56 -478.87 1014.22 -478.741C995.581 -478.741 976.942 -476.342 958.302 -475.05C929.474 -472.946 914.286 -484.148 908.657 -512.68C904.024 -535.639 899.724 -558.634 887.987 -579.267C875.179 -601.82 856.834 -618.024 832.011 -626.07" stroke="white" stroke-width="0.461385" stroke-linejoin="round"/>
<path d="M1223.32 690.26C1219.28 690.26 1215.16 691.515 1211.23 691.054C1180.63 687.363 1159.43 702.699 1141.97 725.233C1135.4 733.704 1126.82 739.185 1117.46 743.467C1090.46 755.814 1073.7 776.687 1062.09 803.705C1046.87 839.213 1025.18 870.145 989.215 888.157C970.482 897.569 949.812 899.563 929.345 901.556C881.214 906.28 833.562 907.517 788.014 886.349C771.921 878.966 760.072 867.081 750.937 853.129C729.972 821.127 702.233 795.917 674.034 770.781C667.109 764.966 660.688 758.576 654.84 751.68C636.2 728.315 611.101 715.119 583.805 705.32C565.922 698.897 547.928 692.715 529.749 687.252C503.524 679.335 489.83 660.086 480.787 635.946C473.553 616.623 472.242 596.267 471.559 576.15C470.544 546.917 456.924 526.616 432.176 512.848C411.173 501.148 394.084 484.722 377.935 467.467C355.9 443.918 328.549 438.51 297.913 439.876C269.399 441.149 241.421 438.03 215.306 424.466C187.439 409.96 179.411 385.063 170.478 356.716C158.962 320.156 185.981 313.401 204.898 300.962C230.477 284.168 247.529 262.667 256.13 233.545C259.282 223.121 263.493 213.047 268.698 203.481C282.281 178.345 306.181 175.373 330.893 177.846C353.039 180.042 374.927 181.131 397.037 178.511C416.581 176.185 433.172 165.795 450.908 158.69C487.357 144.184 523.604 129.419 563.467 127.574C579.616 126.817 595.82 125.728 611.968 126.19C633.561 126.78 642.253 120.062 648.344 99.4109C652.035 87.2119 654.895 74.8099 658.808 62.8324C665.932 41.055 683.04 29.6126 705.112 25.4786C724.989 21.7875 745.364 20.791 764.852 14.7007C787.922 7.52153 803 -10.7862 804.218 -34.9258C805.177 -54.1563 813.575 -69.4743 830.738 -76.8196C847.902 -84.1648 864.548 -78.093 880.568 -69.0868C920.634 -46.442 951.658 -14.385 980.577 20.791C997.87 41.8301 1023.8 46.0564 1050.01 45.3182C1055.41 45.1705 1059.23 40.3906 1062.74 36.4226C1089.28 6.08199 1109.67 -28.688 1132.87 -61.5016C1139.48 -70.8954 1145.79 -80.5476 1151.57 -90.495C1161 -106.81 1162.49 -125.431 1161.02 -143.167C1158.06 -178.232 1169.32 -209.255 1183.33 -240.242C1197.82 -272.281 1213.6 -304.338 1210.01 -341.138C1208.63 -355.348 1207.04 -369.799 1203.2 -383.474C1195.01 -412.763 1219.61 -444.875 1240.87 -459.141C1252.5 -466.966 1266.21 -469.181 1279.39 -472.798" stroke="white" stroke-width="0.461385" stroke-linejoin="round"/>
<path d="M60.7794 70.03C62.8464 76.6185 61.4623 86.6398 72.4248 86.7874C76.891 86.7874 83.6825 86.0861 83.1658 78.2057C82.446 67.0402 72.4617 66.3758 65.2087 63.4414C61.3146 61.7619 60.7425 66.2835 60.7794 70.03Z" stroke="white" stroke-width="0.461385" stroke-linejoin="round"/>
<path d="M-658.833 676.418C-648.517 674.037 -638.255 671.435 -627.92 669.128C-590.105 660.676 -552.253 654.142 -513.091 659.033C-483.193 662.724 -455.049 659.236 -434.453 633.362C-432.755 631.239 -430.06 629.911 -427.864 628.176C-396.305 602.855 -360.908 582.462 -331.896 553.819C-312.647 534.736 -295.151 514.38 -293.509 485.442C-292.494 467.817 -297.052 450.82 -301.168 433.896C-308.661 403.02 -301.998 390.304 -272.045 379.859C-268.225 378.53 -264.238 377.607 -260.529 376.038C-240.228 367.401 -218.875 360.886 -211.622 335.621C-207.71 321.927 -209.186 308.935 -211.936 295.997C-217.565 269.514 -222.142 241.978 -246.041 224.372C-260.955 213.495 -272.356 198.488 -278.837 181.205C-287.585 158.357 -304.342 143.87 -323.831 130.6C-379.677 92.5083 -430.282 49.3965 -458.943 -14.4222C-469.093 -37.0855 -470.238 -58.4014 -457.429 -79.4775C-447.574 -95.6628 -436.593 -111.202 -425.52 -126.594C-412.288 -144.957 -393.795 -156.123 -372.627 -163.302C-347.029 -171.994 -327.171 -169.669 -316.892 -154.074C-303.364 -133.607 -286.071 -119.341 -262.098 -113.472C-230.391 -105.739 -219.909 -83.1501 -218.58 -53.0493C-217.477 -26.2254 -212.727 0.32344 -204.461 25.8659C-189.254 72.3366 -168.178 85.7721 -119.567 79.7556C-105.67 78.0392 -91.8836 75.3448 -78.0605 73.0379C-52.6659 68.83 -31.5345 77.4487 -15.4599 96.5131C4.12127 119.712 29.5159 132.944 56.5161 145.235C94.848 162.731 128.824 185.726 143.404 228.635C146.689 238.306 151.764 247.367 155.88 256.78C161.527 269.698 172.49 272.245 184.615 270.197C193.88 268.595 202.5 264.397 209.474 258.09C232.876 237.254 236.253 208.519 239.944 180.116C240.941 172.383 241.79 165.13 247.326 159.649C258.4 148.705 270.839 141.194 287.541 141.194C307.784 141.077 328.002 142.658 347.982 145.918C371.18 149.831 392.275 138.831 394.693 120.819C397.129 104.046 394.728 86.9252 387.772 71.4691C378.415 50.7991 362.968 33.1004 359.037 9.62513C356.951 -2.88762 350.363 -16.4339 359.867 -26.7874C369.372 -37.1408 380.611 -45.2427 392.515 -52.9755C425.901 -74.4576 447.512 -104.854 456.444 -143.702C461.354 -165.037 447.383 -178.251 425.735 -176.239C387.624 -172.696 358.982 -152.708 332.738 -127.203C312.677 -107.677 308.155 -79.2191 292.007 -57.4233C289.331 -53.8245 287.651 -50.2995 282.779 -49.2844C250.981 -42.7328 225.9 -60.9483 220.548 -92.3962C213.627 -133.201 210.932 -174.67 201.502 -215.069C199.029 -225.607 195.448 -235.739 187.254 -242.937C161.989 -265.083 136.151 -286.768 106.05 -302.105C73.4951 -318.715 42.0656 -310.114 20.9526 -280.18C6.63122 -259.879 1.03924 -236.071 -5.91844 -212.836C-17.6561 -173.711 -44.0473 -152.266 -80.3859 -154.812C-107.571 -156.658 -133.501 -164.52 -158.434 -175.999C-189.347 -190.21 -214.446 -213.076 -242.775 -231.088C-251.32 -236.496 -254.605 -246.148 -256.007 -255.966C-257.929 -269.951 -256.376 -284.194 -251.486 -297.436C-239.418 -330.434 -237.947 -366.376 -247.278 -400.251C-254.125 -426.088 -262.042 -451.704 -267.154 -478.058C-275.57 -520.45 -261.12 -552.249 -222.695 -571.886C-200.863 -582.959 -182.85 -580.541 -169.655 -560.406C-153.691 -536.027 -130.898 -523.182 -104.765 -514.36C-92.121 -509.963 -79.7252 -504.88 -67.6333 -499.135C-49.5285 -490.756 -31.2208 -483.097 -10.5876 -482.82C20.2427 -482.406 50.9924 -479.561 81.3755 -474.312C114.355 -468.609 144.29 -476.268 170.7 -497.64C179.675 -504.848 189.402 -511.066 199.712 -516.187C231.51 -532.096 267.221 -538.131 298.725 -554.833C309.3 -560.369 318.638 -558.524 328.936 -553.947C341.19 -548.595 350.843 -539.829 361.584 -532.446C368.357 -527.796 375.942 -525.267 383.435 -530.158C386.67 -532.156 389.228 -535.082 390.775 -538.555C392.323 -542.028 392.787 -545.887 392.109 -549.628C386.72 -583.513 375.499 -614.222 349.385 -638.75" stroke="white" stroke-width="0.461385" stroke-linejoin="round"/>
<path d="M289.774 -644.027C273.256 -629.429 262.644 -612.339 259.008 -591.171C257.879 -583.409 254.794 -576.061 250.046 -569.818C245.297 -563.574 239.039 -558.64 231.861 -555.478C202.498 -541.563 175.11 -524.344 147.815 -506.996C126.665 -493.542 103.706 -492.859 80.1758 -495.923C56.6452 -498.986 33.4099 -507.402 9.91615 -504.523C-24.983 -500.26 -55.0837 -511.739 -84.9999 -526.374C-111.742 -539.441 -134.054 -555.608 -136.786 -589.123C-137.967 -603.647 -147.416 -610.291 -163.435 -610.974C-204.831 -612.912 -258.831 -582.958 -276.807 -545.605C-287.751 -522.812 -285.85 -498.783 -280.276 -475.124C-275.644 -455.413 -269.351 -436.127 -264.275 -416.528C-254.568 -379.008 -257.373 -342.706 -273.909 -307.235C-282.565 -288.65 -289.098 -269.014 -295.502 -249.507C-304.914 -220.808 -325.031 -202.907 -352.16 -192.775C-399.092 -175.224 -438.328 -148.703 -464.055 -104.41C-469.961 -94.2414 -477.804 -85.1982 -484.67 -75.5829C-497.478 -57.6074 -495.743 -39.355 -485.186 -21.2134C-453.488 32.4956 -413.599 80.9273 -366.961 122.333C-338.909 147.506 -316.707 176.222 -307.664 214.056C-302.81 234.357 -282.934 241.942 -267.874 252.978C-252.815 264.015 -241.354 277.782 -238.825 296.736C-236.592 313.346 -243.347 326.394 -257.798 335.492C-267.819 341.855 -278.922 346.327 -290.556 348.688C-332.708 356.919 -350.001 387.721 -335.993 428.6C-330.863 443.567 -323.48 457.649 -320.472 473.52C-315.581 499.45 -323.942 520.378 -342.36 537.597C-363.141 557.031 -385.915 574.158 -412.343 585.083C-434.489 594.311 -451.395 610.385 -469.684 624.817C-483.396 635.651 -499.046 640.505 -516.413 640.874C-541.32 641.652 -566.132 644.305 -590.641 648.809C-611.569 652.501 -632.497 655.324 -653.85 653.183" stroke="white" stroke-width="0.461385" stroke-linejoin="round"/>
<path d="M4.19511 -185.19C10.9498 -206.247 17.5568 -227.268 26.8952 -247.44C45.4613 -287.507 83.4979 -297.399 119.467 -271.672C136.612 -259.417 153.112 -246.406 164.923 -229.224C187.07 -196.872 189.893 -159.758 180.61 -123.438C169.334 -79.3114 152.078 -37.27 116.385 -5.4898C108.892 1.1726 110.48 12.9656 115.296 21.6212C128.215 45.0226 141.946 68.0365 155.695 90.995C162.382 102.613 167.273 115.175 170.201 128.256C173.006 139.846 166.953 149 159.516 155.478C152.078 161.956 142.241 163.58 131.722 158.006C99.8493 141.12 65.5962 128.939 34.7941 110.022C22.6505 102.53 14.1425 91.1242 7.95996 78.3161C-3.11327 55.2653 -20.572 45.0965 -46.3911 48.5845C-70.7522 51.8511 -94.9657 56.3727 -119.327 59.8238C-145.773 63.5334 -166.074 53.752 -180.525 31.1626C-201.398 -1.30039 -206.879 -37.0116 -203.059 -74.5683C-201.901 -88.8254 -199.153 -102.908 -194.865 -116.554C-190.841 -128.569 -184.53 -134.05 -171.98 -133.718C-155.167 -133.293 -138.336 -133.607 -118.072 -133.607C-99.0997 -134.05 -76.6949 -133.017 -54.3454 -136.043C-24.3554 -140.14 -4.97722 -156.639 4.19511 -185.19Z" stroke="white" stroke-width="0.461385" stroke-linejoin="round"/>
<path d="M832.012 -626.144C856.834 -618.19 875.179 -601.912 887.987 -579.267C899.724 -558.56 904.025 -535.565 908.565 -512.57C914.193 -484.038 929.382 -472.854 958.21 -474.958C976.85 -476.323 995.489 -478.649 1014.13 -478.649C1061.47 -478.778 1100.69 -461.356 1129.18 -422.397C1131.21 -419.647 1129 -419.665 1127.56 -418.613C1115.93 -410.421 1103.71 -403.122 1090.98 -396.78C1048.9 -374.8 1011.88 -344.847 971.497 -320.135C960.425 -313.155 948.529 -307.576 936.082 -303.525C923.606 -299.613 905.852 -313.657 899.669 -331.079C890.654 -355.582 885.064 -381.213 883.059 -407.245C881.638 -428.468 872.927 -435.648 851.907 -434.928C835.869 -434.356 820.735 -429.244 805.288 -425.571C756.529 -413.962 706.109 -417.635 656.833 -409.662C635.72 -406.377 616.6 -417.414 603.515 -435.315C597.868 -442.746 591.614 -449.697 584.82 -456.096C574.338 -466.431 562.674 -467.354 551.397 -457.831C526.151 -436.423 516.203 -408.223 516.019 -375.797C515.852 -348.39 505.074 -324.989 487.56 -304.448C475.823 -290.699 467.259 -275.713 464.085 -257.479C461.077 -240.39 467.61 -225.053 469.456 -208.923C471.615 -190.172 483.482 -183.898 496.825 -175.833C511.165 -167.177 524.047 -156.436 532.85 -141.284C547.891 -115.447 554.701 -87.4313 559.223 -58.2349C562.545 -36.7528 559.223 -19.1648 541.745 -4.82497C533.102 2.1729 526.168 11.0491 521.47 21.129C516.773 31.209 514.435 42.2273 514.634 53.3464C514.634 65.7115 515.723 81.1217 529.565 87.5258C558.909 101.127 596.89 85.2189 605.841 57.5727C610.098 44.9282 613.145 31.9079 614.939 18.6872C615.229 16.2309 616.018 13.8599 617.259 11.7205C618.5 9.58114 620.167 7.71879 622.155 6.24827C637.99 -6.6705 657.221 -7.44566 676.082 -9.18047C714.008 -12.687 746.729 -23.5756 763.782 -61.9259C768.648 -73.3072 775.968 -83.4725 785.221 -91.6944C794.473 -99.9163 805.428 -105.992 817.303 -109.486C844.285 -117.92 873.979 -124.25 894.815 -101.476C922.609 -70.9506 956.253 -46.8663 982.977 -15.4368C996.08 -0.0450199 1014.35 8.00148 1035.02 2.7417C1056.21 -2.62882 1075 -13.0377 1089.02 -30.478C1098.36 -42.1418 1107.65 -53.8302 1116.89 -65.5432C1133.5 -86.8592 1143.02 -110.759 1142.14 -138.128C1141.05 -171.459 1146.73 -203.017 1162.95 -232.731C1172.62 -250.448 1181.56 -268.866 1186.95 -288.466C1193.85 -313.454 1194.68 -337.982 1180.19 -361.494C1171.48 -375.631 1160.79 -388.106 1150.98 -401.339C1146.03 -408.001 1141.75 -413.759 1150.98 -420.846C1167.06 -433.351 1182.29 -446.915 1196.56 -461.448" stroke="white" stroke-width="0.461385" stroke-linejoin="round"/>
<path d="M1279.22 -472.872C1266.05 -469.181 1252.33 -467.04 1240.71 -459.215C1219.45 -444.912 1194.84 -412.818 1203.06 -383.548C1206.9 -369.873 1208.48 -355.422 1209.87 -341.211C1213.43 -304.411 1197.67 -272.354 1183.18 -240.316C1169.15 -209.329 1157.9 -178.398 1160.85 -143.24C1162.34 -125.505 1160.85 -106.883 1151.4 -90.5687C1145.66 -80.6213 1139.33 -70.9691 1132.71 -61.5753C1109.6 -28.7616 1089.22 6.00834 1062.57 36.349C1059.11 40.3169 1055.19 45.0969 1049.86 45.2445C1023.63 45.9827 997.704 41.7564 980.411 20.7357C951.492 -14.4587 920.468 -46.5157 880.42 -69.142C864.456 -78.1667 847.699 -84.1832 830.59 -76.8933C813.482 -69.6034 805.03 -54.23 804.052 -34.9995C802.834 -10.8599 787.774 7.44783 764.686 14.627C745.197 20.7173 724.841 21.677 704.946 25.405C682.8 29.5205 665.784 40.9813 658.66 62.7587C654.748 74.7362 651.776 87.1382 648.196 99.3372C642.106 119.989 633.432 126.707 611.802 126.116C595.672 125.673 579.468 126.743 563.301 127.5C523.456 129.346 487.191 144.11 450.723 158.671C432.988 165.777 416.378 176.167 396.834 178.492C374.687 181.113 352.836 180.024 330.689 177.828C305.978 175.355 282.096 178.326 268.495 203.463C263.285 213.03 259.079 223.111 255.945 233.545C247.566 262.667 230.495 284.168 204.879 301.055C185.962 313.494 158.925 320.248 170.441 356.808C179.374 385.156 187.402 410.052 215.288 424.558C241.402 438.16 269.381 441.168 297.894 439.987C328.53 438.621 355.863 444.01 377.898 467.559C394.065 484.833 411.118 501.24 432.157 512.941C456.887 526.709 470.507 547.009 471.522 576.243C472.224 596.359 473.516 616.716 480.75 636.038C489.793 660.178 503.506 679.427 529.712 687.344C547.909 692.881 565.903 698.99 583.787 705.412C611.064 715.212 636.181 728.426 654.803 751.772C660.653 758.673 667.08 765.064 674.015 770.873C702.215 795.917 729.953 821.22 750.919 853.221C760.146 867.174 771.884 879.059 787.977 886.441C833.525 907.609 881.195 906.373 929.308 901.667C949.794 899.655 970.445 897.662 989.196 888.25C1025.07 870.237 1046.83 839.306 1062.08 803.798C1073.67 776.779 1090.41 755.814 1117.44 743.559C1126.8 739.278 1135.4 733.797 1141.95 725.325C1159.43 702.791 1180.71 687.492 1211.21 691.146C1215.16 691.607 1219.28 690.426 1223.32 690.352" stroke="white" stroke-width="0.461385" stroke-linejoin="round"/>
<path d="M916.205 58.8829C913.381 60.7284 910.115 62.0756 907.365 64.1057C900.333 69.3102 887.821 72.1892 897.657 85.2003C908.731 103.526 929.77 101.533 946.398 108.38C960.719 114.286 973.121 121.299 977.957 137.355C984.785 159.945 994.142 181.999 993.736 206.175C993.478 222.065 984.269 231.552 970.482 238.14C946.49 249.601 920.819 255.119 894.926 258.441C848.049 264.439 822.95 292.713 808.186 335.142C796.596 368.269 795.267 400.64 804.919 434.099C808.61 446.926 810.677 460.251 813.002 473.428C819.222 508.641 830.147 518.699 865.877 516.743C907.918 514.454 943.15 526.985 970.611 559.338C989.657 581.798 1013.72 597.485 1038.55 612.748C1064.05 628.416 1082.67 651.873 1099.91 675.791C1108.75 688.082 1103.84 703.308 1090.83 711.225C1067.08 725.676 1054.62 747.121 1046.26 773.18C1034.97 808.245 1019.87 841.945 988.716 864.977C973.583 876.18 955.589 878.948 937.65 881.347C919.711 883.746 901.718 885.186 883.797 887.493C833.469 893.934 792.499 879.354 760.534 838.106C735.342 805.588 701.015 781.024 675.196 749.188C641.976 708.236 597.48 690.592 549.183 678.098C509.541 667.855 486.287 630.483 490.365 583.625C491.51 570.614 492.709 557.566 493.447 544.518C494.426 527.244 489.461 511.889 474.475 502.237C443.71 482.453 417.393 456.966 387.532 436.056C362.488 418.523 336.244 407.191 304.483 415.053C286.23 419.557 267.572 419.852 249.117 413.817C230.311 407.653 220.64 393.701 220.585 374.009C220.585 347.839 231.233 327.87 252.439 313.106C261.168 306.96 266.206 298.102 269.454 288.025C274.234 273.261 279.476 258.496 284.09 243.732C291.232 220.792 309.318 211.324 330.616 209.147C360.49 205.789 390.728 209.99 418.556 221.364C449.505 234.283 493.337 223.523 513.804 191.153C531.982 162.381 562.028 151.695 594.786 158.265C609.107 161.144 622.026 166.736 635.388 171.885C644.136 175.263 653.123 177.773 662.683 177.311C682.707 176.351 694.722 167.991 698.265 148.244C700.941 133.295 706.22 118.863 706.496 103.342C706.773 87.8209 729.252 66.4311 747.8 60.8945C773.12 53.3832 799.862 50.8179 823.836 38.4897C830.277 35.4158 835.599 30.4096 839.061 24.1683C845.503 12.107 852.62 0.418457 860.377 -10.8416C871.192 -25.9012 888.3 -26.99 906.516 -14.8648C928.662 -0.100517 938.425 21.4923 931.929 46.8684C930.692 51.9067 921.742 55.0626 916.205 58.8829Z" stroke="white" stroke-width="0.461385" stroke-linejoin="round"/>
<path d="M-661.952 1495.67C-642.205 1433.38 -548.765 1424.82 -509.51 1465.4C-492.181 1483.29 -482.289 1505.49 -468.909 1525.7C-454.864 1547.07 -435.449 1552.55 -411.568 1543.29C-378.348 1530.37 -345.239 1520.62 -308.457 1534.06C-279.501 1544.67 -256.044 1533.52 -241.76 1506.38C-218.842 1462.66 -204.514 1414.95 -199.552 1365.84C-195.123 1322.23 -209.647 1311.82 -250.987 1326.73C-271.446 1334.42 -293.081 1338.51 -314.935 1338.82C-338.023 1338.82 -359.136 1332.08 -370.117 1310.31C-391.71 1267.49 -391.765 1231.3 -355.353 1197.28C-339.894 1182.76 -327.293 1165.47 -318.202 1146.31C-304.357 1118.35 -287.373 1092.05 -267.579 1067.93C-252.205 1048.81 -252.814 1026.15 -268.575 1007.19C-276.567 997.616 -286.828 991.341 -298.104 986.487C-322.096 976.171 -346.42 966.279 -370.172 955.335C-389.181 946.568 -406.382 935.034 -405.551 910.765C-404.993 893.333 -402.58 876.01 -398.354 859.09C-390.123 826.11 -374.638 795.419 -368.308 761.867C-367.554 758.503 -365.888 755.412 -363.491 752.934C-339.223 727.3 -307.738 718.404 -274.112 718.275C-247.768 718.35 -221.844 724.884 -198.611 737.303C-167.237 753.709 -135.715 768.677 -99.0811 754.78C-89.7611 751.273 -80.1274 748.413 -71.1949 744.076C-32.9923 725.62 -5.05083 697.771 -2.68854 653.404C-0.270882 607.93 -16.3086 566.498 -39.304 527.908C-49.0115 511.612 -62.0042 497.383 -69.8108 479.924C-74.3693 469.663 -73.5019 460.989 -64.2742 453.219C-46.151 437.938 -30.8514 419.999 -15.6073 401.802C0.686279 382.47 19.5869 365.494 40.5524 351.364C65.744 334.348 95.5494 337.577 123.602 333.665C136.52 331.819 139.935 328.423 136.41 315.431C137.923 310.669 139.639 305.945 137.554 300.87C130.836 284.684 127.348 267.65 123.362 250.616C120.427 238.011 116.958 225.369 110.443 213.705C92.3013 180.633 62.3667 164.097 28.2611 153.411C8.47693 147.173 -10.0153 139.33 -25.6286 124.842C-39.4701 112.034 -53.5701 97.8604 -74.7015 99.1153C-88.6537 99.9458 -102.846 101.219 -116.318 104.652C-135.992 109.709 -151.162 119.656 -143.263 146.564C-135.973 171.387 -137.025 193.201 -159.615 209.921C-162.161 211.715 -164.596 213.663 -166.905 215.753C-181.208 229.373 -193.407 244.193 -191.487 265.712C-189.199 291.31 -180.709 314.767 -161.959 332.761C-135.936 357.823 -123.202 389.382 -113.864 423.192C-107.534 445.966 -113.347 455.378 -136.712 459.734C-164.69 464.92 -190.232 455.249 -215.756 446.556C-241.778 437.698 -259.901 448.402 -264.257 475.642C-266.807 490.766 -272.827 505.093 -281.845 517.499C-307.885 553.93 -340.404 584.363 -373.716 614.002C-391.414 629.745 -409.907 645.376 -420.316 666.951C-432.108 691.404 -440.081 696.479 -466.066 689.097C-482.196 684.465 -498.179 679.242 -514.42 674.997C-558.399 663.444 -600.385 672.672 -641.393 688.599" stroke="white" stroke-width="0.461385" stroke-linejoin="round"/>
<path d="M-100.152 394.088C-113.786 363.781 -130.7 335.06 -150.59 308.437C-162.771 292.067 -167.864 273.187 -157.456 254.122C-147.49 235.87 -129.643 230.444 -109.896 230.13C-104.913 230.13 -99.9302 230.13 -93.7477 230.13C-64.9019 234.781 -42.5709 222.841 -25.4627 198.572C-1.96904 165.352 54.5229 175.595 75.7835 199.845C93.7406 220.331 104.445 242.828 96.4167 270.806C92.7256 283.633 84.5498 293.801 72.3323 297.603C46.5871 305.65 29.6451 323.441 14.7516 344.24C-1.37845 366.885 -20.7935 386.687 -40.5039 406.121C-62.8534 428.12 -86.8823 423.617 -100.152 394.088Z" stroke="white" stroke-width="0.461385" stroke-linejoin="round"/>
<path d="M-653.869 653.109C-632.516 655.232 -611.569 652.353 -590.659 648.717C-566.145 644.211 -541.326 641.558 -516.413 640.781C-499.065 640.412 -483.415 635.558 -469.684 624.725C-451.413 610.311 -434.619 594.181 -412.361 584.99C-385.933 574.065 -363.159 556.938 -342.379 537.505C-323.923 520.304 -315.581 499.357 -320.491 473.446C-323.48 457.556 -330.863 443.474 -335.993 428.507C-350.001 387.647 -332.726 356.845 -290.574 348.595C-278.944 346.233 -267.843 341.768 -257.816 335.418C-243.366 326.412 -236.611 313.272 -238.825 296.662C-241.372 277.8 -252.593 264.143 -267.893 253.07C-283.192 241.997 -302.829 234.504 -307.683 214.148C-316.726 176.296 -338.909 147.579 -366.98 122.424C-413.613 81.0075 -453.5 32.5706 -485.205 -21.1399C-495.835 -39.2631 -497.496 -57.534 -484.67 -75.5095C-477.804 -85.1248 -469.905 -94.1679 -464.055 -104.337C-438.328 -148.63 -399.092 -175.132 -352.16 -192.701C-325.123 -202.815 -304.914 -220.735 -295.52 -249.415C-289.116 -268.94 -282.602 -288.577 -273.928 -307.162C-257.318 -342.688 -254.568 -378.935 -264.294 -416.436C-269.351 -436.036 -275.644 -455.34 -280.276 -475.032C-285.813 -498.71 -287.769 -522.72 -276.807 -545.531C-258.831 -582.959 -204.831 -612.838 -163.417 -611.03C-147.397 -610.328 -137.948 -603.647 -136.767 -589.178C-134.036 -555.608 -111.705 -539.349 -84.9814 -526.43C-55.0467 -511.813 -24.946 -500.316 9.93466 -504.597C33.4468 -507.476 56.7744 -499.061 80.1943 -495.997C103.614 -492.933 126.683 -493.524 147.852 -507.07C175.147 -524.418 202.517 -541.637 231.898 -555.534C239.075 -558.7 245.331 -563.638 250.076 -569.885C254.822 -576.131 257.902 -583.482 259.027 -591.245C262.718 -612.414 273.275 -629.503 289.792 -644.102" stroke="white" stroke-width="0.461385" stroke-linejoin="round"/>
<path d="M164.923 -229.169C153.112 -246.406 136.612 -259.417 119.467 -271.616C83.4979 -297.343 45.4613 -287.451 26.8952 -247.384C17.5568 -227.213 10.9497 -206.192 4.21351 -185.134C-5.01419 -156.528 -24.3554 -140.085 -54.3639 -136.006C-76.6949 -132.961 -99.0997 -134.013 -118.09 -133.57C-138.391 -133.57 -155.167 -133.238 -171.98 -133.681C-184.548 -133.994 -190.841 -128.532 -194.865 -116.499C-199.115 -102.872 -201.838 -88.8147 -202.985 -74.5865C-206.787 -37.0113 -201.306 -1.30009 -180.451 31.1629C-166.074 53.7523 -145.773 63.5337 -119.327 59.7688C-94.9657 56.3176 -70.7707 51.796 -46.3911 48.5479C-20.5536 45.0967 -3.15019 55.2287 7.95995 78.2611C14.124 91.1798 22.7243 102.475 34.7941 109.967C65.5777 128.976 99.8493 141.157 131.722 158.062C142.223 163.599 152.023 162.03 159.497 155.534C166.972 149.037 173.007 139.884 170.183 128.294C167.266 115.215 162.375 102.657 155.677 91.0506C141.946 68.0921 128.271 45.0598 115.296 21.6768C110.461 12.9659 108.892 1.22826 116.385 -5.43413C152.078 -37.2143 169.315 -79.2556 180.61 -123.401C189.893 -159.703 187.106 -196.816 164.923 -229.169Z" stroke="white" stroke-width="0.461385" stroke-linejoin="round"/>
<path d="M65.2087 63.386C72.4617 66.3758 82.446 67.0771 83.1658 78.1503C83.6825 86.0308 76.891 86.8059 72.4248 86.7321C61.4623 86.5475 62.8464 76.5632 60.7794 69.9746C60.7425 66.2835 61.3146 61.7619 65.2087 63.386Z" stroke="white" stroke-width="0.461385" stroke-linejoin="round"/>
<path d="M97.4502 -49.7456C61.3145 -38.0079 31.4906 -15.4186 -0.012728 4.62399C-36.7943 28.0439 -79.2417 35.7029 -121.671 40.3905C-151.31 43.6941 -167.717 23.1163 -178.993 -0.783422C-192.521 -29.4077 -194.865 -58.5304 -175.302 -85.8259C-161.903 -104.484 -140.827 -107.843 -120.102 -111.11C-92.1051 -115.521 -63.61 -113.472 -35.5209 -118.104C-9.84949 -122.349 6.92646 -136.394 16.6709 -159.555C21.7507 -171.611 26.1742 -183.932 29.9219 -196.466C34.4978 -212.352 41.6421 -227.383 51.0718 -240.962C63.9906 -259.233 85.4542 -263.607 104.592 -251.703C140.156 -229.556 154.108 -195.912 156.267 -156.418C153.333 -120.522 137.812 -90.6612 117.622 -62.9227C112.805 -56.2973 105.091 -52.237 97.4502 -49.7456Z" stroke="white" stroke-width="0.461385" stroke-linejoin="round"/>
<path d="M675.104 749.188C700.941 781.024 735.25 805.588 760.442 838.106C792.406 879.354 833.377 893.952 883.705 887.493C901.625 885.204 919.656 883.802 937.558 881.347C955.46 878.892 973.491 876.18 988.624 864.996C1019.76 841.945 1034.87 808.301 1046.15 773.18C1054.53 747.14 1066.99 725.694 1090.74 711.225C1103.66 703.308 1108.66 688.082 1099.82 675.791C1082.58 651.891 1063.96 628.416 1038.45 612.747C1013.63 597.503 989.565 581.798 970.519 559.338C943.058 527.004 907.771 514.454 865.785 516.761C830.055 518.717 819.13 508.641 812.91 473.428C810.585 460.251 808.536 446.926 804.827 434.118C795.156 400.64 796.503 368.269 808.093 335.16C822.858 292.712 848.031 264.439 894.834 258.441C920.671 255.119 946.398 249.601 970.39 238.14C984.176 231.551 993.386 222.065 993.644 206.175C994.05 181.999 984.693 160.037 977.865 137.374C973.029 121.336 960.627 114.304 946.287 108.38C929.678 101.533 908.712 103.526 897.565 85.2002C887.729 72.1707 900.223 69.2916 907.273 64.0872C910.004 62.0571 913.289 60.8021 916.113 58.8643C921.65 55.0625 930.6 51.9436 931.874 46.9421C938.352 21.5475 928.644 -0.0637405 906.461 -14.7911C888.19 -26.9163 871.082 -25.8643 860.322 -10.7678C852.475 0.437817 845.266 12.077 838.729 24.0944C835.273 30.3448 829.95 35.3586 823.504 38.4342C799.512 50.744 772.788 53.3277 747.468 60.8391C729.012 66.3757 706.441 87.95 706.164 103.286C705.888 118.623 700.628 133.221 697.933 148.188C694.39 167.936 682.375 176.278 662.37 177.237C652.791 177.699 643.804 175.207 635.056 171.811C621.749 166.662 608.831 161.07 594.454 158.21C561.677 151.621 531.706 162.307 513.453 191.079C492.986 223.449 449.155 234.135 418.205 221.309C390.407 209.972 360.209 205.791 330.376 209.147C309.078 211.324 290.992 220.792 283.85 243.713C279.236 258.57 273.995 273.242 269.233 288.006C265.985 298.065 260.947 306.942 252.199 313.069C230.994 327.925 220.289 347.839 220.363 373.972C220.363 393.664 230.089 407.616 248.895 413.78C267.351 419.833 286.046 419.538 304.261 415.035C336.078 407.173 362.322 418.504 387.311 436.019C417.153 456.929 443.47 482.434 474.236 502.218C489.221 511.852 494.186 527.225 493.208 544.481C492.488 557.547 491.362 570.577 490.144 583.606C486.065 630.464 509.301 667.818 548.961 678.079C597.388 690.592 641.884 708.236 675.104 749.188Z" stroke="white" stroke-width="0.461385" stroke-linejoin="round"/>
<path d="M568.561 669.83C526.815 661.1 506.071 640.006 506.182 592.871C504.336 577.461 512.254 560.611 516.941 543.3C522.976 520.987 517.716 503.805 499.113 490C463.882 463.831 432.286 432.789 394.693 409.886C371.162 395.564 347.336 381.76 329.767 360.388C319.229 347.47 305.461 336.046 310.924 314.25C315.039 297.898 310.444 279.849 317.309 262.925C324.175 246.002 338.515 241.48 353.26 239.284C369.227 237.077 385.439 240.971 398.661 250.191C421.508 265.546 447.032 272.725 473.922 275.401C482.393 276.25 489.258 272.559 496.677 265.989C519.156 246.057 530.838 218.669 549.146 196.061C558.226 184.859 571.477 182.202 585.318 181.962C607.243 181.574 625.237 193.293 644.376 201.377C691.788 221.53 712.974 203.776 731.688 162.62C735.251 154.652 738.014 146.349 739.938 137.835C744.718 117.054 758.282 103.582 775.796 93.4126C787.922 86.3811 800.822 90.4413 813.206 92.7851C828.523 95.6826 842.734 102.382 856.52 109.266C878.353 120.099 901.182 128.219 924.067 136.34C961.827 149.775 976.277 195.563 951.27 222.157C943.633 230.514 933.671 236.395 922.664 239.044C905.076 243.178 887.47 247.312 869.753 250.856C844.709 255.875 824.888 268.72 813.445 291.457C799.752 318.661 786.482 346.288 782.68 377.183C780.023 398.72 786.058 419.242 790.21 439.931C793.255 454.954 794.123 470.142 795.525 485.313C796.928 500.483 798.644 516.023 812.135 526.376C825.165 536.342 840.243 535.253 855.136 533.204C885.643 528.978 913.492 534.552 937.373 554.834C949.374 564.728 960.734 575.374 971.387 586.707C987.997 604.793 1008.43 618.081 1028.14 632.218C1039.99 640.974 1049.13 652.898 1054.51 666.619C1060.77 681.623 1054.95 693.637 1046.48 705.596C1035.11 721.634 1027.05 738.484 1023.45 758.711C1017.69 791.1 1005.6 821.681 981.002 845.451C973.54 853.101 963.966 858.351 953.503 860.529C922.24 866.066 890.884 871.805 859.381 874.851C832.436 877.453 807.06 868.428 789.011 848.404C756.123 812.268 717.939 780.784 688.41 741.861C657.461 700.982 617.671 680.091 568.561 669.83Z" stroke="white" stroke-width="0.461385" stroke-linejoin="round"/>
<path d="M794.178 830.724C814.7 854.716 839.191 861.378 868.535 856.229C886.64 853.055 904.597 849.142 922.646 845.783C954.721 839.785 976.038 822.567 984.195 789.827C990.101 766.093 980.245 745.183 957.601 736.306C949.517 733.15 941.286 730.031 934.697 723.959C923.624 713.809 924.196 706.427 935.639 697.254C941.635 692.238 949.271 689.61 957.084 689.872C967.677 689.983 978.178 688.968 988.163 684.613C1009.61 675.274 1011.53 666.729 998.055 646.982C978.714 618.671 954.592 594.993 929.161 572.348C909.229 554.65 886.935 545.348 859.732 550.35C850.282 552.084 840.538 552.306 830.941 553.229C795.691 553.506 777.051 535.881 776.406 498.859C775.852 467.891 773.065 437.495 764.631 407.579C759.066 388.201 760.631 367.471 769.042 349.149C778.676 327.206 786.74 304.561 796.319 282.58C808.426 254.897 829.225 238.103 859.805 233.858C875.197 231.717 890.792 230.684 905.796 226.015C928.386 218.965 939.274 202.023 933.295 181.556C929.77 169.523 921.114 161.439 910.023 156.106C883.391 143.316 854.767 136.857 826.069 131.283C802.077 126.632 777.458 137.558 768.599 156.05C762.158 169.523 755.053 182.478 747.763 195.489C729.012 229.078 697.509 242.329 660.727 230.278C643.564 224.741 626.751 218.023 609.68 212.192C588.622 204.994 575.556 209.257 563.246 227.879C557.248 236.94 552.357 246.74 547.06 256.263C532.702 282.101 519.839 309.027 489.35 320.709C484.508 322.757 479.272 323.705 474.019 323.484C468.766 323.264 463.627 321.882 458.973 319.436C440.757 310.651 422.524 301.682 402.167 298.637C388.03 296.533 373.192 303.49 371.808 314.176C369.224 333.905 371.457 352.6 386.296 368.029C400.137 382.424 418.814 389.788 434.077 402.097C467.702 429.19 495.348 463 532.481 486.328C551.619 498.324 554.332 514.565 545.621 535.493C541.748 544.328 537.297 552.897 532.296 561.146C510.408 598.74 524.489 638.271 565.331 652.482C580.391 657.705 596.318 659.218 612.042 661.396C636.2 664.736 660.506 669.368 674.901 691.293C686.731 709.269 699.447 726.562 712.292 743.688C736.394 775.69 768.285 800.494 794.178 830.724Z" stroke="white" stroke-width="0.461385" stroke-linejoin="round"/>
<path d="M705.537 677.987C703.562 670.605 703.23 662.374 700 655.509C691.271 636.647 671.117 628.933 643.969 632.347C625.772 634.636 607.741 638.364 589.175 637.053C546.728 634.082 530.007 600.992 553.409 565.594C559.591 556.256 566.604 547.397 572.086 537.671C589.544 506.666 577.844 473.742 544.642 460.269C518.344 449.584 497.101 432.974 482.946 408.28C470.507 386.577 472.796 374.046 492.82 359.503C527.11 334.625 554.83 304.266 571.089 265.011C582.79 236.774 609.347 234.08 632.822 240.595C642.445 243.233 651.894 246.469 661.115 250.284C691.437 262.963 720.522 254.141 749.571 245.578C765.037 241.019 770.057 245.688 770.241 261.523C770.555 290.849 760.829 316.483 744.68 340.088C729.344 362.529 724.841 386.06 739.144 410.218C756.566 439.747 755.754 472.413 757.101 504.525C758.946 548.08 781.684 571.537 824.851 571.481C834.189 571.481 843.546 570.946 852.829 570.06C887.525 566.775 926.152 589.512 939.791 621.495C944.958 633.584 936.69 645.949 920.247 654.955C891.696 670.605 877.596 696.793 872.632 727.854C870.472 741.419 878.925 750.794 891.235 755.869C902.677 760.594 915.411 762.255 925.728 769.821C932.667 778.052 946.029 782.74 939.957 797.984C937.447 804.185 934.291 808.707 927.906 811.18C908.158 818.783 888.743 827.328 868.848 834.249C847.975 841.465 828.376 838.328 813.611 820.777C802.014 807.312 789.255 794.893 775.482 783.663C741.432 755.26 716.813 721.136 705.537 677.987Z" stroke="white" stroke-width="0.461385" stroke-linejoin="round"/>
<path d="M516.941 543.3C512.254 560.611 504.391 577.461 506.182 592.871C506.071 640.006 526.815 661.156 568.561 669.83C617.671 680.091 657.46 700.983 688.41 741.806C717.939 780.728 756.123 812.139 788.863 848.496C806.912 868.521 832.288 877.564 859.233 874.943C890.792 871.898 922.166 866.177 953.448 860.622C963.899 858.438 973.464 853.196 980.928 845.562C1005.55 821.755 1017.65 791.156 1023.38 758.822C1027.07 738.521 1035.04 721.745 1046.41 705.707C1054.88 693.748 1060.69 681.715 1054.44 666.711C1049.05 652.999 1039.91 641.082 1028.06 632.328C1008.35 618.136 987.83 604.904 971.331 586.818C960.675 575.483 949.314 564.832 937.318 554.927C913.418 534.626 885.643 529.089 855.081 533.297C840.169 535.364 825.109 536.434 812.061 526.468C798.515 516.115 796.836 500.797 795.451 485.424C794.067 470.05 793.163 455.064 790.136 440.023C785.965 419.353 779.949 398.812 782.588 377.275C786.408 346.381 799.659 318.771 813.353 291.55C824.814 268.794 844.616 255.949 869.679 250.948C887.396 247.404 905.003 243.27 922.591 239.155C933.593 236.499 943.549 230.611 951.178 222.25C976.203 195.656 961.753 149.868 923.975 136.451C901.108 128.312 878.279 120.192 856.446 109.358C842.605 102.493 828.45 95.7935 813.113 92.896C800.73 90.5521 787.829 86.492 775.704 93.5235C758.208 103.674 744.644 117.146 739.864 137.927C737.945 146.451 735.175 154.761 731.596 162.731C712.882 203.831 691.695 221.604 644.283 201.487C625.237 193.386 607.243 181.666 585.226 182.054C571.385 182.294 558.152 184.951 549.053 196.172C530.746 218.78 519.063 246.168 496.585 266.081C489.203 272.651 482.3 276.343 473.829 275.494C446.958 272.818 421.416 265.657 398.587 250.284C385.354 241.073 369.14 237.179 353.168 239.376C338.404 241.591 324.045 246.205 317.235 263.018C310.425 279.831 314.965 298.083 310.85 314.361C305.313 336.101 319.155 347.58 329.693 360.499C347.244 381.889 371.07 395.675 394.619 409.996C432.212 432.863 463.808 463.942 499.039 490.111C517.716 503.805 522.976 520.987 516.941 543.3Z" stroke="white" stroke-width="0.461385" stroke-linejoin="round"/>
<path d="M532.554 486.328C495.404 463.019 467.757 429.116 434.132 402.098C418.869 389.788 400.192 382.424 386.351 368.029C371.587 352.6 369.28 333.905 371.863 314.176C373.266 303.509 388.086 296.533 402.222 298.637C422.523 301.682 440.831 310.651 459.028 319.436C463.681 321.885 468.82 323.27 474.074 323.49C479.327 323.711 484.564 322.761 489.406 320.709C519.912 309.027 532.757 282.101 547.116 256.263C552.412 246.74 557.303 236.94 563.301 227.879C575.611 209.257 588.677 204.994 609.735 212.192C626.824 218.042 643.619 224.668 660.782 230.278C697.509 242.329 729.067 229.042 747.781 195.527C755.053 182.515 762.158 169.56 768.599 156.106C777.457 137.65 802.077 126.669 826.069 131.32C854.767 136.857 883.391 143.353 910.022 156.143C921.096 161.476 929.788 169.56 933.295 181.593C939.274 202.06 928.404 219.002 905.796 226.052C890.792 230.721 875.197 231.754 859.805 233.895C829.225 238.14 808.37 254.916 796.337 282.599C786.74 304.579 778.694 327.224 769.042 349.168C760.631 367.49 759.066 388.22 764.631 407.597C773.083 437.514 775.852 467.91 776.405 498.878C777.07 535.918 795.71 553.524 830.941 553.247C840.538 552.343 850.282 552.103 859.732 550.368C886.935 545.367 909.247 554.668 929.161 572.386C954.592 594.975 978.732 618.672 998.055 646.982C1011.53 666.729 1009.61 675.274 988.181 684.613C978.178 688.968 967.677 689.983 957.084 689.872C949.272 689.622 941.641 692.249 935.639 697.255C924.196 706.482 923.679 713.865 934.697 723.96C941.286 730.031 949.462 733.187 957.619 736.306C980.245 745.128 990.1 766.038 984.195 789.827C976.037 822.548 954.666 839.786 922.646 845.765C904.597 849.124 886.639 853.147 868.553 856.211C839.191 861.36 814.7 854.716 794.196 830.724C768.359 800.513 736.339 775.69 712.347 743.707C699.428 726.58 686.786 709.288 674.956 691.312C660.561 669.387 636.2 664.773 612.097 661.414C596.373 659.237 580.446 657.723 565.387 652.5C524.545 638.29 510.463 598.758 532.351 561.165C537.352 552.916 541.803 544.346 545.676 535.512C554.387 514.565 551.674 498.324 532.554 486.328Z" stroke="white" stroke-width="0.461385" stroke-linejoin="round"/>
<path d="M4.26874 315.376C9.1225 297.123 16.3386 282.544 35.9567 276.306C43.7633 273.851 50.3334 267.669 57.7156 263.664C68.4012 257.85 71.0957 247.903 69.9699 237.402C68.4197 222.951 58.786 214.259 45.3136 209.719C34.9232 206.268 25.7139 207.541 18.3502 216.584C10.5251 226.236 1.14981 234.523 -5.78942 245.005C-10.6247 252.295 -17.9884 255.746 -27.1238 256.595C-45.7822 258.312 -64.3484 260.508 -82.1947 257.537C-89.2631 258.09 -95.4641 258.755 -101.684 259.068C-130.456 260.545 -139.886 276.398 -127.004 302.494C-117.777 321.195 -108.168 339.7 -98.1771 358.008C-93.5091 366.803 -88.1332 375.203 -82.1025 383.126C-73.2992 394.476 -61.8015 396.746 -49.9347 388.791C-23.2667 370.89 -4.0731 346.713 4.26874 315.376Z" stroke="white" stroke-width="0.461385" stroke-linejoin="round"/>
<path d="M571.145 265.011C554.886 304.247 527.166 334.625 492.857 359.503C472.851 374.045 470.544 386.577 483.002 408.28C497.157 432.974 518.399 449.583 544.698 460.269C577.918 473.742 589.6 506.684 572.141 537.671C566.605 547.397 559.647 556.256 553.465 565.594C530.045 601.01 546.728 634.082 589.231 637.053C607.797 638.364 625.828 634.636 644.025 632.347C671.173 628.933 691.326 636.647 700.056 655.509C703.23 662.374 703.562 670.513 705.592 677.987C716.887 721.136 741.506 755.26 775.483 783.644C789.255 794.861 802.014 807.268 813.612 820.721C828.376 838.272 847.976 841.41 868.83 834.194C888.817 827.273 908.232 818.728 927.887 811.124C934.291 808.651 937.429 804.148 939.939 797.929C946.103 782.685 932.649 777.997 925.71 769.766C915.375 762.255 902.677 760.538 891.217 755.814C878.907 750.757 870.454 741.382 872.614 727.798C877.578 696.756 891.659 670.587 920.21 654.918C936.672 645.893 944.94 633.547 939.773 621.458C926.116 589.457 887.507 566.738 852.811 570.023C843.583 570.891 834.171 571.426 824.832 571.426C781.665 571.426 758.965 548.043 757.064 504.488C755.68 472.376 756.548 439.673 739.126 410.181C724.878 386.06 729.4 362.529 744.662 340.051C760.811 316.428 770.5 290.812 770.205 261.486C770.038 245.633 765.019 240.982 749.553 245.541C720.504 254.104 691.419 262.907 661.078 250.247C651.865 246.429 642.422 243.193 632.804 240.558C609.403 234.08 582.846 236.774 571.145 265.011Z" stroke="white" stroke-width="0.461385" stroke-linejoin="round"/>
<path d="M713.989 296.588C720.301 301.405 720.762 308.935 717.846 315.376C706.773 339.848 692.544 361.957 667.371 374.433C656.298 379.97 645.224 380.302 632.306 378.623C609.089 375.614 587.385 363.489 563.024 367.549C555.642 368.767 554.701 362.825 556.638 357.583C560.33 347.728 564.667 338.113 569.004 328.516C577.991 308.621 582.273 286.216 600.175 271.009C606.787 265.057 615.44 261.884 624.333 262.15C655.726 269.68 687.487 276.343 713.989 296.588Z" stroke="white" stroke-width="0.461385" stroke-linejoin="round"/>
<path d="M117.603 -62.8674C137.904 -90.5505 153.315 -120.485 156.249 -156.381C154.163 -195.875 140.211 -229.556 104.574 -251.666C85.4172 -263.57 63.972 -259.196 51.0533 -240.925C41.6108 -227.351 34.4597 -212.319 29.8849 -196.429C26.1372 -183.895 21.7137 -171.574 16.634 -159.518C6.87107 -136.357 -9.88642 -122.294 -35.5579 -118.067C-63.647 -113.435 -92.142 -115.484 -120.139 -111.073C-140.846 -107.806 -161.94 -104.447 -175.339 -85.789C-194.939 -58.475 -192.613 -29.3709 -179.03 -0.746557C-167.735 23.1532 -151.347 43.7309 -121.708 40.4459C-79.2602 35.7398 -36.8128 28.0807 -0.0497156 4.66086C31.4536 -15.3817 61.296 -37.9711 97.4132 -49.7087C105.091 -52.2371 112.805 -56.2973 117.603 -62.8674Z" stroke="white" stroke-width="0.461385" stroke-linejoin="round"/>
<path d="M9.25173 -44.7441C-9.49895 -26.2887 -29.1909 -9.10671 -53.0537 2.39099C-73.2575 12.3163 -95.2902 17.9705 -117.777 19.0008C-142.784 20.0343 -167.274 -2.18596 -170.19 -28.0789C-173.881 -60.1174 -160.962 -78.7574 -129.164 -86.4348C-118.09 -89.1108 -107.239 -93.2818 -95.2796 -92.359C-84.2064 -91.4916 -72.8932 -92.1745 -66.6368 -92.1745C-38.2709 -89.8675 -15.3308 -90.9195 7.75685 -97.0282C25.2341 -101.661 34.7571 -112.494 40.2014 -127.941C47.1406 -147.614 53.1202 -167.602 59.0997 -187.589C61.7758 -196.577 67.8476 -202.907 74.8052 -207.89C84.9373 -215.272 99.4063 -209.311 105.7 -194.713C118.618 -164.833 121.608 -135.028 103.854 -105.296C96.1766 -92.3774 84.199 -86.361 71.3541 -83.7588C45.3689 -78.5544 27.0427 -62.2029 9.25173 -44.7441Z" stroke="white" stroke-width="0.461385" stroke-linejoin="round"/>
<path d="M-52.9796 2.39093C-29.1168 -9.10678 -9.42489 -26.2518 9.32578 -44.7441C27.043 -62.2029 45.3691 -78.5544 71.4097 -83.8511C84.3285 -86.4533 96.2322 -92.5436 103.91 -105.389C121.701 -135.102 118.674 -164.907 105.755 -194.786C99.4619 -209.385 85.0113 -215.272 74.8608 -207.964C67.9032 -202.944 61.8314 -196.614 59.1553 -187.663C53.1942 -167.675 47.1962 -147.67 40.257 -128.015C34.8126 -112.549 25.3081 -101.734 7.81243 -97.0837C-15.2753 -90.9749 -38.2153 -89.923 -66.5812 -92.2299C-72.8376 -92.2299 -84.0954 -91.5655 -95.224 -92.4144C-107.183 -93.3372 -117.998 -89.1847 -129.108 -86.5087C-160.907 -78.8313 -173.752 -60.1913 -170.134 -28.1343C-167.218 -2.29676 -142.728 19.9789 -117.721 18.9269C-95.2322 17.9317 -73.1913 12.3021 -52.9796 2.39093Z" stroke="white" stroke-width="0.461385" stroke-linejoin="round"/>
<path d="M717.939 315.376C720.855 308.935 720.412 301.405 714.081 296.588C687.58 276.287 655.818 269.717 624.481 262.15C615.585 261.878 606.926 265.045 600.304 270.991C582.421 286.216 578.158 308.603 569.133 328.516C564.796 338.094 560.44 347.71 556.786 357.565C554.83 362.806 555.79 368.767 563.153 367.531C587.514 363.452 609.292 375.596 632.435 378.604C645.354 380.265 656.427 379.877 667.5 374.396C692.544 361.957 706.865 339.811 717.939 315.376Z" stroke="white" stroke-width="0.461385" stroke-linejoin="round"/>
<path d="M618.279 311.574C618.649 305.373 624.259 298.858 634.576 298.138C645.298 297.4 661.668 312.331 659.952 321.411C658.106 331.598 648.03 334.44 640.02 335.141C625.662 336.378 618.15 328.59 618.279 311.574Z" stroke="white" stroke-width="0.461385" stroke-linejoin="round"/>
<path d="M618.28 311.574C618.114 328.59 625.662 336.378 640.02 335.141C648.03 334.44 658.033 331.598 659.952 321.411C661.668 312.331 645.298 297.419 634.576 298.138C624.296 298.858 618.686 305.373 618.28 311.574Z" stroke="white" stroke-width="0.461385" stroke-linejoin="round"/>
</g>
<defs>
<clipPath id="clip0_1_231">
<rect width="653" height="358" fill="white"/>
</clipPath>
</defs>
</svg>
