<svg className='w-full h-auto' viewBox="0 0 806 461" fill="none" xmlns="http://www.w3.org/2000/svg">
                        <path d="M797.888 57.9551C797.888 60.1643 799.679 61.9551 801.888 61.9551C804.097 61.9551 805.888 60.1643 805.888 57.9551C805.888 55.746 804.097 53.9551 801.888 53.9551C799.679 53.9551 797.888 55.746 797.888 57.9551ZM369.342 13.9442L369.91 14.4335L369.342 13.9442ZM448.015 196.944L448.614 196.492L448.015 196.944ZM513.632 448.28L514.105 448.862L513.632 448.28ZM126.792 196.944L126.745 197.693L126.792 196.944ZM0.060791 260.758C0.060791 262.968 1.85165 264.758 4.06079 264.758C6.26993 264.758 8.06079 262.968 8.06079 260.758C8.06079 258.549 6.26993 256.758 4.06079 256.758C1.85165 256.758 0.060791 258.549 0.060791 260.758ZM5.75836 259.569C5.99836 259.231 5.91923 258.763 5.58163 258.523C5.24403 258.283 4.77579 258.362 4.5358 258.7L5.75836 259.569ZM9.55426 252.369C9.28504 252.683 9.32198 253.157 9.63677 253.426C9.95156 253.695 10.425 253.658 10.6942 253.343L9.55426 252.369ZM13.3158 250.364C13.5935 250.056 13.5694 249.582 13.2621 249.304C12.9548 249.027 12.4805 249.051 12.2028 249.358L13.3158 250.364ZM17.7444 243.515C17.4525 243.809 17.4542 244.283 17.7481 244.575C18.042 244.867 18.5168 244.866 18.8087 244.572L17.7444 243.515ZM21.6483 241.775C21.9465 241.487 21.9553 241.012 21.6678 240.714C21.3804 240.416 20.9056 240.407 20.6073 240.695L21.6483 241.775ZM26.5 235.253C26.1898 235.527 26.1609 236.001 26.4354 236.311C26.7099 236.622 27.1839 236.651 27.4941 236.376L26.5 235.253ZM30.4997 233.772C30.8156 233.504 30.8546 233.031 30.5867 232.715C30.3188 232.399 29.8456 232.36 29.5296 232.628L30.4997 233.772ZM35.7577 227.572C35.4306 227.826 35.3714 228.297 35.6255 228.624C35.8795 228.951 36.3507 229.011 36.6778 228.757L35.7577 227.572ZM39.8506 226.348C40.1832 226.101 40.2527 225.631 40.0059 225.298C39.7591 224.966 39.2893 224.896 38.9567 225.143L39.8506 226.348ZM45.5205 220.497C45.177 220.729 45.0862 221.195 45.3178 221.538C45.5493 221.882 46.0154 221.973 46.3589 221.741L45.5205 220.497ZM49.6776 219.56C50.0264 219.336 50.128 218.872 49.9046 218.524C49.6812 218.175 49.2173 218.073 48.8685 218.297L49.6776 219.56ZM55.7343 214.129C55.3751 214.335 55.251 214.793 55.4571 215.153C55.6633 215.512 56.1217 215.636 56.481 215.43L55.7343 214.129ZM59.9633 213.489C60.3277 213.292 60.4634 212.837 60.2664 212.473C60.0694 212.109 59.6144 211.973 59.25 212.17L59.9633 213.489ZM66.4071 208.54C66.0329 208.717 65.8733 209.165 66.0507 209.539C66.2281 209.913 66.6754 210.073 67.0497 209.895L66.4071 208.54ZM70.6693 208.24C71.0484 208.073 71.2203 207.631 71.0533 207.252C70.8863 206.872 70.4436 206.701 70.0645 206.868L70.6693 208.24ZM77.5075 203.839C77.1194 203.984 76.9223 204.416 77.0671 204.804C77.212 205.192 77.644 205.389 78.0321 205.245L77.5075 203.839ZM81.7765 203.91C82.1688 203.777 82.3788 203.351 82.2457 202.959C82.1125 202.567 81.6866 202.357 81.2944 202.49L81.7765 203.91ZM88.9858 200.142C88.586 200.25 88.3498 200.662 88.4582 201.062C88.5666 201.462 88.9785 201.698 89.3783 201.59L88.9858 200.142ZM93.2273 200.612C93.6304 200.517 93.8798 200.113 93.7844 199.71C93.6889 199.307 93.2848 199.057 92.8818 199.153L93.2273 200.612ZM100.769 197.56C100.36 197.628 100.084 198.015 100.153 198.423C100.221 198.832 100.607 199.108 101.016 199.039L100.769 197.56ZM104.94 198.452C105.351 198.397 105.64 198.02 105.585 197.61C105.531 197.199 105.154 196.91 104.744 196.965L104.94 198.452ZM112.754 196.188C112.341 196.213 112.026 196.569 112.052 196.982C112.077 197.396 112.433 197.71 112.846 197.685L112.754 196.188ZM116.809 197.51C117.223 197.5 117.55 197.155 117.539 196.741C117.528 196.327 117.184 196 116.77 196.011L116.809 197.51ZM124.817 196.086C124.403 196.068 124.052 196.388 124.034 196.802C124.015 197.216 124.335 197.566 124.749 197.585L124.817 196.086ZM128.712 197.83C129.125 197.862 129.485 197.553 129.517 197.14C129.549 196.727 129.24 196.367 128.827 196.335L128.712 197.83ZM136.737 197.168C136.327 197.113 135.949 197.401 135.895 197.812C135.84 198.223 136.128 198.6 136.539 198.655L136.737 197.168ZM140.43 199.227C140.839 199.293 141.224 199.014 141.289 198.605C141.355 198.196 141.077 197.812 140.668 197.746L140.43 199.227ZM148.468 199.212C148.063 199.125 147.664 199.383 147.577 199.788C147.49 200.193 147.748 200.592 148.153 200.679L148.468 199.212ZM151.989 201.555C152.392 201.652 152.797 201.405 152.895 201.002C152.992 200.6 152.744 200.194 152.342 200.097L151.989 201.555ZM160.021 202.154C159.624 202.037 159.207 202.265 159.09 202.662C158.973 203.06 159.201 203.477 159.598 203.593L160.021 202.154ZM163.349 204.744C163.744 204.87 164.166 204.652 164.292 204.258C164.418 203.863 164.2 203.441 163.805 203.315L163.349 204.744ZM171.327 205.906C170.939 205.763 170.508 205.961 170.364 206.35C170.22 206.738 170.419 207.17 170.808 207.313L171.327 205.906ZM174.489 208.718C174.874 208.87 175.309 208.68 175.461 208.295C175.613 207.909 175.424 207.474 175.038 207.322L174.489 208.718ZM182.344 210.372C181.965 210.205 181.523 210.377 181.355 210.756C181.188 211.135 181.36 211.577 181.739 211.745L182.344 210.372ZM185.343 213.376C185.719 213.55 186.165 213.387 186.339 213.012C186.514 212.636 186.351 212.19 185.975 212.015L185.343 213.376ZM193.098 215.482C192.729 215.294 192.277 215.441 192.089 215.81C191.901 216.179 192.048 216.631 192.417 216.819L193.098 215.482ZM195.91 218.634C196.276 218.829 196.73 218.69 196.924 218.324C197.118 217.958 196.979 217.504 196.613 217.31L195.91 218.634ZM203.593 221.163C203.234 220.957 202.775 221.081 202.569 221.441C202.363 221.8 202.487 222.258 202.847 222.464L203.593 221.163ZM206.227 224.437C206.583 224.648 207.043 224.531 207.255 224.174C207.466 223.818 207.349 223.358 206.993 223.147L206.227 224.437ZM213.751 227.294C213.401 227.072 212.938 227.176 212.716 227.526C212.495 227.876 212.599 228.339 212.949 228.561L213.751 227.294ZM216.291 230.71C216.637 230.936 217.102 230.839 217.329 230.492C217.555 230.145 217.457 229.68 217.111 229.454L216.291 230.71ZM223.664 233.854C223.323 233.618 222.856 233.704 222.621 234.045C222.386 234.386 222.471 234.853 222.812 235.088L223.664 233.854ZM226.049 237.35C226.387 237.589 226.855 237.509 227.094 237.171C227.333 236.833 227.253 236.365 226.915 236.125L226.049 237.35ZM233.353 240.795C233.02 240.548 232.55 240.617 232.303 240.949C232.056 241.282 232.126 241.752 232.458 241.999L233.353 240.795ZM235.597 244.356C235.927 244.607 236.398 244.542 236.648 244.212C236.899 243.883 236.834 243.412 236.504 243.162L235.597 244.356ZM242.771 248.022C242.447 247.765 241.975 247.82 241.718 248.145C241.461 248.469 241.516 248.941 241.84 249.198L242.771 248.022ZM244.944 251.68C245.267 251.94 245.739 251.89 245.999 251.567C246.259 251.245 246.209 250.773 245.887 250.513L244.944 251.68ZM251.981 255.524C251.663 255.258 251.19 255.3 250.924 255.618C250.659 255.936 250.7 256.409 251.018 256.675L251.981 255.524ZM254.037 259.224C254.352 259.492 254.826 259.454 255.094 259.139C255.363 258.823 255.325 258.35 255.009 258.081L254.037 259.224ZM261.015 263.279C260.704 263.006 260.23 263.036 259.956 263.347C259.683 263.658 259.713 264.132 260.024 264.406L261.015 263.279ZM262.97 267.015C263.279 267.291 263.753 267.264 264.029 266.955C264.305 266.646 264.278 266.171 263.969 265.896L262.97 267.015ZM269.842 271.212C269.537 270.932 269.062 270.952 268.782 271.258C268.502 271.563 268.523 272.037 268.828 272.317L269.842 271.212ZM271.741 275.008C272.044 275.29 272.518 275.273 272.801 274.969C273.083 274.666 273.065 274.191 272.762 273.909L271.741 275.008ZM278.518 279.328C278.218 279.042 277.743 279.053 277.457 279.353C277.172 279.653 277.183 280.128 277.483 280.414L278.518 279.328ZM280.335 283.147C280.634 283.434 281.108 283.426 281.396 283.127C281.683 282.829 281.675 282.354 281.376 282.067L280.335 283.147ZM287.058 287.602C286.763 287.311 286.288 287.315 285.998 287.61C285.707 287.905 285.711 288.38 286.006 288.671L287.058 287.602ZM288.811 291.445C289.104 291.737 289.579 291.736 289.871 291.442C290.163 291.149 290.162 290.674 289.868 290.382L288.811 291.445ZM295.456 295.988C295.165 295.694 294.69 295.691 294.395 295.982C294.1 296.273 294.097 296.748 294.388 297.042L295.456 295.988ZM297.161 299.862C297.451 300.158 297.926 300.163 298.222 299.873C298.518 299.584 298.523 299.109 298.233 298.813L297.161 299.862ZM303.751 304.492C303.464 304.194 302.989 304.185 302.691 304.473C302.393 304.76 302.384 305.235 302.671 305.533L303.751 304.492ZM305.41 308.384C305.696 308.683 306.171 308.693 306.47 308.407C306.769 308.12 306.78 307.646 306.493 307.346L305.41 308.384ZM311.946 313.079C311.661 312.778 311.186 312.765 310.885 313.05C310.584 313.334 310.571 313.809 310.855 314.11L311.946 313.079ZM313.57 316.991C313.853 317.292 314.328 317.307 314.63 317.024C314.932 316.74 314.947 316.265 314.663 315.964L313.57 316.991ZM320.07 321.749C319.788 321.446 319.313 321.429 319.01 321.711C318.706 321.993 318.689 322.467 318.971 322.771L320.07 321.749ZM321.656 325.665C321.938 325.969 322.412 325.988 322.716 325.706C323.02 325.425 323.038 324.951 322.757 324.647L321.656 325.665ZM328.125 330.47C327.845 330.165 327.37 330.145 327.065 330.425C326.76 330.705 326.74 331.18 327.02 331.485L328.125 330.47ZM329.696 334.404C329.975 334.709 330.45 334.73 330.755 334.451C331.061 334.171 331.082 333.697 330.802 333.391L329.696 334.404ZM336.125 339.224C335.846 338.918 335.372 338.895 335.066 339.174C334.759 339.453 334.737 339.927 335.016 340.234L336.125 339.224ZM337.677 343.161C337.956 343.468 338.43 343.49 338.737 343.212C339.043 342.933 339.066 342.459 338.788 342.152L337.677 343.161ZM344.117 348.028C343.839 347.721 343.364 347.698 343.057 347.976C342.75 348.254 342.727 348.728 343.005 349.035L344.117 348.028ZM345.653 351.96C345.931 352.267 346.405 352.29 346.712 352.012C347.019 351.734 347.043 351.26 346.765 350.953L345.653 351.96ZM352.074 356.819C351.796 356.512 351.322 356.488 351.015 356.766C350.707 357.044 350.684 357.519 350.962 357.826L352.074 356.819ZM353.627 360.769C353.905 361.076 354.379 361.1 354.686 360.822C354.993 360.544 355.017 360.069 354.739 359.762L353.627 360.769ZM360.034 365.601C359.756 365.295 359.281 365.272 358.975 365.55C358.668 365.829 358.645 366.303 358.924 366.61L360.034 365.601ZM361.584 369.535C361.863 369.841 362.337 369.863 362.644 369.585C362.95 369.306 362.972 368.831 362.693 368.525L361.584 369.535ZM368.05 374.392C367.77 374.086 367.296 374.066 366.991 374.345C366.685 374.625 366.664 375.1 366.944 375.405L368.05 374.392ZM369.607 378.306C369.887 378.611 370.362 378.631 370.667 378.35C370.972 378.07 370.991 377.595 370.711 377.291L369.607 378.306ZM376.084 383.104C375.802 382.801 375.327 382.783 375.024 383.065C374.72 383.347 374.703 383.822 374.985 384.125L376.084 383.104ZM377.694 387.034C377.977 387.336 378.452 387.352 378.754 387.069C379.057 386.787 379.073 386.312 378.79 386.009L377.694 387.034ZM384.166 391.723C383.881 391.422 383.406 391.41 383.105 391.695C382.805 391.979 382.792 392.454 383.077 392.755L384.166 391.723ZM385.832 395.65C386.118 395.949 386.593 395.96 386.892 395.674C387.192 395.388 387.203 394.913 386.916 394.614L385.832 395.65ZM392.415 400.314C392.126 400.018 391.651 400.012 391.355 400.301C391.058 400.59 391.052 401.064 391.341 401.361L392.415 400.314ZM394.076 404.153C394.367 404.449 394.842 404.452 395.137 404.161C395.432 403.871 395.435 403.396 395.145 403.101L394.076 404.153ZM400.772 408.743C400.477 408.451 400.002 408.454 399.711 408.748C399.42 409.043 399.422 409.518 399.717 409.809L400.772 408.743ZM402.533 412.575C402.83 412.865 403.304 412.859 403.594 412.562C403.883 412.266 403.877 411.791 403.58 411.501L402.533 412.575ZM409.271 416.961C408.97 416.677 408.495 416.691 408.211 416.992C407.927 417.294 407.94 417.768 408.242 418.052L409.271 416.961ZM411.161 420.779C411.465 421.06 411.939 421.041 412.221 420.737C412.502 420.433 412.483 419.959 412.179 419.677L411.161 420.779ZM417.963 424.915C417.653 424.641 417.179 424.669 416.904 424.98C416.63 425.29 416.659 425.764 416.969 426.038L417.963 424.915ZM420.014 428.701C420.328 428.971 420.801 428.936 421.072 428.623C421.343 428.309 421.308 427.836 420.994 427.565L420.014 428.701ZM427.002 432.604C426.68 432.343 426.208 432.391 425.947 432.712C425.685 433.034 425.734 433.506 426.055 433.767L427.002 432.604ZM429.168 436.258C429.494 436.514 429.965 436.458 430.221 436.132C430.477 435.807 430.421 435.335 430.095 435.079L429.168 436.258ZM436.389 439.839C436.053 439.596 435.584 439.671 435.341 440.006C435.098 440.341 435.173 440.81 435.508 441.053L436.389 439.839ZM438.719 443.329C439.06 443.564 439.527 443.479 439.763 443.139C439.998 442.798 439.913 442.331 439.572 442.095L438.719 443.329ZM446.195 446.429C445.842 446.211 445.38 446.321 445.163 446.674C444.946 447.027 445.056 447.489 445.409 447.706L446.195 446.429ZM448.784 449.714C449.143 449.921 449.602 449.797 449.808 449.437C450.014 449.078 449.89 448.62 449.531 448.413L448.784 449.714ZM456.512 452.095C456.138 451.916 455.69 452.074 455.511 452.448C455.332 452.821 455.49 453.269 455.863 453.448L456.512 452.095ZM459.478 455.086C459.859 455.248 460.299 455.071 460.462 454.69C460.624 454.309 460.447 453.868 460.066 453.706L459.478 455.086ZM467.396 456.407C467 456.285 466.581 456.507 466.459 456.903C466.337 457.299 466.559 457.719 466.954 457.841L467.396 456.407ZM470.847 458.912C471.249 459.009 471.654 458.761 471.752 458.359C471.849 457.956 471.601 457.551 471.199 457.454L470.847 458.912ZM478.85 458.749C478.437 458.71 478.072 459.013 478.033 459.425C477.994 459.838 478.297 460.204 478.709 460.243L478.85 458.749ZM482.737 460.459C483.151 460.464 483.491 460.133 483.496 459.718C483.501 459.304 483.17 458.964 482.755 458.959L482.737 460.459ZM490.468 458.387C490.06 458.454 489.783 458.84 489.85 459.249C489.917 459.657 490.303 459.934 490.711 459.867L490.468 458.387ZM494.656 459.035C495.057 458.931 495.297 458.522 495.194 458.121C495.09 457.72 494.68 457.479 494.279 457.583L494.656 459.035ZM501.558 454.996C501.181 455.167 501.015 455.612 501.186 455.989C501.358 456.366 501.803 456.532 502.18 456.361L501.558 454.996ZM505.807 454.526C506.169 454.324 506.299 453.867 506.097 453.505C505.895 453.143 505.438 453.014 505.077 453.215L505.807 454.526ZM511.554 448.959C511.224 449.21 511.16 449.68 511.411 450.01C511.661 450.34 512.132 450.404 512.461 450.154L511.554 448.959ZM515.696 447.546C516.013 447.279 516.053 446.806 515.786 446.489C515.52 446.173 515.047 446.132 514.73 446.399L515.696 447.546ZM520.623 441.058C520.327 441.348 520.321 441.822 520.611 442.119C520.901 442.415 521.375 442.42 521.672 442.131L520.623 441.058ZM524.523 439.228C524.807 438.926 524.793 438.452 524.491 438.168C524.19 437.884 523.715 437.898 523.431 438.199L524.523 439.228ZM528.629 432.181C528.373 432.506 528.429 432.978 528.754 433.234C529.079 433.491 529.551 433.435 529.807 433.11L528.629 432.181ZM532.223 429.894C532.464 429.557 532.386 429.089 532.049 428.848C531.712 428.607 531.243 428.685 531.002 429.022L532.223 429.894ZM535.299 422.332C535.093 422.692 535.218 423.15 535.577 423.356C535.937 423.562 536.395 423.437 536.601 423.078L535.299 422.332ZM538.526 419.502C538.713 419.133 538.565 418.682 538.195 418.495C537.825 418.308 537.374 418.457 537.187 418.826L538.526 419.502ZM540.381 411.562C540.235 411.95 540.431 412.382 540.818 412.529C541.206 412.675 541.639 412.479 541.785 412.091L540.381 411.562ZM543.111 408.264C543.236 407.869 543.018 407.448 542.623 407.323C542.228 407.198 541.807 407.416 541.681 407.811L543.111 408.264ZM543.674 400.126C543.591 400.532 543.853 400.928 544.259 401.011C544.665 401.094 545.061 400.832 545.144 400.426L543.674 400.126ZM545.853 396.433C545.915 396.024 545.633 395.641 545.224 395.579C544.814 395.517 544.432 395.799 544.37 396.209L545.853 396.433ZM545.176 388.3C545.154 388.714 545.471 389.067 545.884 389.09C546.298 389.112 546.651 388.795 546.674 388.381L545.176 388.3ZM546.801 384.346C546.805 383.932 546.473 383.593 546.059 383.589C545.644 383.585 545.305 383.918 545.302 384.332L546.801 384.346ZM545.041 376.374C545.071 376.787 545.431 377.098 545.844 377.067C546.257 377.037 546.567 376.677 546.537 376.264L545.041 376.374ZM546.164 372.238C546.118 371.827 545.747 371.53 545.335 371.576C544.924 371.622 544.627 371.993 544.673 372.405L546.164 372.238ZM543.512 364.518C543.586 364.926 543.976 365.196 544.384 365.122C544.791 365.048 545.061 364.658 544.987 364.25L543.512 364.518ZM544.203 360.289C544.116 359.884 543.718 359.626 543.313 359.713C542.908 359.799 542.649 360.198 542.736 360.603L544.203 360.289ZM540.842 352.848C540.951 353.248 541.364 353.483 541.763 353.374C542.163 353.264 542.398 352.852 542.289 352.452L540.842 352.848ZM541.175 348.577C541.055 348.18 540.637 347.955 540.24 348.075C539.844 348.194 539.619 348.612 539.738 349.009L541.175 348.577ZM537.255 341.409C537.393 341.8 537.821 342.005 538.211 341.868C538.602 341.73 538.808 341.302 538.67 340.911L537.255 341.409ZM537.297 337.133C537.151 336.745 536.719 336.548 536.331 336.694C535.943 336.839 535.747 337.272 535.892 337.66L537.297 337.133ZM532.942 330.227C533.102 330.609 533.541 330.79 533.923 330.63C534.305 330.47 534.485 330.03 534.325 329.648L532.942 330.227ZM532.729 325.922C532.562 325.543 532.12 325.37 531.74 325.537C531.361 325.703 531.189 326.145 531.355 326.525L532.729 325.922ZM528.029 319.254C528.207 319.628 528.655 319.787 529.029 319.609C529.403 319.431 529.562 318.984 529.384 318.61L528.029 319.254ZM527.636 315.001C527.453 314.63 527.003 314.477 526.631 314.66C526.26 314.843 526.107 315.293 526.29 315.664L527.636 315.001ZM522.652 308.521C522.845 308.888 523.298 309.029 523.665 308.836C524.032 308.644 524.173 308.19 523.98 307.823L522.652 308.521ZM522.094 304.282C521.898 303.917 521.443 303.781 521.078 303.978C520.714 304.175 520.578 304.63 520.774 304.995L522.094 304.282ZM516.892 297.986C517.096 298.347 517.554 298.473 517.914 298.268C518.275 298.064 518.401 297.606 518.196 297.246L516.892 297.986ZM516.189 293.749C515.981 293.391 515.522 293.269 515.164 293.477C514.805 293.685 514.684 294.144 514.892 294.502L516.189 293.749ZM510.81 287.615C511.024 287.97 511.485 288.083 511.84 287.869C512.194 287.655 512.308 287.194 512.094 286.839L510.81 287.615ZM509.991 283.393C509.774 283.04 509.312 282.93 508.959 283.147C508.607 283.364 508.497 283.826 508.714 284.179L509.991 283.393ZM504.465 277.391C504.687 277.741 505.151 277.844 505.5 277.622C505.849 277.399 505.953 276.936 505.73 276.586L504.465 277.391ZM503.563 273.205C503.338 272.857 502.874 272.757 502.526 272.982C502.178 273.206 502.078 273.671 502.303 274.019L503.563 273.205ZM497.904 267.299C498.133 267.644 498.599 267.739 498.944 267.51C499.289 267.281 499.383 266.815 499.154 266.47L497.904 267.299ZM496.933 263.142C496.702 262.798 496.236 262.706 495.892 262.937C495.548 263.168 495.457 263.634 495.688 263.978L496.933 263.142ZM491.178 257.336C491.412 257.678 491.879 257.765 492.221 257.53C492.562 257.296 492.649 256.829 492.415 256.488L491.178 257.336ZM490.138 253.187C489.902 252.846 489.435 252.762 489.094 252.998C488.754 253.234 488.669 253.701 488.905 254.041L490.138 253.187ZM484.305 247.466C484.544 247.804 485.012 247.885 485.35 247.646C485.688 247.407 485.769 246.939 485.53 246.601L484.305 247.466ZM483.209 243.325C482.969 242.987 482.5 242.908 482.163 243.148C481.825 243.388 481.746 243.857 481.986 244.194L483.209 243.325ZM477.313 237.673C477.555 238.009 478.024 238.084 478.36 237.842C478.696 237.6 478.772 237.131 478.529 236.795L477.313 237.673ZM476.173 233.54C475.93 233.205 475.461 233.13 475.125 233.374C474.79 233.617 474.716 234.086 474.959 234.421L476.173 233.54ZM470.228 227.943C470.473 228.277 470.942 228.349 471.276 228.103C471.61 227.858 471.682 227.389 471.437 227.055L470.228 227.943ZM469.054 223.818C468.808 223.485 468.339 223.414 468.005 223.66C467.672 223.906 467.601 224.375 467.847 224.708L469.054 223.818ZM463.071 218.263C463.318 218.595 463.788 218.664 464.12 218.417C464.453 218.169 464.522 217.7 464.275 217.367L463.071 218.263ZM461.874 214.145C461.626 213.813 461.156 213.745 460.824 213.992C460.492 214.24 460.424 214.71 460.671 215.042L461.874 214.145ZM455.863 208.618C456.112 208.95 456.582 209.017 456.914 208.768C457.245 208.52 457.312 208.049 457.063 207.718L455.863 208.618ZM454.652 204.507C454.403 204.176 453.932 204.11 453.601 204.359C453.27 204.608 453.204 205.078 453.453 205.409L454.652 204.507ZM448.624 198.997C448.874 199.328 449.344 199.394 449.675 199.145C450.006 198.895 450.072 198.425 449.822 198.094L448.624 198.997ZM447.365 194.844C447.114 194.515 446.644 194.451 446.314 194.702C445.985 194.953 445.921 195.423 446.172 195.753L447.365 194.844ZM441.159 189.283C441.416 189.608 441.887 189.664 442.212 189.407C442.538 189.151 442.594 188.679 442.337 188.354L441.159 189.283ZM439.773 185.127C439.515 184.804 439.043 184.751 438.719 185.01C438.396 185.269 438.344 185.741 438.603 186.064L439.773 185.127ZM433.434 179.707C433.698 180.026 434.17 180.072 434.49 179.808C434.81 179.545 434.855 179.072 434.591 178.752L433.434 179.707ZM431.975 175.601C431.709 175.283 431.236 175.241 430.918 175.507C430.6 175.772 430.558 176.245 430.824 176.563L431.975 175.601ZM425.527 170.303C425.796 170.618 426.269 170.654 426.584 170.385C426.899 170.116 426.935 169.642 426.666 169.327L425.527 170.303ZM423.986 166.214C423.715 165.9 423.241 165.866 422.928 166.137C422.615 166.408 422.581 166.882 422.852 167.195L423.986 166.214ZM417.461 161.022C417.735 161.333 418.209 161.363 418.52 161.089C418.831 160.815 418.861 160.341 418.587 160.03L417.461 161.022ZM415.865 156.95C415.59 156.64 415.116 156.612 414.806 156.887C414.496 157.162 414.468 157.636 414.743 157.945L415.865 156.95ZM409.283 151.824C409.56 152.133 410.034 152.159 410.342 151.882C410.651 151.606 410.677 151.132 410.4 150.823L409.283 151.824ZM407.666 147.778C407.39 147.47 406.915 147.444 406.607 147.721C406.299 147.998 406.274 148.472 406.551 148.78L407.666 147.778ZM401.062 142.683C401.339 142.991 401.813 143.016 402.121 142.738C402.429 142.461 402.454 141.987 402.176 141.679L401.062 142.683ZM399.425 138.622C399.148 138.314 398.674 138.288 398.366 138.565C398.058 138.842 398.033 139.317 398.31 139.625L399.425 138.622ZM392.835 133.511C393.11 133.82 393.584 133.847 393.894 133.572C394.203 133.296 394.23 132.822 393.955 132.513L392.835 133.511ZM391.237 129.45C390.962 129.139 390.488 129.11 390.178 129.384C389.867 129.659 389.838 130.132 390.113 130.443L391.237 129.45ZM384.703 124.256C384.974 124.569 385.448 124.604 385.761 124.333C386.075 124.063 386.109 123.589 385.839 123.276L384.703 124.256ZM383.182 120.174C382.914 119.858 382.44 119.82 382.125 120.088C381.809 120.356 381.77 120.83 382.039 121.145L383.182 120.174ZM376.784 114.836C377.046 115.157 377.518 115.205 377.84 114.944C378.161 114.682 378.209 114.21 377.948 113.889L376.784 114.836ZM375.37 110.679C375.113 110.355 374.641 110.3 374.316 110.557C373.991 110.814 373.937 111.286 374.194 111.61L375.37 110.679ZM369.198 105.086C369.444 105.419 369.913 105.49 370.246 105.244C370.58 104.999 370.651 104.529 370.405 104.196L369.198 105.086ZM368.006 100.871C367.767 100.532 367.299 100.451 366.961 100.69C366.622 100.929 366.541 101.397 366.78 101.735L368.006 100.871ZM362.208 94.8876C362.428 95.2384 362.891 95.3442 363.242 95.1239C363.593 94.9036 363.698 94.4407 363.478 94.0899L362.208 94.8876ZM361.361 90.5952C361.153 90.2374 360.693 90.1164 360.336 90.325C359.978 90.5336 359.857 90.9928 360.065 91.3507L361.361 90.5952ZM356.19 84.0708C356.369 84.4443 356.817 84.602 357.191 84.423C357.564 84.244 357.722 83.7961 357.543 83.4225L356.19 84.0708ZM355.871 79.7053C355.711 79.3234 355.271 79.1438 354.889 79.3041C354.507 79.4645 354.328 79.9041 354.488 80.286L355.871 79.7053ZM351.722 72.4865C351.837 72.8846 352.252 73.1147 352.65 73.0004C353.048 72.886 353.278 72.4706 353.164 72.0725L351.722 72.4865ZM352.179 68.1456C352.092 67.7406 351.694 67.4825 351.289 67.5692C350.884 67.6558 350.625 68.0545 350.712 68.4595L352.179 68.1456ZM349.591 60.2253C349.615 60.6388 349.969 60.955 350.383 60.9315C350.796 60.9081 351.112 60.5538 351.089 60.1402L349.591 60.2253ZM351.025 56.106C351.036 55.6919 350.709 55.3476 350.295 55.3371C349.88 55.3265 349.536 55.6536 349.526 56.0677L351.025 56.106ZM350.425 47.7968C350.346 48.2036 350.613 48.5968 351.019 48.675C351.426 48.7532 351.819 48.4869 351.898 48.0802L350.425 47.7968ZM352.813 44.1581C352.922 43.7586 352.688 43.346 352.288 43.2364C351.889 43.1268 351.476 43.3617 351.366 43.7612L352.813 44.1581ZM354.143 35.9138C353.979 36.2939 354.154 36.7355 354.534 36.9001C354.914 37.0647 355.355 36.89 355.52 36.5099L354.143 35.9138ZM357.235 32.8641C357.422 32.4947 357.274 32.0433 356.905 31.8559C356.536 31.6685 356.084 31.816 355.897 32.1854L357.235 32.8641ZM360.059 24.9851C359.834 25.3327 359.933 25.7971 360.28 26.0223C360.628 26.2475 361.092 26.1483 361.318 25.8007L360.059 24.9851ZM363.574 22.483C363.814 22.1456 363.735 21.6773 363.398 21.4371C363.06 21.1968 362.592 21.2757 362.352 21.6131L363.574 22.483ZM367.404 15.0726C367.139 15.391 367.182 15.8639 367.501 16.1289C367.819 16.3938 368.292 16.3505 368.557 16.0321L367.404 15.0726ZM371.252 12.9712C371.541 12.6749 371.536 12.2001 371.239 11.9106C370.943 11.6212 370.468 11.6267 370.179 11.923L371.252 12.9712ZM376.566 6.83817C376.213 7.05455 376.102 7.51629 376.318 7.86949C376.535 8.22269 376.997 8.3336 377.35 8.11722L376.566 6.83817ZM380.794 6.27145C381.17 6.09655 381.332 5.65039 381.157 5.27491C380.983 4.89943 380.536 4.73683 380.161 4.91173L380.794 6.27145ZM387.825 2.23656C387.423 2.33661 387.178 2.74356 387.278 3.14551C387.378 3.54746 387.785 3.7922 388.187 3.69215L387.825 2.23656ZM392.139 2.87791C392.547 2.81008 392.824 2.42383 392.756 2.01521C392.688 1.60659 392.302 1.33033 391.893 1.39817L392.139 2.87791ZM399.89 0.596218C399.476 0.613412 399.155 0.962847 399.172 1.3767C399.189 1.79056 399.539 2.11212 399.952 2.09493L399.89 0.596218ZM403.971 2.03085C404.385 2.03432 404.724 1.70136 404.727 1.28716C404.73 0.872962 404.397 0.534375 403.983 0.530907L403.971 2.03085ZM412.033 0.933112C411.62 0.896793 411.256 1.20184 411.22 1.61446C411.183 2.02708 411.488 2.39102 411.901 2.42733L412.033 0.933112ZM415.87 2.84295C416.281 2.89261 416.655 2.5995 416.704 2.18827C416.754 1.77705 416.461 1.40342 416.049 1.35377L415.87 2.84295ZM424.015 2.54154C423.607 2.46997 423.219 2.74268 423.147 3.15066C423.076 3.55865 423.348 3.9474 423.756 4.01897L424.015 2.54154ZM427.709 4.7591C428.115 4.8398 428.51 4.57588 428.591 4.1696C428.672 3.76333 428.408 3.36855 428.001 3.28785L427.709 4.7591ZM435.816 4.99856C435.413 4.9027 435.009 5.15166 434.913 5.55462C434.817 5.95759 435.066 6.36197 435.469 6.45784L435.816 4.99856ZM439.45 7.44008C439.851 7.54254 440.26 7.30025 440.362 6.89891C440.465 6.49757 440.222 6.08916 439.821 5.9867L439.45 7.44008ZM447.473 8.05465C447.075 7.94136 446.66 8.1725 446.546 8.57092C446.433 8.96933 446.664 9.38416 447.063 9.49745L447.473 8.05465ZM450.959 10.631C451.356 10.7491 451.773 10.523 451.891 10.126C452.009 9.72892 451.783 9.31135 451.386 9.19328L450.959 10.631ZM459.028 11.554C458.634 11.4278 458.211 11.6454 458.085 12.0399C457.959 12.4344 458.177 12.8565 458.571 12.9827L459.028 11.554ZM462.38 14.2198C462.773 14.3495 463.197 14.1357 463.327 13.7423C463.457 13.3489 463.243 12.9249 462.849 12.7952L462.38 14.2198ZM470.512 15.3903C470.12 15.2545 469.693 15.4616 469.557 15.8529C469.421 16.2442 469.628 16.6715 470.02 16.8074L470.512 15.3903ZM473.756 18.119C474.146 18.2575 474.575 18.0533 474.713 17.6629C474.852 17.2725 474.648 16.8438 474.257 16.7053L473.756 18.119ZM481.856 19.454C481.467 19.3108 481.036 19.5099 480.893 19.8986C480.75 20.2872 480.949 20.7184 481.338 20.8615L481.856 19.454ZM485.101 22.2588C485.489 22.404 485.921 22.2072 486.066 21.8192C486.211 21.4313 486.015 20.9991 485.627 20.8539L485.101 22.2588ZM493.09 23.6861C492.703 23.5375 492.27 23.7304 492.121 24.117C491.972 24.5037 492.165 24.9376 492.552 25.0862L493.09 23.6861ZM496.319 26.5433C496.705 26.6934 497.14 26.5022 497.29 26.1161C497.44 25.7301 497.249 25.2954 496.863 25.1453L496.319 26.5433ZM504.326 28.0778C503.941 27.9251 503.505 28.1134 503.353 28.4984C503.2 28.8834 503.388 29.3194 503.773 29.4721L504.326 28.0778ZM507.486 30.9511C507.871 31.1049 508.307 30.9178 508.461 30.5332C508.615 30.1486 508.428 29.7121 508.043 29.5583L507.486 30.9511ZM515.54 32.578C515.156 32.4223 514.719 32.6073 514.563 32.9912C514.407 33.3751 514.592 33.8124 514.976 33.9681L515.54 32.578ZM518.669 35.4696C519.053 35.626 519.49 35.4418 519.647 35.0582C519.803 34.6747 519.619 34.237 519.235 34.0806L518.669 35.4696ZM526.646 37.1161C526.263 36.9585 525.825 37.1414 525.668 37.5245C525.51 37.9075 525.693 38.3458 526.076 38.5034L526.646 37.1161ZM529.803 40.0389C530.186 40.1968 530.625 40.0145 530.783 39.6316C530.941 39.2487 530.758 38.8102 530.375 38.6523L529.803 40.0389ZM537.784 41.7168C537.402 41.5582 536.963 41.7399 536.804 42.1225C536.646 42.5052 536.828 42.9439 537.21 43.1025L537.784 41.7168ZM540.91 44.6369C541.292 44.7956 541.731 44.6142 541.89 44.2316C542.049 43.849 541.867 43.4102 541.485 43.2514L540.91 44.6369ZM548.917 46.337C548.535 46.1782 548.096 46.3596 547.937 46.7421C547.778 47.1247 547.96 47.5635 548.342 47.7224L548.917 46.337ZM552.043 49.2586C552.426 49.4173 552.865 49.2359 553.023 48.8533C553.182 48.4707 553.001 48.0319 552.618 47.8731L552.043 49.2586ZM560.022 50.9408C559.639 50.7825 559.201 50.9644 559.042 51.3472C558.884 51.73 559.066 52.1686 559.449 52.3269L560.022 50.9408ZM563.162 53.8607C563.545 54.0187 563.983 53.8364 564.141 53.4535C564.299 53.0705 564.117 52.6321 563.734 52.4741L563.162 53.8607ZM571.158 55.5272C570.775 55.3702 570.337 55.5536 570.18 55.9368C570.022 56.3201 570.206 56.7582 570.589 56.9152L571.158 55.5272ZM574.303 58.4338C574.687 58.5903 575.124 58.4062 575.281 58.0227C575.437 57.6392 575.253 57.2014 574.87 57.045L574.303 58.4338ZM582.3 60.0612C581.916 59.9062 581.479 60.0919 581.324 60.4759C581.169 60.86 581.354 61.2971 581.739 61.4522L582.3 60.0612ZM585.464 62.9516C585.849 63.1058 586.285 62.9192 586.439 62.5347C586.594 62.1503 586.407 61.7136 586.023 61.5594L585.464 62.9516ZM593.481 64.5306C593.096 64.3783 592.66 64.5671 592.508 64.9523C592.356 65.3375 592.545 65.7733 592.93 65.9256L593.481 64.5306ZM596.661 67.3946C597.046 67.5458 597.482 67.3557 597.633 66.9701C597.784 66.5845 597.594 66.1493 597.208 65.9981L596.661 67.3946ZM604.684 68.9019C604.297 68.7532 603.863 68.9461 603.715 69.3327C603.566 69.7193 603.759 70.1532 604.145 70.3019L604.684 68.9019ZM607.905 71.7405C608.293 71.8878 608.726 71.6934 608.873 71.3062C609.02 70.9191 608.826 70.4859 608.439 70.3385L607.905 71.7405ZM615.931 73.156C615.543 73.0118 615.111 73.2097 614.967 73.598C614.823 73.9863 615.021 74.418 615.409 74.5622L615.931 73.156ZM619.163 75.947C619.552 76.0895 619.983 75.8898 620.125 75.5008C620.268 75.1119 620.068 74.6811 619.679 74.5386L619.163 75.947ZM627.254 77.2729C626.864 77.1342 626.435 77.3382 626.297 77.7285C626.158 78.1188 626.362 78.5476 626.752 78.6863L627.254 77.2729ZM630.532 80.0181C630.923 80.1547 631.351 79.9484 631.487 79.5573C631.624 79.1663 631.418 78.7386 631.027 78.602L630.532 80.0181ZM638.597 81.1975C638.204 81.0656 637.779 81.2768 637.647 81.6694C637.515 82.0621 637.726 82.4874 638.119 82.6193L638.597 81.1975ZM641.954 83.8951C642.348 84.0246 642.772 83.8105 642.901 83.4171C643.031 83.0236 642.817 82.5997 642.423 82.4703L641.954 83.8951ZM650.029 84.9147C649.633 84.7908 649.213 85.0107 649.089 85.406C648.965 85.8012 649.185 86.2221 649.58 86.346L650.029 84.9147ZM653.399 87.5274C653.795 87.6483 654.214 87.4251 654.335 87.0289C654.456 86.6328 654.233 86.2136 653.836 86.0927L653.399 87.5274ZM661.571 88.3827C661.173 88.2685 660.758 88.4988 660.643 88.8969C660.529 89.2951 660.76 89.7104 661.158 89.8246L661.571 88.3827ZM665.006 90.9088C665.405 91.0193 665.818 90.7853 665.929 90.3861C666.039 89.9868 665.805 89.5737 665.406 89.4632L665.006 90.9088ZM673.149 91.5237C672.748 91.4213 672.34 91.6637 672.237 92.065C672.135 92.4664 672.377 92.8748 672.779 92.9771L673.149 91.5237ZM676.702 93.9547C677.104 94.0526 677.51 93.8056 677.608 93.4031C677.706 93.0006 677.459 92.595 677.056 92.4971L676.702 93.9547ZM684.782 94.2793C684.378 94.1912 683.978 94.4479 683.89 94.8526C683.802 95.2574 684.059 95.6569 684.463 95.745L684.782 94.2793ZM688.45 96.5847C688.856 96.6673 689.252 96.4051 689.335 95.9992C689.417 95.5933 689.155 95.1974 688.749 95.1148L688.45 96.5847ZM696.621 96.5971C696.213 96.5267 695.825 96.8005 695.754 97.2087C695.684 97.6168 695.958 98.0048 696.366 98.0753L696.621 96.5971ZM700.268 98.7167C700.678 98.7805 701.061 98.5005 701.125 98.0912C701.189 97.6819 700.909 97.2984 700.5 97.2346L700.268 98.7167ZM708.511 98.3363C708.1 98.2876 707.727 98.5816 707.678 98.993C707.63 99.4043 707.924 99.7772 708.335 99.8259L708.511 98.3363ZM712.307 100.255C712.719 100.296 713.086 99.9943 713.126 99.5821C713.167 99.1698 712.865 98.8029 712.453 98.7626L712.307 100.255ZM720.44 99.3652C720.026 99.3437 719.673 99.6616 719.652 100.075C719.63 100.489 719.948 100.842 720.362 100.863L720.44 99.3652ZM724.394 101.022C724.809 101.033 725.153 100.706 725.164 100.292C725.175 99.8782 724.848 99.5336 724.434 99.5227L724.394 101.022ZM732.379 99.5136C731.965 99.5261 731.64 99.8719 731.652 100.286C731.665 100.7 732.01 101.025 732.424 101.013L732.379 99.5136ZM736.491 100.825C736.905 100.799 737.219 100.443 737.193 100.03C737.167 99.6164 736.811 99.3022 736.398 99.328L736.491 100.825ZM744.265 98.5613C743.854 98.6165 743.566 98.994 743.621 99.4046C743.676 99.8151 744.054 100.103 744.464 100.048L744.265 98.5613ZM748.508 99.4215C748.916 99.3496 749.188 98.9607 749.117 98.5528C749.045 98.1448 748.656 97.8724 748.248 97.9442L748.508 99.4215ZM755.953 96.2403C755.553 96.348 755.316 96.7596 755.424 97.1595C755.531 97.5595 755.943 97.7964 756.343 97.6887L755.953 96.2403ZM760.266 96.5273C760.66 96.3997 760.876 95.9769 760.748 95.5828C760.621 95.1887 760.198 94.9727 759.804 95.1002L760.266 96.5273ZM767.18 92.2743C766.802 92.4434 766.632 92.8871 766.802 93.2652C766.971 93.6433 767.414 93.8127 767.792 93.6436L767.18 92.2743ZM771.457 91.8758C771.824 91.685 771.968 91.2322 771.777 90.8646C771.586 90.497 771.133 90.3536 770.765 90.5445L771.457 91.8758ZM777.562 86.4777C777.221 86.7117 777.134 87.1785 777.368 87.5203C777.602 87.862 778.068 87.9493 778.41 87.7152L777.562 86.4777ZM781.663 85.3358C781.99 85.081 782.048 84.6097 781.793 84.2831C781.538 83.9566 781.067 83.8984 780.74 84.1532L781.663 85.3358ZM786.698 78.8713C786.406 79.1648 786.407 79.6397 786.7 79.9319C786.994 80.2242 787.469 80.2231 787.761 79.9296L786.698 78.8713ZM790.485 77.0255C790.759 76.7151 790.73 76.2411 790.419 75.9668C790.109 75.6925 789.635 75.7217 789.361 76.0321L790.485 77.0255ZM794.308 69.7255C794.071 70.0654 794.155 70.5328 794.495 70.7695C794.835 71.0062 795.302 70.9226 795.539 70.5826L794.308 69.7255ZM797.708 67.2874C797.927 66.9357 797.819 66.4732 797.467 66.2544C797.116 66.0356 796.653 66.1433 796.434 66.495L797.708 67.2874ZM800.312 59.507C800.129 59.8784 800.281 60.3282 800.652 60.5116C801.024 60.6951 801.473 60.5427 801.657 60.1713L800.312 59.507ZM4.7011 261.149C4.95123 260.739 5.30362 260.209 5.75836 259.569L4.5358 258.7C4.06838 259.357 3.69474 259.918 3.42048 260.368L4.7011 261.149ZM10.6942 253.343C11.4976 252.404 12.3721 251.408 13.3158 250.364L12.2028 249.358C11.2501 250.412 10.3666 251.419 9.55426 252.369L10.6942 253.343ZM18.8087 244.572C19.7164 243.658 20.6632 242.724 21.6483 241.775L20.6073 240.695C19.6142 241.652 18.6596 242.593 17.7444 243.515L18.8087 244.572ZM27.4941 236.376C28.4686 235.514 29.4707 234.645 30.4997 233.772L29.5296 232.628C28.4923 233.508 27.4823 234.383 26.5 235.253L27.4941 236.376ZM36.6778 228.757C37.7138 227.952 38.7715 227.148 39.8506 226.348L38.9567 225.143C37.8686 225.95 36.8022 226.761 35.7577 227.572L36.6778 228.757ZM46.3589 221.741C47.4472 221.007 48.5536 220.28 49.6776 219.56L48.8685 218.297C47.7345 219.023 46.6183 219.757 45.5205 220.497L46.3589 221.741ZM56.481 215.43C57.6262 214.773 58.7871 214.125 59.9633 213.489L59.25 212.17C58.0624 212.812 56.8904 213.465 55.7343 214.129L56.481 215.43ZM67.0497 209.895C68.2426 209.33 69.4493 208.778 70.6693 208.24L70.0645 206.868C68.8316 207.411 67.6124 207.969 66.4071 208.54L67.0497 209.895ZM78.0321 205.245C79.2682 204.783 80.5165 204.338 81.7765 203.91L81.2944 202.49C80.0198 202.922 78.7574 203.373 77.5075 203.839L78.0321 205.245ZM89.3783 201.59C90.6507 201.245 91.9337 200.919 93.2273 200.612L92.8818 199.153C91.5722 199.463 90.2735 199.793 88.9858 200.142L89.3783 201.59ZM101.016 199.039C102.315 198.822 103.623 198.626 104.94 198.452L104.744 196.965C103.409 197.141 102.084 197.34 100.769 197.56L101.016 199.039ZM112.846 197.685C114.159 197.604 115.48 197.545 116.809 197.51L116.77 196.011C115.423 196.046 114.084 196.106 112.754 196.188L112.846 197.685ZM124.749 197.585C125.413 197.615 126.078 197.65 126.745 197.693L126.84 196.195C126.163 196.153 125.489 196.117 124.817 196.086L124.749 197.585ZM126.745 197.693C127.401 197.734 128.057 197.78 128.712 197.83L128.827 196.335C128.165 196.284 127.503 196.237 126.84 196.195L126.745 197.693ZM136.539 198.655C137.839 198.828 139.135 199.019 140.43 199.227L140.668 197.746C139.36 197.535 138.05 197.343 136.737 197.168L136.539 198.655ZM148.153 200.679C149.434 200.954 150.713 201.247 151.989 201.555L152.342 200.097C151.053 199.786 149.762 199.491 148.468 199.212L148.153 200.679ZM159.598 203.593C160.851 203.962 162.101 204.345 163.349 204.744L163.805 203.315C162.546 202.913 161.285 202.526 160.021 202.154L159.598 203.593ZM170.808 207.313C172.037 207.767 173.264 208.236 174.489 208.718L175.038 207.322C173.804 206.836 172.567 206.364 171.327 205.906L170.808 207.313ZM181.739 211.745C182.943 212.275 184.144 212.819 185.343 213.376L185.975 212.015C184.767 211.455 183.557 210.907 182.344 210.372L181.739 211.745ZM192.417 216.819C193.584 217.412 194.748 218.018 195.91 218.634L196.613 217.31C195.444 216.689 194.272 216.08 193.098 215.482L192.417 216.819ZM202.847 222.464C203.976 223.112 205.102 223.769 206.227 224.437L206.993 223.147C205.862 222.475 204.728 221.814 203.593 221.163L202.847 222.464ZM212.949 228.561C214.065 229.268 215.179 229.984 216.291 230.71L217.111 229.454C215.993 228.724 214.873 228.004 213.751 227.294L212.949 228.561ZM222.812 235.088C223.893 235.834 224.972 236.588 226.049 237.35L226.915 236.125C225.834 235.36 224.75 234.602 223.664 233.854L222.812 235.088ZM232.458 241.999C233.507 242.777 234.553 243.563 235.597 244.356L236.504 243.162C235.456 242.365 234.405 241.576 233.353 240.795L232.458 241.999ZM241.84 249.198C242.877 250.019 243.912 250.846 244.944 251.68L245.887 250.513C244.85 249.676 243.812 248.846 242.771 248.022L241.84 249.198ZM251.018 256.675C252.026 257.518 253.032 258.368 254.037 259.224L255.009 258.081C254.002 257.224 252.992 256.371 251.981 255.524L251.018 256.675ZM260.024 264.406C261.008 265.271 261.99 266.14 262.97 267.015L263.969 265.896C262.986 265.019 262.001 264.147 261.015 263.279L260.024 264.406ZM268.828 272.317C269.801 273.21 270.772 274.107 271.741 275.008L272.762 273.909C271.791 273.006 270.817 272.107 269.842 271.212L268.828 272.317ZM277.483 280.414C278.436 281.321 279.386 282.232 280.335 283.147L281.376 282.067C280.425 281.15 279.472 280.237 278.518 279.328L277.483 280.414ZM286.006 288.671C286.943 289.593 287.877 290.518 288.811 291.445L289.868 290.382C288.933 289.452 287.997 288.526 287.058 287.602L286.006 288.671ZM294.388 297.042C295.314 297.98 296.239 298.92 297.161 299.862L298.233 298.813C297.309 297.869 296.383 296.928 295.456 295.988L294.388 297.042ZM302.671 305.533C303.586 306.482 304.499 307.432 305.41 308.384L306.493 307.346C305.581 306.394 304.667 305.442 303.751 304.492L302.671 305.533ZM310.855 314.11C311.762 315.069 312.667 316.029 313.57 316.991L314.663 315.964C313.759 315.001 312.853 314.04 311.946 313.079L310.855 314.11ZM318.971 322.771C319.868 323.735 320.763 324.7 321.656 325.665L322.757 324.647C321.863 323.681 320.967 322.715 320.07 321.749L318.971 322.771ZM327.02 331.485C327.914 332.458 328.805 333.431 329.696 334.404L330.802 333.391C329.911 332.418 329.019 331.444 328.125 330.47L327.02 331.485ZM335.016 340.234C335.905 341.21 336.792 342.186 337.677 343.161L338.788 342.152C337.902 341.177 337.014 340.201 336.125 339.224L335.016 340.234ZM343.005 349.035C343.889 350.012 344.772 350.986 345.653 351.96L346.765 350.953C345.884 349.98 345.001 349.005 344.117 348.028L343.005 349.035ZM350.962 357.826C351.852 358.809 352.74 359.79 353.627 360.769L354.739 359.762C353.852 358.784 352.964 357.803 352.074 356.819L350.962 357.826ZM358.924 366.61C359.812 367.588 360.699 368.563 361.584 369.535L362.693 368.525C361.809 367.554 360.922 366.579 360.034 365.601L358.924 366.61ZM366.944 375.405C367.834 376.376 368.721 377.343 369.607 378.306L370.711 377.291C369.826 376.328 368.939 375.362 368.05 374.392L366.944 375.405ZM374.985 384.125C375.89 385.1 376.793 386.069 377.694 387.034L378.79 386.009C377.89 385.046 376.988 384.078 376.084 383.104L374.985 384.125ZM383.077 392.755C383.997 393.726 384.916 394.691 385.832 395.65L386.916 394.614C386.002 393.657 385.085 392.693 384.166 391.723L383.077 392.755ZM391.341 401.361C392.255 402.299 393.167 403.23 394.076 404.153L395.145 403.101C394.237 402.179 393.327 401.251 392.415 400.314L391.341 401.361ZM399.717 409.809C400.658 410.74 401.597 411.662 402.533 412.575L403.58 411.501C402.646 410.591 401.71 409.671 400.772 408.743L399.717 409.809ZM408.242 418.052C409.217 418.972 410.19 419.881 411.161 420.779L412.179 419.677C411.212 418.783 410.243 417.878 409.271 416.961L408.242 418.052ZM416.969 426.038C417.987 426.94 419.002 427.827 420.014 428.701L420.994 427.565C419.987 426.696 418.976 425.812 417.963 424.915L416.969 426.038ZM426.055 433.767C427.096 434.614 428.133 435.445 429.168 436.258L430.095 435.079C429.067 434.271 428.036 433.446 427.002 432.604L426.055 433.767ZM435.508 441.053C436.582 441.832 437.652 442.591 438.719 443.329L439.572 442.095C438.515 441.364 437.454 440.611 436.389 439.839L435.508 441.053ZM445.409 447.706C446.537 448.401 447.663 449.071 448.784 449.714L449.531 448.413C448.423 447.778 447.311 447.116 446.195 446.429L445.409 447.706ZM455.863 453.448C457.072 454.027 458.277 454.574 459.478 455.086L460.066 453.706C458.887 453.203 457.702 452.666 456.512 452.095L455.863 453.448ZM466.954 457.841C468.257 458.242 469.554 458.6 470.847 458.912L471.199 457.454C469.937 457.149 468.67 456.8 467.396 456.407L466.954 457.841ZM478.709 460.243C480.057 460.37 481.4 460.443 482.737 460.459L482.755 458.959C481.46 458.943 480.158 458.873 478.85 458.749L478.709 460.243ZM490.711 459.867C492.032 459.651 493.347 459.374 494.656 459.035L494.279 457.583C493.015 457.91 491.745 458.178 490.468 458.387L490.711 459.867ZM502.18 456.361C503.395 455.808 504.604 455.196 505.807 454.526L505.077 453.215C503.909 453.867 502.736 454.46 501.558 454.996L502.18 456.361ZM512.461 450.154C513.011 449.737 513.559 449.306 514.105 448.862L513.159 447.698C512.625 448.132 512.09 448.552 511.554 448.959L512.461 450.154ZM514.105 448.862C514.643 448.425 515.173 447.987 515.696 447.546L514.73 446.399C514.213 446.834 513.69 447.267 513.159 447.698L514.105 448.862ZM521.672 442.131C522.653 441.171 523.603 440.203 524.523 439.228L523.431 438.199C522.526 439.159 521.59 440.112 520.623 441.058L521.672 442.131ZM529.807 433.11C530.646 432.046 531.451 430.974 532.223 429.894L531.002 429.022C530.244 430.083 529.454 431.136 528.629 432.181L529.807 433.11ZM536.601 423.078C537.278 421.895 537.92 420.703 538.526 419.502L537.187 418.826C536.593 420.003 535.964 421.172 535.299 422.332L536.601 423.078ZM541.785 412.091C542.263 410.824 542.705 409.548 543.111 408.264L541.681 407.811C541.283 409.07 540.85 410.32 540.381 411.562L541.785 412.091ZM545.144 400.426C545.414 399.103 545.65 397.772 545.853 396.433L544.37 396.209C544.171 397.522 543.939 398.828 543.674 400.126L545.144 400.426ZM546.674 388.381C546.746 387.043 546.789 385.698 546.801 384.346L545.302 384.332C545.289 385.662 545.247 386.984 545.176 388.3L546.674 388.381ZM546.537 376.264C546.439 374.928 546.314 373.586 546.164 372.238L544.673 372.405C544.821 373.734 544.944 375.057 545.041 376.374L546.537 376.264ZM544.987 364.25C544.748 362.935 544.487 361.614 544.203 360.289L542.736 360.603C543.017 361.913 543.275 363.219 543.512 364.518L544.987 364.25ZM542.289 352.452C541.936 351.165 541.565 349.873 541.175 348.577L539.738 349.009C540.125 350.293 540.493 351.573 540.842 352.848L542.289 352.452ZM538.67 340.911C538.228 339.655 537.771 338.396 537.297 337.133L535.892 337.66C536.362 338.913 536.817 340.163 537.255 341.409L538.67 340.911ZM534.325 329.648C533.807 328.409 533.275 327.167 532.729 325.922L531.355 326.525C531.898 327.762 532.427 328.996 532.942 330.227L534.325 329.648ZM529.384 318.61C528.813 317.409 528.23 316.206 527.636 315.001L526.29 315.664C526.881 316.864 527.461 318.06 528.029 319.254L529.384 318.61ZM523.98 307.823C523.362 306.645 522.733 305.464 522.094 304.282L520.774 304.995C521.41 306.172 522.036 307.348 522.652 308.521L523.98 307.823ZM518.196 297.246C517.536 296.082 516.866 294.916 516.189 293.749L514.892 294.502C515.567 295.665 516.234 296.827 516.892 297.986L518.196 297.246ZM512.094 286.839C511.4 285.692 510.699 284.543 509.991 283.393L508.714 284.179C509.42 285.326 510.119 286.471 510.81 287.615L512.094 286.839ZM505.73 276.586C505.014 275.46 504.291 274.333 503.563 273.205L502.303 274.019C503.03 275.144 503.75 276.268 504.465 277.391L505.73 276.586ZM499.154 266.47C498.419 265.361 497.678 264.252 496.933 263.142L495.688 263.978C496.431 265.086 497.17 266.193 497.904 267.299L499.154 266.47ZM492.415 256.488C491.66 255.388 490.901 254.288 490.138 253.187L488.905 254.041C489.667 255.14 490.425 256.239 491.178 257.336L492.415 256.488ZM485.53 246.601C484.76 245.509 483.986 244.417 483.209 243.325L481.986 244.194C482.763 245.285 483.535 246.376 484.305 247.466L485.53 246.601ZM478.529 236.795C477.747 235.71 476.961 234.625 476.173 233.54L474.959 234.421C475.746 235.505 476.531 236.589 477.313 237.673L478.529 236.795ZM471.437 227.055C470.644 225.976 469.85 224.897 469.054 223.818L467.847 224.708C468.642 225.787 469.436 226.865 470.228 227.943L471.437 227.055ZM464.275 217.367C463.476 216.293 462.675 215.219 461.874 214.145L460.671 215.042C461.473 216.115 462.272 217.189 463.071 218.263L464.275 217.367ZM457.063 207.718C456.26 206.648 455.456 205.577 454.652 204.507L453.453 205.409C454.257 206.478 455.061 207.548 455.863 208.618L457.063 207.718ZM449.822 198.094C449.42 197.56 449.017 197.026 448.614 196.492L447.417 197.396C447.819 197.929 448.222 198.463 448.624 198.997L449.822 198.094ZM448.614 196.492C448.198 195.941 447.782 195.392 447.365 194.844L446.172 195.753C446.587 196.298 447.002 196.846 447.417 197.396L448.614 196.492ZM442.337 188.354C441.484 187.271 440.629 186.195 439.773 185.127L438.603 186.064C439.456 187.13 440.308 188.202 441.159 189.283L442.337 188.354ZM434.591 178.752C433.719 177.695 432.847 176.644 431.975 175.601L430.824 176.563C431.694 177.604 432.564 178.652 433.434 179.707L434.591 178.752ZM426.666 169.327C425.771 168.282 424.878 167.245 423.986 166.214L422.852 167.195C423.742 168.224 424.634 169.26 425.527 170.303L426.666 169.327ZM418.587 160.03C417.677 158.997 416.769 157.97 415.865 156.95L414.743 157.945C415.646 158.964 416.552 159.99 417.461 161.022L418.587 160.03ZM410.4 150.823C409.485 149.801 408.573 148.786 407.666 147.778L406.551 148.78C407.457 149.789 408.368 150.803 409.283 151.824L410.4 150.823ZM402.176 141.679C401.253 140.654 400.336 139.635 399.425 138.622L398.31 139.625C399.221 140.638 400.138 141.657 401.062 142.683L402.176 141.679ZM393.955 132.513C393.04 131.486 392.134 130.465 391.237 129.45L390.113 130.443C391.011 131.46 391.919 132.482 392.835 133.511L393.955 132.513ZM385.839 123.276C384.941 122.236 384.055 121.202 383.182 120.174L382.039 121.145C382.915 122.177 383.803 123.214 384.703 124.256L385.839 123.276ZM377.948 113.889C377.072 112.814 376.213 111.744 375.37 110.679L374.194 111.61C375.041 112.681 375.905 113.756 376.784 114.836L377.948 113.889ZM370.405 104.196C369.584 103.083 368.784 101.975 368.006 100.871L366.78 101.735C367.564 102.848 368.371 103.965 369.198 105.086L370.405 104.196ZM363.478 94.0899C362.744 92.9213 362.038 91.7566 361.361 90.5952L360.065 91.3507C360.751 92.5271 361.466 93.7059 362.208 94.8876L363.478 94.0899ZM357.543 83.4225C356.948 82.1813 356.39 80.9425 355.871 79.7053L354.488 80.286C355.017 81.5471 355.585 82.8084 356.19 84.0708L357.543 83.4225ZM353.164 72.0725C352.788 70.7638 352.459 69.4552 352.179 68.1456L350.712 68.4595C351 69.804 351.337 71.1461 351.722 72.4865L353.164 72.0725ZM351.089 60.1402C351.013 58.7993 350.991 57.4549 351.025 56.106L349.526 56.0677C349.49 57.4583 349.513 58.8438 349.591 60.2253L351.089 60.1402ZM351.898 48.0802C352.148 46.7795 352.452 45.4725 352.813 44.1581L351.366 43.7612C350.996 45.1126 350.682 46.4575 350.425 47.7968L351.898 48.0802ZM355.52 36.5099C356.043 35.3023 356.614 34.0872 357.235 32.8641L355.897 32.1854C355.263 33.4348 354.679 34.6774 354.143 35.9138L355.52 36.5099ZM361.318 25.8007C362.029 24.702 362.781 23.5962 363.574 22.483L362.352 21.6131C361.547 22.7435 360.783 23.8674 360.059 24.9851L361.318 25.8007ZM368.557 16.0321C368.999 15.501 369.45 14.9682 369.91 14.4335L368.774 13.4548C368.308 13.9957 367.851 14.535 367.404 15.0726L368.557 16.0321ZM369.91 14.4335C370.345 13.9291 370.792 13.4418 371.252 12.9712L370.179 11.923C369.697 12.4161 369.229 12.9266 368.774 13.4548L369.91 14.4335ZM377.35 8.11722C378.451 7.44266 379.599 6.82804 380.794 6.27145L380.161 4.91173C378.916 5.49147 377.717 6.13283 376.566 6.83817L377.35 8.11722ZM388.187 3.69215C389.466 3.37379 390.784 3.10289 392.139 2.87791L391.893 1.39817C390.501 1.62927 389.145 1.90807 387.825 2.23656L388.187 3.69215ZM399.952 2.09493C401.265 2.0404 402.604 2.01941 403.971 2.03085L403.983 0.530907C402.593 0.519268 401.229 0.540604 399.89 0.596218L399.952 2.09493ZM411.901 2.42733C413.204 2.54206 414.527 2.68086 415.87 2.84295L416.049 1.35377C414.692 1.18984 413.353 1.04932 412.033 0.933112L411.901 2.42733ZM423.756 4.01897C425.059 4.24746 426.376 4.49439 427.709 4.7591L428.001 3.28785C426.658 3.02105 425.329 2.77205 424.015 2.54154L423.756 4.01897ZM435.469 6.45784C436.784 6.77059 438.111 7.09819 439.45 7.44008L439.821 5.9867C438.474 5.64286 437.139 5.31329 435.816 4.99856L435.469 6.45784ZM447.063 9.49745C448.352 9.86397 449.65 10.242 450.959 10.631L451.386 9.19328C450.072 8.80257 448.768 8.42287 447.473 8.05465L447.063 9.49745ZM458.571 12.9827C459.833 13.3862 461.103 13.7987 462.38 14.2198L462.849 12.7952C461.568 12.3728 460.294 11.9589 459.028 11.554L458.571 12.9827ZM470.02 16.8074C471.259 17.2376 472.504 17.6749 473.756 18.119L474.257 16.7053C473.003 16.2602 471.754 15.8218 470.512 15.3903L470.02 16.8074ZM481.338 20.8615C482.587 21.3216 483.841 21.7874 485.101 22.2588L485.627 20.8539C484.365 20.3817 483.108 19.9149 481.856 19.454L481.338 20.8615ZM492.552 25.0862C493.803 25.5673 495.059 26.053 496.319 26.5433L496.863 25.1453C495.601 24.6544 494.343 24.1679 493.09 23.6861L492.552 25.0862ZM503.773 29.4721C505.007 29.9616 506.245 30.4546 507.486 30.9511L508.043 29.5583C506.801 29.0614 505.562 28.5678 504.326 28.0778L503.773 29.4721ZM514.976 33.9681C516.204 34.4659 517.435 34.9665 518.669 35.4696L519.235 34.0806C518.001 33.5772 516.769 33.0762 515.54 32.578L514.976 33.9681ZM526.076 38.5034C527.316 39.0133 528.558 39.5252 529.803 40.0389L530.375 38.6523C529.13 38.1384 527.887 37.6263 526.646 37.1161L526.076 38.5034ZM537.21 43.1025C538.441 43.6128 539.675 44.1243 540.91 44.6369L541.485 43.2514C540.249 42.7388 539.016 42.2272 537.784 41.7168L537.21 43.1025ZM548.342 47.7224C549.574 48.234 550.808 48.7461 552.043 49.2586L552.618 47.8731C551.383 47.3607 550.149 46.8486 548.917 46.337L548.342 47.7224ZM559.449 52.3269C560.685 52.8384 561.923 53.3497 563.162 53.8607L563.734 52.4741C562.496 51.9633 561.258 51.4521 560.022 50.9408L559.449 52.3269ZM570.589 56.9152C571.826 57.4222 573.065 57.9285 574.303 58.4338L574.87 57.045C573.632 56.54 572.395 56.034 571.158 55.5272L570.589 56.9152ZM581.739 61.4522C582.98 61.9535 584.222 62.4533 585.464 62.9516L586.023 61.5594C584.782 61.0616 583.541 60.5621 582.3 60.0612L581.739 61.4522ZM592.93 65.9256C594.174 66.4174 595.417 66.9071 596.661 67.3946L597.208 65.9981C595.966 65.5112 594.724 65.0219 593.481 64.5306L592.93 65.9256ZM604.145 70.3019C605.399 70.7843 606.653 71.2639 607.905 71.7405L608.439 70.3385C607.188 69.8626 605.936 69.3837 604.684 68.9019L604.145 70.3019ZM615.409 74.5622C616.662 75.0274 617.913 75.4891 619.163 75.947L619.679 74.5386C618.431 74.0814 617.182 73.6205 615.931 73.156L615.409 74.5622ZM626.752 78.6863C628.014 79.1346 629.274 79.5786 630.532 80.0181L631.027 78.602C629.771 78.1634 628.514 77.7203 627.254 77.2729L626.752 78.6863ZM638.119 82.6193C639.4 83.0499 640.678 83.4753 641.954 83.8951L642.423 82.4703C641.15 82.0515 639.875 81.6271 638.597 81.1975L638.119 82.6193ZM649.58 86.346C650.856 86.746 652.129 87.1399 653.399 87.5274L653.836 86.0927C652.57 85.7063 651.301 85.3136 650.029 84.9147L649.58 86.346ZM661.158 89.8246C662.444 90.1933 663.727 90.5548 665.006 90.9088L665.406 89.4632C664.131 89.1104 662.853 88.7502 661.571 88.3827L661.158 89.8246ZM672.779 92.9771C674.091 93.3118 675.399 93.6378 676.702 93.9547L677.056 92.4971C675.759 92.1816 674.456 91.857 673.149 91.5237L672.779 92.9771ZM684.463 95.745C685.798 96.0355 687.127 96.3155 688.45 96.5847L688.749 95.1148C687.433 94.847 686.11 94.5684 684.782 94.2793L684.463 95.745ZM696.366 98.0753C697.673 98.3009 698.974 98.5148 700.268 98.7167L700.5 97.2346C699.213 97.034 697.92 96.8214 696.621 96.5971L696.366 98.0753ZM708.335 99.8259C709.667 99.9834 710.991 100.127 712.307 100.255L712.453 98.7626C711.147 98.6349 709.833 98.4926 708.511 98.3363L708.335 99.8259ZM720.362 100.863C721.716 100.934 723.06 100.987 724.394 101.022L724.434 99.5227C723.113 99.4876 721.781 99.435 720.44 99.3652L720.362 100.863ZM732.424 101.013C733.792 100.972 735.148 100.909 736.491 100.825L736.398 99.328C735.071 99.4111 733.731 99.4727 732.379 99.5136L732.424 101.013ZM744.464 100.048C745.827 99.8648 747.175 99.6562 748.508 99.4215L748.248 97.9442C746.935 98.1753 745.607 98.3808 744.265 98.5613L744.464 100.048ZM756.343 97.6887C757.668 97.3318 758.976 96.9449 760.266 96.5273L759.804 95.1002C758.538 95.5099 757.254 95.8897 755.953 96.2403L756.343 97.6887ZM767.792 93.6436C769.034 93.0883 770.255 92.4993 771.457 91.8758L770.765 90.5445C769.591 91.1544 768.395 91.7307 767.18 92.2743L767.792 93.6436ZM778.41 87.7152C779.516 86.9578 780.6 86.1649 781.663 85.3358L780.74 84.1532C779.702 84.9631 778.643 85.7377 777.562 86.4777L778.41 87.7152ZM787.761 79.9296C788.69 78.9962 789.598 78.0283 790.485 77.0255L789.361 76.0321C788.494 77.0128 787.606 77.959 786.698 78.8713L787.761 79.9296ZM795.539 70.5826C796.282 69.5159 797.005 68.4176 797.708 67.2874L796.434 66.495C795.745 67.6036 795.036 68.6802 794.308 69.7255L795.539 70.5826ZM801.657 60.1713C801.966 59.5462 802.269 58.913 802.568 58.2716L801.208 57.6387C800.914 58.2697 800.616 58.8925 800.312 59.507L801.657 60.1713Z" fill="#D7D7D7" />
                    </svg>