<?xml version="1.0" standalone="no"?>
<!DOCTYPE svg PUBLIC "-//W3C//DTD SVG 20010904//EN"
 "http://www.w3.org/TR/2001/REC-SVG-20010904/DTD/svg10.dtd">
<svg version="1.0" xmlns="http://www.w3.org/2000/svg"
 width="1000.000000pt" height="1000.000000pt" viewBox="0 0 1000.000000 1000.000000"
 preserveAspectRatio="xMidYMid meet">
<metadata>
Created by potrace 1.14, written by Peter Selinger 2001-2017
</metadata>
<g transform="translate(0.000000,1000.000000) scale(0.100000,-0.100000)"
fill="#000000" stroke="none">
<path d="M1009 6758 c-1 -7 -1 -16 0 -20 0 -5 -3 -8 -9 -8 -5 0 -10 -4 -10 -9
0 -6 9 -8 19 -6 15 3 18 0 14 -12 -5 -13 -2 -15 12 -10 15 6 16 5 5 -8 -10
-13 -9 -15 9 -15 12 0 19 -4 16 -10 -3 -5 -1 -10 5 -10 6 0 8 -4 5 -10 -3 -5
2 -10 11 -10 10 0 15 -3 11 -6 -8 -8 18 -34 33 -34 6 0 8 -4 5 -10 -3 -5 -1
-10 5 -10 6 0 8 -4 5 -10 -3 -5 0 -10 7 -10 17 0 41 -38 32 -52 -4 -6 -3 -8 4
-4 15 9 66 -40 56 -56 -4 -7 -4 -10 1 -6 4 4 14 0 22 -10 8 -9 11 -11 7 -3 -5
9 -3 12 5 7 7 -4 9 -17 6 -29 -5 -17 -4 -19 4 -7 8 12 11 11 17 -5 10 -27 32
-48 42 -41 5 3 9 -1 9 -9 0 -8 -5 -11 -10 -8 -6 3 -7 1 -3 -5 4 -7 17 -12 29
-12 17 0 19 -3 8 -9 -11 -7 -9 -10 9 -16 18 -6 20 -9 9 -17 -10 -7 -8 -8 8 -5
20 5 22 3 11 -16 -11 -21 -10 -21 7 -7 11 9 16 10 11 3 -4 -8 -2 -13 4 -13 6
0 8 -4 5 -10 -3 -5 1 -10 10 -10 10 0 13 -5 9 -12 -5 -8 -2 -9 11 -4 15 5 16
4 5 -9 -7 -9 -9 -15 -4 -13 12 4 49 -31 57 -53 4 -13 -1 -15 -21 -13 -15 1
-33 -3 -41 -9 -12 -10 -14 -9 -8 7 7 18 6 18 -19 1 -15 -9 -24 -13 -20 -7 3 5
-1 13 -10 16 -8 3 -12 2 -9 -3 3 -5 1 -12 -5 -16 -5 -3 -10 -2 -10 3 0 6 -7
13 -16 16 -8 3 -12 2 -9 -4 8 -13 -8 -13 -21 0 -6 6 -19 4 -37 -5 -15 -8 -26
-11 -23 -7 3 5 -5 14 -17 22 -20 12 -21 12 -9 -3 9 -10 10 -17 2 -22 -5 -3
-10 -1 -10 6 0 7 -3 9 -7 6 -3 -4 -13 -1 -21 6 -10 7 -13 8 -9 1 4 -7 -2 -14
-13 -17 -11 -3 -18 -2 -15 3 3 4 -2 11 -11 14 -8 3 -12 2 -9 -3 3 -5 1 -12 -5
-16 -5 -3 -10 -2 -10 3 0 6 -7 13 -16 16 -8 3 -12 2 -9 -4 8 -13 -8 -13 -21 0
-6 6 -19 4 -37 -5 -15 -8 -26 -11 -23 -7 3 5 -5 14 -17 22 -20 12 -21 12 -9
-3 9 -10 10 -17 2 -22 -5 -3 -10 -1 -10 6 0 7 -3 9 -7 6 -3 -4 -13 -1 -21 6
-10 7 -13 8 -9 1 4 -7 -2 -14 -13 -17 -11 -3 -18 -2 -15 3 3 4 -2 11 -11 14
-8 3 -12 2 -9 -3 3 -5 1 -12 -5 -16 -5 -3 -10 -2 -10 3 0 6 -7 13 -16 16 -8 3
-12 2 -9 -4 8 -13 -8 -13 -21 0 -6 6 -19 5 -37 -5 -19 -9 -29 -10 -33 -3 -5 7
-2 8 6 3 9 -6 11 -4 5 5 -6 10 -11 9 -22 -5 -11 -17 -13 -17 -13 -2 0 14 -4
15 -25 5 -18 -8 -28 -8 -38 0 -10 8 -17 8 -24 1 -8 -8 -13 -8 -17 0 -4 7 -15
7 -30 1 -13 -5 -28 -6 -32 -2 -5 4 -2 -1 5 -10 7 -10 10 -18 5 -18 -5 0 4 -12
19 -26 16 -14 24 -30 20 -37 -4 -7 0 -7 10 1 14 12 17 10 23 -13 5 -19 11 -24
22 -20 9 3 13 3 9 -1 -4 -4 1 -13 11 -21 16 -12 15 -13 -3 -7 -18 6 -17 5 3
-10 12 -10 26 -15 31 -12 4 3 7 -5 6 -19 -2 -17 1 -22 11 -18 8 3 14 -1 14
-11 0 -9 6 -16 14 -16 8 0 18 -5 22 -12 4 -7 3 -8 -4 -4 -7 4 -12 4 -12 0 0
-9 41 -44 52 -44 5 0 7 -4 3 -9 -5 -10 33 -37 46 -33 4 1 4 -8 1 -20 -3 -14
-1 -19 6 -14 7 4 12 1 12 -8 0 -9 5 -16 11 -16 5 0 7 -5 3 -12 -4 -6 -3 -8 3
-5 14 9 37 -19 28 -33 -3 -6 3 -10 15 -10 12 0 18 -4 15 -10 -3 -5 1 -10 9
-10 14 0 20 -12 17 -32 0 -5 4 -8 10 -8 5 0 7 -6 3 -12 -5 -9 -2 -9 9 1 15 12
17 11 18 -5 1 -11 1 -22 0 -26 0 -4 7 -4 17 -1 9 3 14 3 10 -2 -4 -4 6 -20 22
-35 20 -19 26 -30 18 -33 -8 -4 -7 -6 4 -6 9 -1 19 -4 22 -9 6 -10 -56 -8 -73
3 -10 5 -12 4 -7 -3 4 -7 2 -12 -3 -12 -6 0 -11 6 -11 13 0 7 -3 8 -8 2 -10
-15 -64 -16 -55 -1 4 6 -1 5 -11 -3 -15 -13 -19 -13 -27 0 -5 8 -9 9 -9 3 0
-12 -49 -13 -67 -1 -6 4 -15 3 -18 -3 -5 -8 -12 -7 -23 2 -12 10 -14 10 -8 1
4 -7 2 -13 -3 -13 -6 0 -11 6 -11 13 0 8 -4 7 -10 -3 -8 -12 -13 -13 -30 -2
-11 7 -20 8 -20 4 0 -10 -56 -9 -66 1 -4 3 -12 3 -18 0 -16 -10 -126 -11 -120
-1 3 4 0 8 -5 8 -6 0 -11 -4 -11 -8 0 -4 -9 -8 -20 -9 -13 -1 -18 2 -14 9 5 7
2 8 -7 3 -18 -12 -110 -14 -103 -3 3 4 0 8 -5 8 -6 0 -11 -4 -11 -8 0 -4 -9
-8 -20 -9 -13 -1 -18 2 -13 10 5 9 3 9 -8 0 -12 -10 -18 -10 -29 0 -8 7 -10 7
-7 1 4 -7 -3 -11 -18 -11 -15 0 -22 4 -18 11 4 7 2 7 -7 -1 -7 -6 -19 -9 -28
-6 -10 4 -13 2 -8 -5 4 -7 2 -12 -6 -12 -7 0 -2 -7 10 -16 14 -9 21 -22 18
-31 -3 -8 -2 -12 2 -9 5 3 19 -5 33 -17 14 -12 18 -17 9 -12 -13 9 -13 8 -1
-7 7 -10 20 -18 28 -18 8 0 12 -4 9 -9 -3 -5 1 -12 10 -15 8 -3 12 -11 9 -16
-4 -6 -1 -9 6 -8 7 2 18 -7 24 -20 5 -12 16 -20 23 -17 7 3 10 0 7 -5 -3 -6 0
-10 7 -10 9 0 9 -3 -2 -10 -13 -8 -13 -10 2 -10 9 0 20 -10 23 -21 6 -17 9
-19 16 -8 6 10 9 8 9 -8 0 -14 6 -23 16 -23 8 0 13 -4 10 -9 -3 -5 1 -12 10
-15 9 -3 14 -13 11 -20 -4 -10 0 -14 13 -11 14 3 17 -1 13 -12 -5 -13 -2 -15
12 -10 15 6 16 5 5 -8 -11 -13 -10 -14 5 -9 13 5 16 4 11 -4 -4 -7 -2 -12 3
-12 6 0 11 -7 11 -15 0 -8 6 -15 14 -15 8 0 17 -9 21 -19 3 -11 15 -23 26 -26
10 -4 19 -11 19 -16 0 -6 -5 -7 -12 -3 -7 4 -8 3 -4 -4 4 -7 14 -12 22 -12 8
0 14 -6 14 -13 0 -7 9 -18 20 -25 11 -7 20 -19 20 -27 0 -8 6 -14 13 -13 6 2
11 -2 10 -8 -3 -14 63 -75 71 -67 3 4 6 -4 6 -16 0 -12 4 -19 10 -16 6 3 10
-4 10 -17 0 -18 2 -20 10 -8 8 13 10 12 10 -4 0 -12 5 -16 14 -13 10 4 13 1
10 -7 -3 -8 6 -23 20 -33 14 -11 22 -23 19 -27 -3 -3 -1 -6 6 -6 7 0 9 -4 6
-10 -3 -5 1 -10 9 -10 8 0 18 -9 21 -21 5 -13 12 -18 22 -14 13 4 13 3 4 -9
-9 -11 -8 -15 4 -20 11 -4 14 -2 9 6 -4 6 -3 8 4 4 6 -3 9 -15 7 -26 -2 -12 0
-18 6 -15 9 6 39 -17 39 -30 0 -14 63 -65 73 -58 6 3 7 1 3 -6 -4 -6 -11 -9
-15 -7 -4 3 -8 -1 -8 -9 0 -8 2 -13 5 -10 9 9 42 -16 42 -33 0 -15 2 -15 10
-2 8 12 10 11 10 -7 0 -12 9 -28 20 -36 11 -8 17 -17 13 -21 -4 -4 1 -4 12 0
15 6 17 4 12 -9 -4 -11 -1 -17 8 -17 19 0 58 -57 49 -72 -5 -9 -3 -9 9 1 15
12 17 11 17 -8 0 -12 6 -21 16 -21 8 0 13 -4 10 -8 -3 -5 4 -14 14 -22 10 -8
17 -17 14 -22 -3 -4 0 -8 6 -8 6 0 18 -7 26 -15 9 -8 12 -15 7 -15 -4 0 3 -7
15 -16 12 -8 19 -20 16 -26 -4 -7 -2 -8 4 -4 7 4 12 1 12 -8 0 -9 7 -16 16
-16 8 0 13 -4 9 -9 -3 -5 4 -12 15 -16 13 -4 20 -15 21 -33 0 -24 1 -25 9 -7
7 17 9 17 9 3 1 -10 6 -18 12 -18 5 0 8 -4 5 -8 -3 -5 6 -15 19 -22 14 -7 25
-22 25 -32 0 -11 5 -16 10 -13 6 3 10 -1 10 -9 0 -9 7 -16 16 -16 11 0 14 -6
9 -22 -4 -14 -3 -18 2 -11 6 8 14 9 23 3 13 -9 13 -10 0 -10 -13 0 -13 -2 0
-9 8 -6 18 -7 24 -4 5 4 7 0 4 -8 -6 -15 16 -42 26 -32 3 4 6 -1 6 -11 0 -11
4 -15 13 -10 7 5 7 1 -3 -12 -8 -10 -10 -16 -6 -12 5 4 16 2 24 -5 13 -9 14
-9 8 1 -4 6 -5 12 -2 12 3 0 10 -10 17 -21 8 -15 8 -19 0 -15 -6 4 -11 2 -11
-3 0 -6 9 -11 21 -11 11 0 18 -4 15 -8 -3 -5 4 -14 14 -22 10 -8 17 -17 14
-22 -3 -4 2 -8 10 -8 8 0 26 -16 39 -35 13 -19 27 -32 30 -28 4 3 7 1 7 -6 0
-7 5 -9 10 -6 6 4 8 10 5 15 -3 4 4 6 15 3 11 -3 17 -10 13 -17 -3 -6 3 -3 15
8 20 17 22 18 28 2 5 -13 9 -15 15 -5 6 10 11 10 25 -2 10 -8 15 -9 11 -3 -4
7 2 12 18 12 16 0 22 -5 18 -12 -4 -7 -2 -7 8 1 9 7 39 11 76 9 42 -2 60 1 56
8 -4 6 4 2 17 -9 13 -11 21 -15 17 -9 -4 7 7 11 33 11 26 0 37 -4 33 -11 -3
-6 0 -5 8 2 17 16 43 16 33 0 -6 -10 -5 -10 8 -1 8 8 32 11 56 9 30 -3 40 -1
36 7 -3 7 1 4 9 -6 11 -13 16 -15 19 -5 4 10 9 10 23 -2 10 -8 16 -10 12 -4
-4 7 2 12 18 12 16 0 22 -5 18 -12 -4 -7 -2 -7 8 1 9 7 39 11 76 9 42 -2 60 1
56 8 -4 6 4 2 17 -9 13 -11 21 -15 17 -9 -4 7 7 11 33 11 26 0 37 -4 33 -11
-3 -6 0 -5 8 2 17 16 43 16 33 0 -6 -10 -5 -10 8 -1 8 8 32 11 56 9 30 -3 40
-1 36 7 -3 7 1 4 9 -6 11 -13 16 -15 19 -5 4 10 9 10 23 -2 10 -8 16 -10 12
-4 -4 7 2 12 18 12 16 0 22 -5 18 -12 -4 -7 -2 -7 8 1 9 7 39 11 76 9 42 -2
60 1 56 8 -4 6 4 2 17 -9 13 -11 21 -15 17 -9 -4 7 7 11 33 11 26 0 37 -4 33
-11 -3 -6 0 -5 8 1 17 17 43 17 33 1 -6 -10 -5 -10 8 -1 8 8 32 11 56 9 30 -3
40 -1 36 7 -3 7 1 4 9 -6 11 -13 16 -15 19 -5 4 10 9 10 23 -2 10 -8 16 -10
12 -4 -4 7 2 12 18 12 16 0 22 -5 18 -12 -4 -7 -2 -7 8 1 9 7 39 11 76 9 42
-2 60 1 56 8 -4 6 4 2 17 -9 13 -11 21 -15 17 -9 -4 7 7 11 33 11 26 0 37 -4
33 -11 -3 -6 0 -5 8 1 17 17 43 17 33 1 -6 -10 -5 -10 7 -1 12 10 18 10 29 0
10 -9 11 -9 6 1 -4 7 -2 12 6 12 8 0 20 -6 27 -12 8 -8 11 -8 8 -2 -5 8 7 12
33 12 23 1 40 -4 40 -11 0 -6 7 -2 16 9 8 10 13 13 9 7 -8 -17 7 -17 24 0 10
8 12 8 7 0 -3 -6 -2 -14 4 -18 5 -3 10 -1 10 5 0 7 6 10 13 7 6 -2 20 0 29 4
10 6 19 5 23 -1 3 -5 13 -6 22 -3 12 5 14 3 8 -8 -7 -11 -6 -12 6 -2 12 10 18
10 29 0 10 -9 11 -9 6 1 -4 7 -2 12 6 12 8 0 20 -6 27 -12 8 -8 11 -8 8 -2 -5
8 7 12 33 12 23 1 40 -4 40 -11 0 -6 7 -2 16 9 8 10 13 13 9 7 -8 -17 7 -17
24 0 10 8 12 8 7 0 -3 -6 -2 -14 4 -18 5 -3 10 -1 10 5 0 7 6 10 13 7 6 -2 20
0 29 4 10 6 19 5 23 -1 3 -5 13 -6 22 -3 12 5 14 3 8 -8 -7 -11 -6 -12 6 -2
12 10 18 10 29 0 10 -9 11 -9 6 1 -9 16 16 16 33 -1 9 -7 11 -7 8 -1 -5 8 8
12 43 11 28 0 47 -4 43 -10 -3 -5 6 -2 20 8 19 12 27 13 33 4 5 -8 3 -9 -6 -4
-9 5 -11 4 -6 -4 6 -9 11 -9 21 -1 7 6 19 8 27 5 8 -3 21 2 29 11 13 16 12 16
-7 6 -19 -10 -21 -9 -17 16 4 21 2 24 -6 12 -9 -12 -11 -11 -11 8 0 13 -4 20
-10 17 -6 -3 -10 -1 -10 5 0 6 -5 8 -12 4 -8 -5 -8 -2 1 10 12 15 12 17 0 14
-8 -2 -13 4 -13 15 2 15 -1 16 -14 5 -12 -10 -14 -10 -8 0 4 6 2 12 -3 12 -6
0 -11 5 -11 11 0 6 -6 17 -14 25 -11 11 -16 11 -19 1 -5 -11 -11 18 -8 36 1 5
-3 6 -9 2 -5 -3 -10 -1 -10 5 0 16 -67 80 -75 72 -4 -4 -5 -2 -3 4 2 6 -12 26
-29 43 -18 17 -33 36 -33 42 0 5 -5 7 -12 3 -6 -4 -8 -3 -4 4 3 6 2 13 -4 17
-6 4 -7 11 -4 17 4 6 -1 8 -15 3 -16 -5 -20 -3 -15 9 4 10 0 18 -10 22 -9 3
-16 13 -16 21 0 8 -4 11 -10 8 -6 -3 -10 1 -10 9 0 9 -7 16 -16 16 -11 0 -14
5 -10 17 4 10 4 14 0 11 -9 -10 -47 29 -40 41 4 6 -2 8 -15 6 -12 -2 -19 -2
-15 2 3 4 0 13 -7 22 -8 9 -17 24 -20 34 -6 15 -4 16 14 6 14 -7 19 -7 15 -1
-4 7 6 9 30 5 30 -5 36 -3 29 8 -5 8 2 5 15 -6 l23 -20 -6 20 c-7 19 -6 19 7
2 10 -14 15 -15 19 -5 4 11 7 10 15 -1 8 -11 12 -10 21 5 6 11 11 14 11 8 0
-6 10 -10 23 -10 12 1 30 -1 39 -6 10 -5 20 -4 24 4 5 7 3 8 -6 3 -8 -5 -11
-4 -6 3 4 6 13 9 21 6 8 -4 12 -11 9 -16 -4 -6 4 -5 16 2 13 7 20 8 16 2 -3
-6 -1 -14 5 -18 7 -4 9 -3 6 2 -3 6 -2 16 4 24 7 12 9 12 9 -3 0 -17 1 -17 16
-3 20 21 31 20 43 -1 6 -10 11 -13 11 -6 0 8 12 10 37 6 29 -5 35 -3 28 8 -5
8 2 5 15 -6 l23 -20 -6 20 c-7 19 -6 19 7 2 10 -14 15 -15 19 -5 4 10 8 10 16
-2 9 -12 11 -12 17 3 3 9 10 17 16 17 5 0 6 -5 3 -10 -4 -6 5 -10 22 -8 16 1
34 -1 41 -6 7 -4 12 -3 12 3 0 6 7 8 15 5 8 -4 22 -1 29 5 10 8 16 9 21 1 9
-14 27 -13 20 3 -4 6 1 3 9 -7 9 -11 16 -14 16 -8 0 7 5 12 11 12 6 0 8 -8 5
-17 -4 -13 -1 -12 13 4 20 24 38 32 25 12 -4 -7 2 -10 17 -8 13 2 30 0 37 -4
7 -5 12 -3 12 3 0 6 4 9 9 6 15 -10 6 22 -12 42 -9 10 -14 23 -10 27 5 5 -1 3
-11 -5 -11 -8 -17 -10 -13 -3 4 6 1 18 -7 26 -8 8 -12 18 -8 22 4 4 3 6 -3 5
-24 -5 -34 1 -30 21 4 17 2 19 -11 8 -12 -10 -13 -9 -8 5 6 15 -6 21 -30 17
-5 -1 -3 6 5 15 8 10 10 15 4 13 -5 -3 -18 2 -27 13 -10 10 -15 18 -10 18 4 0
-1 5 -11 11 -9 6 -15 14 -12 20 4 5 -2 6 -11 2 -10 -4 -15 -2 -11 3 3 6 -3 17
-14 24 -10 8 -19 21 -19 28 0 9 -6 12 -16 8 -8 -3 -12 -2 -9 4 3 6 1 10 -6 10
-8 0 -7 5 2 17 11 13 11 15 1 9 -14 -8 -52 19 -52 36 0 13 -26 38 -33 32 -2
-3 -7 7 -11 21 -4 14 -13 25 -21 25 -8 0 -15 4 -15 9 0 4 -13 21 -28 38 -16
16 -26 35 -24 41 2 7 0 12 -5 11 -20 -3 -34 2 -28 11 3 6 1 10 -4 10 -6 0 -11
7 -11 15 0 8 -5 15 -11 15 -5 0 -8 4 -4 10 3 5 12 7 20 3 9 -3 22 0 29 6 11 9
16 9 22 0 5 -8 3 -9 -6 -4 -9 5 -11 4 -6 -4 6 -9 11 -9 22 0 8 6 14 8 14 4 0
-4 6 -2 14 4 11 9 16 9 22 0 5 -8 3 -9 -6 -4 -9 6 -11 4 -5 -5 6 -10 11 -9 22
5 8 12 13 14 13 6 0 -10 3 -11 14 -2 11 9 16 9 22 0 5 -8 3 -9 -6 -4 -9 5 -11
4 -6 -4 5 -8 12 -9 19 -3 7 5 22 8 35 6 17 -3 21 0 16 8 -6 10 -4 9 8 0 13
-11 21 -11 39 -2 14 8 19 8 15 1 -4 -6 -3 -11 3 -11 5 0 13 5 16 10 4 6 12 7
18 3 19 -11 107 -10 107 1 0 8 3 8 8 0 10 -14 113 -14 105 0 -4 6 0 5 9 -2 13
-11 21 -11 39 -2 14 8 19 8 15 1 -4 -6 -3 -11 3 -11 5 0 13 5 16 10 4 6 12 7
18 3 19 -11 107 -10 107 1 0 8 3 7 8 0 9 -13 43 -15 59 -2 7 6 14 5 18 -2 5
-8 11 -7 23 2 10 8 13 9 9 1 -4 -6 -2 -15 4 -19 8 -5 9 -3 4 6 -6 10 -2 12 16
7 l24 -6 -25 20 c-17 13 -19 17 -7 13 14 -5 12 0 -7 20 -15 14 -30 26 -33 26
-11 0 -42 43 -37 51 3 5 -2 9 -10 9 -9 0 -16 5 -16 11 0 5 -4 7 -10 4 -5 -3
-7 0 -5 8 3 7 -5 19 -19 26 -16 9 -22 19 -19 29 4 8 2 13 -3 10 -5 -3 -18 4
-29 16 -21 22 -25 28 -25 47 0 5 -4 7 -10 4 -5 -3 -10 -1 -10 5 0 6 -5 8 -12
4 -8 -5 -9 -2 -5 10 6 14 3 17 -8 12 -10 -3 -13 -2 -10 5 8 12 -40 60 -52 50
-4 -3 -5 -2 -1 3 12 14 -12 48 -28 42 -12 -4 -14 -1 -9 14 4 14 2 20 -7 18 -7
-2 -12 3 -11 10 2 6 -2 12 -8 12 -5 0 -7 6 -3 13 5 8 2 8 -9 -2 -15 -12 -17
-11 -17 8 0 12 -6 21 -16 21 -8 0 -13 4 -10 9 3 5 -1 12 -10 15 -10 4 -14 14
-11 26 3 11 2 18 -2 16 -4 -3 -19 6 -33 19 -14 13 -29 21 -33 17 -5 -4 -6 3
-3 15 4 16 2 20 -8 16 -9 -3 -14 1 -14 12 0 9 -4 13 -10 10 -5 -3 -10 1 -10 9
0 15 -12 21 -35 16 -5 -1 -4 4 2 11 7 7 13 18 13 23 0 7 -3 7 -8 0 -5 -7 -14
-5 -27 9 -11 11 -14 17 -5 13 8 -4 6 -1 -4 8 -10 8 -23 13 -27 10 -5 -3 -6 2
-3 10 3 9 1 16 -6 16 -6 0 -8 5 -5 10 3 6 0 10 -8 10 -8 0 -21 8 -28 18 -12
15 -12 16 2 5 13 -10 16 -10 16 2 0 7 -3 14 -6 13 -28 -3 -40 4 -34 19 4 10 2
14 -4 10 -6 -4 -14 0 -17 9 -3 8 -10 13 -15 9 -6 -3 -8 4 -6 16 2 12 2 19 -1
16 -6 -6 -54 36 -54 47 0 4 -16 24 -35 44 -19 20 -35 40 -35 45 0 4 -7 7 -16
7 -8 0 -12 5 -9 10 3 6 -1 10 -10 10 -9 0 -14 4 -10 9 3 5 -4 16 -15 24 -11 7
-17 17 -13 20 3 4 0 7 -9 7 -21 0 -52 36 -42 51 4 7 3 10 -3 6 -12 -8 -44 29
-46 52 -1 13 -7 17 -21 13 -13 -3 -17 -1 -12 6 4 7 2 12 -4 12 -7 0 -10 7 -6
15 3 8 2 14 -2 14 -19 -3 -28 3 -40 31 -7 16 -22 32 -33 35 -11 4 -17 11 -14
16 4 5 1 9 -6 9 -7 0 -9 3 -6 7 4 3 -9 17 -28 30 -20 13 -33 28 -30 34 4 5 -2
9 -11 9 -10 0 -15 3 -11 6 7 7 -15 34 -23 29 -4 -2 -12 6 -20 18 -12 21 -12
21 6 7 18 -14 18 -14 5 3 -7 9 -20 17 -27 17 -8 0 -14 7 -14 16 0 10 -6 14
-14 11 -10 -4 -12 1 -9 16 4 18 3 20 -7 7 -10 -13 -11 -12 -7 6 2 12 0 21 -7
20 -6 0 -12 3 -13 7 -4 14 -31 37 -44 37 -7 0 -9 3 -6 6 4 4 -2 15 -14 25 -15
13 -17 19 -7 23 7 3 3 4 -10 2 -20 -4 -21 -2 -10 12 10 12 10 14 1 8 -8 -4
-13 -2 -13 4 0 6 -4 8 -10 5 -9 -6 -13 6 -7 21 1 4 -8 10 -20 15 -13 5 -23 15
-23 24 0 8 -4 15 -10 15 -16 0 -50 43 -50 64 0 17 -2 18 -10 6 -5 -8 -10 -10
-10 -4 0 7 -11 14 -24 16 -19 4 -23 1 -18 -11 5 -14 2 -13 -15 2 -11 9 -22 14
-25 11 -4 -3 -15 -1 -25 5 -15 7 -20 7 -20 -4 0 -7 7 -11 16 -8 14 4 14 3 2
-5 -11 -8 -25 -6 -48 3 -19 8 -31 10 -28 5 8 -13 -1 -13 -26 0 -13 7 -19 7
-19 0 0 -5 -5 -10 -11 -10 -5 0 -7 5 -3 11 5 8 1 8 -14 0 -17 -9 -23 -8 -32 6
-10 16 -11 16 -7 -4 3 -15 1 -20 -9 -16 -8 3 -11 10 -7 16 3 6 1 7 -5 3 -6 -4
-20 -2 -30 3 -14 7 -19 6 -19 -4 0 -7 7 -11 16 -8 14 4 14 3 2 -5 -11 -8 -25
-6 -48 3 -19 8 -31 10 -28 5 8 -13 -1 -13 -26 0 -13 7 -19 7 -19 0 0 -5 -5
-10 -11 -10 -5 0 -7 5 -3 11 5 8 1 8 -14 0 -17 -9 -23 -8 -32 6 -10 16 -11 15
-6 -5 4 -19 2 -21 -10 -11 -8 6 -25 8 -40 5 -18 -5 -24 -3 -19 5 6 8 2 8 -13
0 -11 -6 -23 -11 -27 -11 -3 0 -3 5 1 11 5 8 1 8 -14 0 -17 -9 -23 -8 -32 6
-10 16 -11 16 -7 -4 3 -15 1 -20 -9 -16 -8 3 -11 10 -7 16 3 6 1 7 -5 3 -6 -4
-20 -2 -30 3 -14 7 -19 6 -19 -4 0 -7 7 -11 16 -8 14 4 14 3 2 -5 -11 -8 -25
-6 -48 3 -19 8 -31 10 -28 5 8 -13 -1 -13 -26 0 -13 7 -19 7 -19 0 0 -5 -5
-10 -11 -10 -5 0 -7 5 -3 11 5 8 1 8 -14 0 -17 -9 -23 -8 -32 6 -10 16 -11 16
-7 -4 3 -15 1 -20 -9 -16 -8 3 -11 10 -7 16 3 6 1 7 -5 3 -6 -4 -20 -2 -30 3
-14 7 -19 6 -19 -4 0 -7 7 -11 16 -8 14 4 14 3 2 -5 -11 -8 -25 -6 -48 3 -19
8 -31 10 -28 5 8 -13 -1 -13 -26 0 -13 7 -19 7 -19 0 0 -5 -5 -10 -11 -10 -5
0 -7 5 -3 11 5 8 1 8 -14 0 -17 -9 -23 -8 -32 6 -10 16 -11 15 -6 -5 5 -23 4
-24 -16 -5 -12 10 -18 12 -14 6 4 -7 2 -13 -3 -13 -6 0 -11 4 -11 9 0 6 -12 6
-28 1 -17 -4 -36 -3 -47 2 -13 8 -16 7 -11 -1 9 -14 0 -14 -25 -1 -13 7 -19 7
-19 0 0 -5 -5 -10 -11 -10 -5 0 -7 5 -3 11 5 8 1 8 -14 0 -17 -9 -23 -8 -32 6
-10 16 -11 16 -7 -4 3 -15 1 -20 -9 -16 -8 3 -11 10 -7 16 3 6 1 7 -5 3 -6 -4
-20 -2 -30 3 -14 7 -19 6 -19 -4 0 -7 7 -11 16 -8 14 4 14 3 2 -5 -11 -8 -25
-6 -48 3 -19 8 -31 10 -28 5 8 -13 -1 -13 -26 0 -13 7 -19 7 -19 0 0 -5 -5
-10 -11 -10 -5 0 -7 5 -3 11 5 8 1 8 -14 0 -17 -9 -23 -8 -32 6 -10 16 -11 16
-7 -4 3 -15 1 -20 -9 -16 -8 3 -11 10 -7 16 3 6 1 7 -5 3 -6 -4 -20 -2 -30 3
-14 7 -19 6 -19 -4 0 -7 7 -11 16 -8 14 4 14 3 2 -5 -11 -8 -25 -6 -48 3 -19
8 -31 10 -28 5 8 -13 -1 -13 -26 0 -13 7 -19 7 -19 0 0 -5 -5 -10 -11 -10 -5
0 -7 5 -3 11 5 8 1 8 -14 0 -17 -9 -23 -8 -32 6 -10 16 -11 16 -7 -4 3 -15 1
-20 -9 -16 -8 3 -11 10 -7 16 3 6 1 7 -5 3 -6 -4 -20 -2 -30 3 -14 7 -19 6
-19 -4 0 -7 7 -11 16 -8 14 4 14 3 2 -5 -11 -8 -25 -6 -48 3 -19 8 -31 10 -28
5 8 -13 -1 -13 -26 0 -13 7 -19 7 -19 0 0 -5 -5 -10 -11 -10 -5 0 -7 5 -3 11
5 8 1 8 -14 0 -17 -9 -23 -8 -32 6 -10 16 -11 16 -7 -4 3 -15 1 -20 -9 -16 -8
3 -11 10 -7 16 3 6 1 7 -5 3 -6 -4 -20 -2 -30 3 -14 7 -19 6 -19 -4 0 -7 7
-11 16 -8 14 4 14 3 2 -5 -11 -8 -25 -6 -48 3 -19 8 -31 10 -28 5 8 -13 -1
-13 -26 0 -13 7 -19 7 -19 0 0 -5 -5 -10 -11 -10 -5 0 -7 5 -3 11 5 8 1 8 -14
0 -17 -9 -23 -8 -32 6 -10 16 -11 15 -6 -5 4 -19 2 -21 -10 -11 -8 6 -25 8
-40 5 -18 -5 -24 -3 -19 5 6 8 2 8 -13 0 -27 -14 -54 -15 -32 -1 9 6 10 10 3
10 -6 0 -15 -5 -18 -10 -4 -7 -13 -6 -27 1 -15 8 -19 8 -14 0 4 -6 4 -11 1
-11 -4 0 -16 5 -27 11 -15 8 -19 8 -14 0 9 -14 0 -14 -25 -1 -13 7 -19 7 -19
0 0 -5 -5 -10 -11 -10 -5 0 -7 5 -3 11 5 8 1 8 -14 0 -17 -9 -23 -8 -32 6 -10
16 -11 15 -6 -5 5 -23 4 -24 -16 -5 -12 10 -18 12 -14 6 4 -7 2 -13 -3 -13 -6
0 -11 4 -11 9 0 10 -39 3 -57 -11 -7 -6 -14 -4 -19 3 -4 8 -3 9 4 5 8 -5 10
-2 6 8 -7 19 -14 20 -15 4z m3316 -578 c3 -5 1 -10 -4 -10 -6 0 -11 5 -11 10
0 6 2 10 4 10 3 0 8 -4 11 -10z m-3680 -118 c-3 -3 -11 0 -18 7 -9 10 -8 11 6
5 10 -3 15 -9 12 -12z m4380 -672 c3 -5 1 -10 -4 -10 -6 0 -11 5 -11 10 0 6 2
10 4 10 3 0 8 -4 11 -10z m-4230 -578 c-3 -3 -11 0 -18 7 -9 10 -8 11 6 5 10
-3 15 -9 12 -12z m4316 -609 c13 -16 12 -17 -3 -4 -17 13 -22 21 -14 21 2 0
10 -8 17 -17z m-561 -443 c6 -11 8 -20 6 -20 -3 0 -10 9 -16 20 -6 11 -8 20
-6 20 3 0 10 -9 16 -20z"/>
<path d="M3860 6716 c0 -2 8 -10 18 -17 15 -13 16 -12 3 4 -13 16 -21 21 -21
13z"/>
<path d="M4480 6006 c0 -2 7 -9 15 -16 13 -11 14 -10 9 4 -5 14 -24 23 -24 12z"/>
<path d="M6915 5800 c-4 -6 -10 -8 -15 -5 -16 10 -93 -16 -132 -44 -72 -51
-98 -128 -102 -296 l-1 -79 -75 -1 -75 -1 0 -104 0 -105 73 1 c39 1 73 -2 74
-5 1 -3 2 -202 3 -441 l2 -435 67 -5 c37 -3 70 -2 72 2 2 3 17 3 33 -2 16 -4
32 -6 35 -3 3 3 15 6 27 7 22 1 22 3 20 166 -1 91 -2 174 -1 185 5 104 3 385
-3 385 -5 0 -5 6 -1 12 5 7 7 40 6 73 l-2 61 91 -1 c50 0 95 3 100 6 5 3 8 50
7 105 l-3 99 -97 0 -97 0 1 75 c0 41 4 85 9 98 11 29 50 43 124 45 l60 2 2 87
2 88 -39 10 c-22 6 -63 13 -92 16 -29 3 -56 8 -60 10 -4 2 -9 0 -13 -6z"/>
<path d="M7680 5691 c-5 -10 -26 -62 -48 -117 -21 -54 -43 -108 -47 -119 -5
-11 -9 -22 -10 -25 -1 -3 -5 -14 -9 -25 -5 -11 -19 -49 -33 -85 -13 -36 -31
-78 -39 -93 -8 -16 -14 -37 -14 -48 0 -10 -4 -19 -10 -19 -6 0 -9 -3 -8 -7 1
-5 -4 -24 -11 -43 -8 -19 -15 -40 -16 -45 -2 -6 -11 -31 -22 -55 -11 -25 -29
-70 -41 -100 -40 -107 -198 -514 -222 -574 -25 -62 -25 -67 4 -56 13 5 26 7
29 4 4 -4 103 -7 187 -5 35 1 36 2 69 89 19 48 46 116 60 152 l26 65 310 0
c171 0 317 -1 326 -3 11 -2 35 -54 70 -150 l55 -147 58 -5 c32 -3 60 -2 63 2
2 5 9 6 14 2 13 -7 148 -8 156 -1 3 4 1 12 -4 19 -6 7 -13 25 -17 40 -3 15
-11 40 -18 55 -6 15 -12 30 -13 33 -1 3 -7 16 -12 30 -6 14 -27 66 -46 115
-56 145 -178 457 -191 490 -7 17 -23 57 -35 90 -13 33 -26 69 -31 80 -4 11 -8
25 -10 30 -1 6 -7 19 -13 30 -6 11 -12 25 -13 30 -1 6 -19 51 -39 100 -20 50
-43 110 -52 135 -8 25 -18 50 -22 55 -4 6 -13 28 -20 51 l-13 40 -169 1 c-148
0 -171 -2 -179 -16z m189 -271 c6 -19 12 -39 12 -45 3 -15 118 -329 142 -388
9 -20 16 -39 17 -42 1 -6 6 -21 28 -81 l19 -51 -238 -1 c-263 -1 -247 -5 -218
63 6 17 13 35 15 40 4 15 89 248 101 275 3 8 7 20 9 25 31 103 89 254 94 248
4 -4 13 -24 19 -43z"/>
<path d="M8755 5701 c-3 -2 -5 -323 -5 -712 l0 -707 66 -4 c36 -1 68 0 70 4 2
3 17 3 33 -2 16 -4 32 -6 35 -3 3 4 19 6 36 5 17 0 30 5 30 11 1 18 1 1316 1
1368 l-1 47 -130 -1 c-72 -1 -133 -3 -135 -6z"/>
<path d="M9744 5390 c-64 -14 -118 -63 -160 -143 -14 -27 -27 -47 -30 -44 -6
6 -11 32 -18 102 -4 32 -8 61 -10 64 -4 5 -186 7 -206 2 -8 -1 -6 -1078 1
-1085 5 -5 116 -9 210 -7 l36 1 1 316 c1 250 5 328 16 369 35 117 102 166 242
173 l84 5 1 66 c2 128 0 164 -9 173 -12 12 -118 17 -158 8z"/>
<path d="M4595 4170 c3 -5 8 -10 11 -10 2 0 4 5 4 10 0 6 -5 10 -11 10 -5 0
-7 -4 -4 -10z"/>
<path d="M1863 3565 c0 -8 4 -12 9 -9 5 3 6 10 3 15 -9 13 -12 11 -12 -6z"/>
</g>
</svg>
