<svg width="29" height="29" viewBox="0 0 29 29" fill="none" xmlns="http://www.w3.org/2000/svg">
<circle cx="14.6219" cy="14.7969" r="11.1191" fill="#202325"/>
<path d="M14.62 0.796875C6.88791 0.796875 0.619995 7.06479 0.619995 14.7969C0.619995 22.529 6.88791 28.7969 14.62 28.7969C22.3521 28.7969 28.62 22.529 28.62 14.7969C28.62 7.06479 22.3521 0.796875 14.62 0.796875ZM17.9362 10.4715H15.8319C15.5825 10.4715 15.3054 10.7996 15.3054 11.2356V12.7552H17.9377L17.5396 14.9223H15.3054V21.4279H12.8219V14.9223H10.5687V12.7552H12.8219V11.4806C12.8219 9.65187 14.0906 8.16583 15.8319 8.16583H17.9362V10.4715Z" fill="#F2F4F5"/>
</svg>
