<svg width="14" height="13" viewBox="0 0 14 13" fill="none" xmlns="http://www.w3.org/2000/svg">
<path d="M-0.000549316 0.837704H0.315695C1.69507 0.837192 3.07444 0.840773 4.45382 0.832077C4.64295 0.832077 4.77057 0.887326 4.88039 1.04182C5.69117 2.1833 6.50466 3.32273 7.32086 4.46012C7.37882 4.54094 7.44136 4.6187 7.51406 4.7159C8.15774 4.02528 8.78056 3.35513 9.40543 2.68651C9.93216 2.12379 10.4553 1.55492 10.9933 1.00192C11.0944 0.907367 11.2251 0.851126 11.3629 0.84282C11.8403 0.824403 12.3187 0.835146 12.7967 0.835146L12.8272 0.905231L8.26349 5.77843L13.241 12.7567H12.907C11.5342 12.7567 10.1655 12.7537 8.79429 12.7613C8.71578 12.7669 8.63726 12.7508 8.56719 12.7147C8.49712 12.6786 8.43817 12.624 8.3967 12.5567C7.52118 11.3255 6.64125 10.0978 5.75692 8.87341C5.70608 8.80026 5.64812 8.72915 5.58202 8.64218C4.9414 9.32154 4.31959 9.97891 3.70083 10.6373C3.07343 11.3023 2.44856 11.9735 1.81963 12.6385C1.76879 12.6897 1.6971 12.747 1.63355 12.748C1.118 12.7552 0.609568 12.7516 0.0940189 12.7516L0.056395 12.6856C1.63914 10.9974 3.2224 9.30671 4.83209 7.58886L-0.000549316 0.837704ZM2.45009 2.10588C2.50449 2.19285 2.53245 2.24298 2.5655 2.28902C3.1041 3.04103 3.64321 3.79252 4.18282 4.5435C5.72998 6.69209 7.28425 8.833 8.81717 10.9923C9.078 11.3601 9.33933 11.5607 9.80404 11.4967C10.1294 11.4517 10.465 11.488 10.8316 11.488C10.2723 10.7156 9.74607 9.98812 9.22188 9.2576C7.55084 6.9269 5.87963 4.59585 4.20824 2.26447C4.16198 2.20001 4.08571 2.11355 4.02165 2.111C3.50763 2.10076 2.99919 2.10588 2.45009 2.10588Z" fill="#202325"/>
</svg>
