<svg width="16" height="16" viewBox="0 0 16 16" fill="none" xmlns="http://www.w3.org/2000/svg">
<g clip-path="url(#clip0_1_1243)">
<path fill-rule="evenodd" clip-rule="evenodd" d="M7.85193 0.218262C3.70818 0.218262 0.351929 3.57451 0.351929 7.71826C0.351929 11.037 2.4988 13.8401 5.48005 14.8339C5.85505 14.8995 5.99568 14.6745 5.99568 14.4776C5.99568 14.2995 5.9863 13.7089 5.9863 13.0808C4.10193 13.4276 3.61443 12.6214 3.46443 12.1995C3.38005 11.9839 3.01443 11.3183 2.69568 11.1401C2.43318 10.9995 2.05818 10.6526 2.6863 10.6433C3.27693 10.6339 3.6988 11.187 3.83943 11.412C4.51443 12.5464 5.59255 12.2276 6.0238 12.0308C6.08943 11.5433 6.2863 11.2151 6.50193 11.0276C4.83318 10.8401 3.08943 10.1933 3.08943 7.32451C3.08943 6.50889 3.38005 5.83389 3.85818 5.30889C3.78318 5.12139 3.52068 4.35264 3.93318 3.32139C3.93318 3.32139 4.5613 3.12451 5.99568 4.09014C6.59568 3.92139 7.23318 3.83701 7.87068 3.83701C8.50818 3.83701 9.14568 3.92139 9.74568 4.09014C11.1801 3.11514 11.8082 3.32139 11.8082 3.32139C12.2207 4.35264 11.9582 5.12139 11.8832 5.30889C12.3613 5.83389 12.6519 6.49951 12.6519 7.32451C12.6519 10.2026 10.8988 10.8401 9.23005 11.0276C9.50193 11.262 9.7363 11.712 9.7363 12.4151C9.7363 13.4183 9.72693 14.2245 9.72693 14.4776C9.72693 14.6745 9.86755 14.9089 10.2426 14.8339C13.2051 13.8401 15.3519 11.0276 15.3519 7.71826C15.3519 3.57451 11.9957 0.218262 7.85193 0.218262Z" fill="#1B1F23"/>
</g>
<defs>
<clipPath id="clip0_1_1243">
<rect width="15" height="15" fill="white" transform="translate(0.351929 0.218262)"/>
</clipPath>
</defs>
</svg>
