<svg width="16" height="16" viewBox="0 0 16 16" fill="none" xmlns="http://www.w3.org/2000/svg">
<path d="M10.769 0.704712H4.87435C3.72255 0.706065 2.61833 1.16427 1.80395 1.97878C0.98957 2.7933 0.531555 3.8976 0.530396 5.0494L0.530396 10.9441C0.531749 12.0959 0.989949 13.2001 1.80446 14.0145C2.61898 14.8289 3.72328 15.2869 4.87508 15.288H10.7698C11.9216 15.2867 13.0258 14.8285 13.8402 14.014C14.6546 13.1995 15.1126 12.0952 15.1137 10.9434V5.04867C15.1124 3.89687 14.6542 2.79264 13.8397 1.97826C13.0251 1.16389 11.9208 0.705872 10.769 0.704712V0.704712ZM13.647 10.9434C13.647 11.3213 13.5726 11.6955 13.4279 12.0447C13.2833 12.3939 13.0713 12.7111 12.8041 12.9784C12.5368 13.2456 12.2196 13.4576 11.8704 13.6022C11.5212 13.7469 11.147 13.8213 10.769 13.8213H4.87435C4.1112 13.8211 3.37937 13.5178 2.8398 12.9781C2.30024 12.4384 1.99713 11.7065 1.99713 10.9434V5.04867C1.99732 4.28551 2.30062 3.55368 2.84032 3.01412C3.38002 2.47456 4.11193 2.17145 4.87508 2.17145H10.7698C11.5329 2.17164 12.2648 2.47494 12.8043 3.01464C13.3439 3.55434 13.647 4.28624 13.647 5.0494V10.9441V10.9434Z" fill="#202325"/>
<path d="M7.82048 4.22485C6.82082 4.2264 5.86255 4.62425 5.15575 5.33119C4.44894 6.03813 4.05128 6.99648 4.04993 7.99614C4.05109 8.99606 4.44877 9.9547 5.15575 10.6618C5.86273 11.3689 6.8213 11.7668 7.82121 11.7682C8.82126 11.767 9.78001 11.3692 10.4872 10.6621C11.1943 9.95494 11.5921 8.99619 11.5932 7.99614C11.5917 6.99622 11.1936 6.03773 10.4864 5.33089C9.77912 4.62404 8.8204 4.22655 7.82048 4.22558V4.22485ZM7.82048 10.3014C7.20928 10.3014 6.62311 10.0586 6.19092 9.62644C5.75873 9.19425 5.51593 8.60808 5.51593 7.99687C5.51593 7.38567 5.75873 6.79949 6.19092 6.36731C6.62311 5.93512 7.20928 5.69232 7.82048 5.69232C8.43169 5.69232 9.01786 5.93512 9.45005 6.36731C9.88224 6.79949 10.125 7.38567 10.125 7.99687C10.125 8.60808 9.88224 9.19425 9.45005 9.62644C9.01786 10.0586 8.43169 10.3014 7.82048 10.3014Z" fill="#202325"/>
<path d="M11.6019 5.15673C12.1009 5.15673 12.5055 4.75219 12.5055 4.25317C12.5055 3.75415 12.1009 3.34961 11.6019 3.34961C11.1029 3.34961 10.6984 3.75415 10.6984 4.25317C10.6984 4.75219 11.1029 5.15673 11.6019 5.15673Z" fill="#202325"/>
</svg>
