<svg width="16" height="12" viewBox="0 0 16 12" fill="none" xmlns="http://www.w3.org/2000/svg">
<g clip-path="url(#clip0_1_1247)">
<g clip-path="url(#clip1_1_1247)">
<path d="M15.0383 1.93604C14.8655 1.25954 14.3579 0.727904 13.7122 0.546813C12.5429 0.218262 7.85193 0.218262 7.85193 0.218262C7.85193 0.218262 3.16104 0.218262 1.99171 0.546813C1.34592 0.727904 0.83843 1.25954 0.665562 1.93604C0.351929 3.16099 0.351929 5.71826 0.351929 5.71826C0.351929 5.71826 0.351929 8.27554 0.665562 9.5005C0.83843 10.177 1.34592 10.7086 1.99171 10.8897C3.16104 11.2183 7.85193 11.2183 7.85193 11.2183C7.85193 11.2183 12.5429 11.2183 13.7122 10.8897C14.3579 10.7086 14.8655 10.177 15.0383 9.5005C15.352 8.27554 15.352 5.71826 15.352 5.71826C15.352 5.71826 15.3507 3.16099 15.0383 1.93604Z" fill="#202325"/>
<path d="M6.35051 8.07523L10.2475 5.71848L6.35051 3.36169V8.07523Z" fill="white"/>
</g>
</g>
<defs>
<clipPath id="clip0_1_1247">
<rect width="15" height="11" fill="white" transform="translate(0.351929 0.218262)"/>
</clipPath>
<clipPath id="clip1_1_1247">
<rect width="15" height="11" fill="white" transform="translate(0.351929 0.218262)"/>
</clipPath>
</defs>
</svg>
