<svg width="229" height="276" viewBox="0 0 229 276" fill="none" xmlns="http://www.w3.org/2000/svg">
<g opacity="0.4" clip-path="url(#clip0_1_1142)">
<g style="mix-blend-mode:multiply">
<path d="M81.41 275.676C90.1144 267.54 91.7132 253.552 85.389 240.863C78.9987 228.049 63.4545 215.886 38.989 220.161C29.8663 221.758 23.5594 220.409 20.2402 216.155C15.7717 210.426 18.1379 201.559 19.3201 198.902C22.306 192.182 17.8497 186.504 16.4123 184.923C14.192 182.482 13.1417 178.747 13.9142 176.042C14.7423 173.148 17.8966 169.76 17.9279 169.725L18.2542 169.378L17.907 169.048C17.8723 169.015 14.4159 165.682 15.2284 161.013C15.7214 158.182 17.0529 156.786 18.4643 155.307C19.4208 154.305 20.4086 153.269 21.0579 151.787C22.2158 149.139 17.6692 147.044 12.4056 144.619C9.52385 143.29 6.54141 141.915 4.16483 140.34C2.51909 139.25 1.67018 138.011 1.56081 136.554C1.25354 132.161 7.69933 126.448 13.9316 120.931C15.6433 119.414 17.414 117.843 18.9886 116.345C28.3057 107.473 28.1547 101.16 27.8214 87.3301C27.271 64.3141 34.5622 44.3793 48.9259 29.673C66.5047 11.6668 94.3242 1.74971 127.256 1.74971C165.471 1.74971 199.778 22.6045 216.791 56.1746C233.977 90.0988 229.984 129.805 206.086 162.388C176.694 202.464 172.977 219.845 176.034 241.544C177.54 252.231 181.251 263.667 187.065 275.532L187.933 275.11C182.164 263.336 178.482 251.997 176.996 241.41C173.975 219.97 177.675 202.761 206.871 162.948C230.974 130.074 235.005 89.9947 217.646 55.7407C200.469 21.8477 165.834 0.791504 127.256 0.791504C94.0638 0.791504 66.003 10.811 48.2402 29.003C33.6977 43.8985 26.3093 64.0676 26.8683 87.3475C27.2033 101.294 27.3422 107.065 18.3306 115.642C16.7682 117.13 15.0062 118.692 13.2962 120.206C6.88861 125.884 0.264023 131.756 0.604279 136.62C0.727524 138.372 1.74484 139.891 3.6284 141.134C6.05881 142.75 9.08118 144.14 11.9977 145.484C16.6033 147.607 20.9537 149.612 20.1708 151.398C19.5909 152.724 18.7038 153.654 17.7629 154.64C16.3168 156.158 14.8117 157.725 14.277 160.843C13.5201 165.182 15.9939 168.385 16.9158 169.402C16.0686 170.364 13.725 173.185 12.9854 175.775C12.1279 178.776 13.2667 182.892 15.6971 185.563C17.0355 187.035 21.1863 192.318 18.4365 198.506C16.5859 202.672 15.2301 211.303 19.4781 216.733C23.0352 221.288 29.6546 222.756 39.1505 221.095C63.1074 216.906 78.2922 228.774 84.5279 241.28C90.6595 253.582 89.1439 267.117 80.7538 274.956L81.41 275.676Z" fill="url(#paint0_linear_1_1142)"/>
<path d="M85.8661 257.094C93.0185 249.963 93.9924 237.636 88.2965 226.421C82.2535 214.535 67.7926 203.104 45.3235 206.647C37.1487 207.941 31.4355 206.633 28.3263 202.762C24.1599 197.565 25.9844 189.497 27.0382 186.829C29.4911 180.611 25.4879 175.396 24.2033 173.945C22.1947 171.678 21.2069 168.245 21.8562 165.787C22.4187 163.653 24.3387 161.232 25.0609 160.32C25.4289 159.857 25.5157 159.746 25.4289 159.484C25.3864 159.379 25.3219 159.285 25.2397 159.208C23.2884 156.993 22.4412 154.396 22.8527 151.894C23.2693 149.332 24.4342 148.03 25.6667 146.654C26.5174 145.706 27.4027 144.725 27.9582 143.335C28.9842 140.8 24.8838 138.776 20.1358 136.435C17.5926 135.178 14.9625 133.881 12.8724 132.411C11.4194 131.383 10.6694 130.22 10.5826 128.859C10.3222 124.742 16.1066 119.439 21.7017 114.309C23.2172 112.92 24.7848 111.481 26.1823 110.108C34.6106 101.823 34.5429 96.0356 34.3936 83.355C34.1992 62.2867 41.1536 44.0253 54.507 30.5514C70.8445 14.0572 96.4332 4.97505 126.57 4.97505C161.603 4.97505 193.233 23.9794 209.128 54.569C225.175 85.4555 222.101 121.883 200.918 152.014C174.305 189.872 170.227 206.72 171.784 226.261C172.779 238.716 176.834 249.437 179.258 255.84L179.666 256.922L180.563 256.585L180.155 255.502C177.749 249.145 173.724 238.504 172.741 226.185C171.201 206.873 175.258 190.183 201.703 152.566C223.092 122.129 226.187 85.3374 209.976 54.1281C193.927 23.2174 161.96 4.01685 126.57 4.01685C96.178 4.01685 70.341 13.1979 53.8212 29.871C40.2804 43.5323 33.2322 62.0281 33.4301 83.3603C33.5759 95.7613 33.6419 101.422 25.5053 109.419C24.1165 110.782 22.5541 112.212 21.0472 113.597C15.2872 118.878 9.33092 124.339 9.62083 128.915C9.72499 130.56 10.6312 131.999 12.3151 133.19C14.4678 134.702 17.1308 136.016 19.707 137.289C23.8457 139.332 27.7569 141.262 27.0642 142.97C26.5642 144.204 25.7796 145.081 24.948 146.01C23.6773 147.428 22.3631 148.895 21.8996 151.738C21.4517 154.456 22.3249 157.262 24.356 159.657C24.3404 159.676 24.3213 159.699 24.304 159.723C23.5471 160.678 21.5368 163.214 20.924 165.54C20.1861 168.337 21.2382 172.055 23.4811 174.584C24.6737 175.931 28.394 180.771 26.1407 186.48C25.0296 189.294 23.1217 197.812 27.5728 203.365C30.9077 207.531 36.9264 208.947 45.4676 207.599C67.4315 204.127 81.547 215.275 87.4372 226.867C92.9508 237.709 92.0463 249.588 85.1908 256.425L85.8661 257.094Z" fill="url(#paint1_linear_1_1142)"/>
<path d="M90.3224 238.506C95.9575 232.362 96.3134 221.689 91.2095 211.947C85.4807 201.011 72.0805 190.335 51.646 193.133C44.4121 194.123 39.2856 192.857 36.4056 189.372C32.6975 184.886 33.6975 177.844 34.746 174.749C36.6226 169.194 33.4388 164.658 31.9823 162.966C30.1543 160.841 29.2515 157.777 29.7862 155.514C30.2011 153.767 31.6281 151.769 32.3139 150.808C32.7999 150.127 32.9024 149.986 32.8104 149.71C32.7539 149.575 32.672 149.451 32.569 149.346C30.8331 147.19 30.1248 144.975 30.4633 142.763C30.8105 140.465 31.8052 139.26 32.8607 137.985C33.6037 137.089 34.3693 136.164 34.8484 134.86C35.7373 132.451 32.1073 130.51 27.9044 128.264C25.6823 127.075 23.3908 125.847 21.5715 124.467C20.3007 123.504 19.6497 122.421 19.5785 121.157C19.3598 117.316 24.4914 112.413 29.4529 107.671C30.7723 106.411 32.1368 105.107 33.3572 103.852C40.8446 96.2038 40.8776 90.5761 40.9453 79.3658C41.2039 36.1269 74.5421 8.19494 125.879 8.19494C157.73 8.19494 186.69 25.3471 201.458 52.958C216.356 80.8153 214.223 113.971 195.75 141.642C174.532 173.433 167.413 190.927 167.54 210.971C167.601 220.505 169.849 229.005 171.336 234.631C171.705 236.02 172.031 237.251 172.269 238.289L173.204 238.075C172.963 237.034 172.635 235.789 172.264 234.385C170.79 228.807 168.559 220.378 168.5 210.964C168.392 193.769 172.829 177.714 196.55 142.175C215.219 114.198 217.363 80.6799 202.305 52.5205C187.368 24.5885 158.086 7.24194 125.876 7.24194C73.9588 7.24194 40.2439 35.5541 39.9835 79.371C39.9141 90.6681 39.8828 95.8237 32.668 103.192C31.4528 104.428 30.1004 105.727 28.788 106.982C23.6685 111.874 18.372 116.93 18.6168 121.216C18.7036 122.756 19.5022 124.108 20.9864 125.236C22.8631 126.662 25.1928 127.908 27.4478 129.114C31.0934 131.065 34.5429 132.909 33.9422 134.535C33.5221 135.678 32.8399 136.502 32.1177 137.374C31.024 138.693 29.8921 140.059 29.5137 142.619C29.1352 145.091 29.8991 147.541 31.7826 149.9C31.7167 149.993 31.6316 150.111 31.5309 150.247C30.7549 151.335 29.3088 153.359 28.8523 155.281C28.2499 157.824 29.2376 161.237 31.2549 163.58C32.602 165.142 35.5533 169.343 33.8346 174.429C32.7288 177.701 31.6871 185.159 35.6643 189.972C38.7701 193.731 44.1933 195.109 51.7727 194.071C71.7211 191.34 84.7846 201.738 90.3589 212.381C95.2752 221.765 94.9766 231.996 89.6141 237.848L90.3224 238.506Z" fill="url(#paint2_linear_1_1142)"/>
<path d="M94.7874 219.911C99.0129 214.643 98.7577 205.804 94.1382 197.391C88.6871 187.471 76.3285 177.583 57.9772 179.614C51.6825 180.309 47.1463 179.094 44.4937 175.985C41.1015 172.016 41.6189 165.743 42.4591 162.66C43.8375 157.607 41.0373 153.51 39.77 151.984C38.1521 150.038 37.3101 147.265 37.725 145.242C38.0184 143.807 39.0444 142.198 39.6589 141.238C40.1624 140.446 40.2995 140.234 40.2005 139.937C40.1299 139.774 40.0344 139.622 39.9176 139.488C39.31 138.667 37.6972 136.48 38.0826 133.631C38.3587 131.6 39.1902 130.489 40.0686 129.314C40.7005 128.47 41.3533 127.599 41.7456 126.399C42.4938 124.113 39.3343 122.251 35.6696 120.095C33.7739 118.977 31.8122 117.821 30.2741 116.54C29.1873 115.637 28.6336 114.63 28.578 113.457C28.4044 109.884 32.8833 105.388 37.2077 101.04C38.3569 99.8856 39.4957 98.7399 40.5373 97.6237C47.0994 90.5934 47.2418 85.1983 47.5005 75.4045C48.5247 36.5383 79.0176 11.4236 125.188 11.4236C154.285 11.4236 179.93 26.3521 193.787 51.3488C207.543 76.1718 206.343 106.048 190.573 131.265C171.906 161.122 164.766 177.969 163.288 195.666C162.684 202.917 163.597 209.47 164.264 214.254C164.563 216.391 164.821 218.246 164.868 219.621L165.826 219.59C165.778 218.154 165.516 216.292 165.215 214.12C164.554 209.381 163.653 202.891 164.245 195.746C165.707 178.224 172.81 161.483 191.387 131.777C207.343 106.26 208.553 76.0225 194.625 50.8853C180.598 25.5727 154.64 10.4602 125.185 10.4602C78.4482 10.4602 47.5768 35.9394 46.5439 75.382C46.2661 85.9257 45.912 90.4632 39.8395 96.9693C38.7979 98.0785 37.6729 99.2155 36.5306 100.363C32.0604 104.859 27.4357 109.508 27.6232 113.502C27.6909 114.936 28.3784 116.206 29.6647 117.277C31.2619 118.607 33.2565 119.784 35.187 120.923C38.35 122.787 41.3394 124.549 40.8307 126.103C40.4835 127.144 39.9089 127.925 39.2978 128.741C38.383 129.956 37.4386 131.225 37.1296 133.504C36.6904 136.738 38.4715 139.151 39.1433 140.061L39.2058 140.146C39.1208 140.293 38.9767 140.519 38.8465 140.724C38.1972 141.739 37.1105 143.44 36.7824 145.051C36.2321 147.737 37.515 150.78 39.0287 152.599C40.2005 154.01 42.7907 157.791 41.5303 162.41C41.2856 163.309 39.2648 171.348 43.7611 176.61C46.6324 179.968 51.4516 181.296 58.0797 180.569C75.9605 178.594 87.9927 188.207 93.2927 197.855C97.6588 205.8 97.9574 214.424 94.0358 219.312L94.7874 219.911Z" fill="url(#paint3_linear_1_1142)"/>
<path d="M99.2594 201.299C102.058 196.937 101.178 189.615 97.02 182.643C94.4732 178.375 84.5971 164.573 64.3136 166.097C58.9459 166.505 55.0034 165.326 52.5869 162.603C48.8632 158.407 49.9222 151.84 50.1739 150.568C51.0662 146.023 48.641 142.368 47.556 141.005C46.1255 139.208 45.3634 136.782 45.6637 134.968C45.8564 133.798 46.5856 132.484 47.0699 131.616C47.5265 130.795 47.6966 130.487 47.5907 130.168C47.5088 129.979 47.4038 129.8 47.2782 129.637C46.7227 128.817 45.4242 126.899 45.702 124.499C45.9085 122.726 46.5699 121.711 47.2817 120.635C47.8025 119.845 48.3355 119.029 48.6427 117.93C49.2469 115.769 46.5595 113.988 43.4642 111.927C41.888 110.886 40.2596 109.797 38.994 108.614C35.1089 104.982 40.1242 99.6009 44.9746 94.395C45.9241 93.3761 46.8651 92.3658 47.7313 91.3781C53.132 85.2313 53.5764 80.824 54.066 71.4381C55.868 36.941 83.5173 14.6506 124.508 14.6506C150.374 14.6506 173.408 27.7739 186.136 49.7535C198.757 71.5613 198.488 98.1619 185.417 120.907C168.929 149.58 162.035 165.139 159.058 180.363C158.016 185.686 157.966 190.531 157.924 194.423C157.895 197.201 157.872 199.405 157.508 200.926L158.44 201.15C158.829 199.523 158.853 197.277 158.882 194.434C158.924 190.578 158.974 185.782 159.999 180.547C162.95 165.444 169.821 149.957 186.242 121.386C199.482 98.3476 199.753 71.3808 186.959 49.2744C174.064 26.9944 150.718 13.689 124.508 13.689C82.9653 13.689 54.941 36.3352 53.1095 71.3843C52.6303 80.5393 52.1998 84.8356 47.0091 90.7428C46.1411 91.7235 45.2159 92.7251 44.2732 93.7371C39.343 99.0281 33.7548 105.02 38.3396 109.311C39.6624 110.549 41.3255 111.653 42.933 112.722C45.6082 114.5 48.141 116.179 47.7192 117.668C47.4518 118.624 46.9796 119.343 46.4797 120.098C45.7436 121.22 44.9815 122.381 44.7437 124.379C44.4243 127.132 45.8634 129.257 46.4797 130.164C46.5404 130.251 46.5908 130.324 46.629 130.383C46.5543 130.557 46.3755 130.873 46.228 131.138C45.7071 132.065 44.9329 133.466 44.7142 134.801C44.3201 137.188 45.4797 139.932 46.7974 141.593C47.799 142.85 50.0402 146.221 49.2278 150.374C48.4604 154.286 48.7486 159.718 51.8665 163.229C54.4931 166.18 58.7046 167.474 64.3831 167.048C84.1214 165.554 93.7215 178.981 96.1919 183.13C100.105 189.688 101.013 196.779 98.4487 200.776L99.2594 201.299Z" fill="url(#paint4_linear_1_1142)"/>
<path d="M150.996 182.729C152.084 181.053 152.61 178.437 153.277 175.124C153.862 172.218 154.52 168.923 155.735 165.352C160.452 151.476 168.061 136.414 181.081 110.983C191.63 90.4199 190.955 66.7443 179.286 47.6601C167.521 28.4075 146.788 16.9177 123.82 16.9177C87.4962 16.9177 62.3155 36.7241 59.6698 67.3918C58.9945 75.2206 58.4789 79.22 54.1736 84.5284C53.4897 85.3755 52.7519 86.2382 52.0071 87.1096C47.9223 91.8885 43.2924 97.3061 47.0057 101.344C48.0595 102.489 49.3962 103.528 50.6878 104.529C52.8664 106.22 54.9253 107.815 54.6042 109.247C54.4115 110.115 54.0452 110.777 53.6581 111.483C53.0991 112.505 52.521 113.566 52.3665 115.278C52.1599 117.579 53.2918 119.414 53.8351 120.296C53.9226 120.425 54.0015 120.56 54.0712 120.699C54.0435 120.737 53.8386 121.181 53.6737 121.537C53.2935 122.362 52.771 123.49 52.6477 124.578C52.4394 126.413 53.198 128.779 54.5799 130.607C55.4184 131.715 57.3245 134.686 56.9322 138.367C56.6961 140.58 56.5207 146.133 59.9806 149.874C62.3381 152.436 65.9507 153.672 70.6831 153.549C81.8299 153.224 92.3466 158.602 98.8202 167.887C102.546 173.23 104.165 179.021 102.855 182.295L103.745 182.65C105.193 179.029 103.572 173.016 99.6066 167.333C92.9473 157.786 82.1094 152.306 70.657 152.578C66.2059 152.7 62.8571 151.571 60.6837 149.223C57.4911 145.768 57.663 140.543 57.8852 138.46C58.314 134.44 56.2516 131.218 55.3454 130.022C54.1025 128.38 53.4185 126.283 53.6008 124.681C53.7084 123.745 54.191 122.699 54.5434 121.933C54.9115 121.138 55.0955 120.739 54.9809 120.39C54.8922 120.178 54.7817 119.975 54.651 119.786C54.1302 118.93 53.1442 117.34 53.3213 115.357C53.4584 113.839 53.9636 112.915 54.5 111.938C54.901 111.204 55.3177 110.443 55.5416 109.45C55.9947 107.423 53.7032 105.645 51.278 103.764C50.0177 102.786 48.7122 101.776 47.7122 100.688C44.5753 97.2749 48.7243 92.4196 52.7467 87.7258C53.4984 86.8475 54.2414 85.9778 54.9306 85.122C59.4112 79.595 59.9441 75.4896 60.6368 67.463C63.2408 37.3334 88.0396 17.8655 123.827 17.8655C146.458 17.8655 166.88 29.1834 178.473 48.1427C189.967 66.9474 190.625 90.2724 180.244 110.537C167.191 136.004 159.575 151.094 154.836 165.043C153.603 168.671 152.926 171.997 152.343 174.938C151.697 178.149 151.187 180.687 150.197 182.21L150.996 182.729Z" fill="url(#paint5_linear_1_1142)"/>
<path d="M143.501 164.28C145.609 162.698 146.944 159.766 148.631 156.039C149.44 154.26 150.355 152.243 151.461 150.169L153.558 146.258C159.535 135.107 166.974 121.228 175.942 100.582C183.905 82.2509 182.329 62.3716 171.616 46.0405C160.981 29.8292 142.857 20.1499 123.133 20.1499C92.0585 20.1499 69.7265 37.125 66.2337 63.3958C65.357 69.9747 64.7424 73.627 61.3347 78.3243C60.8278 79.0187 60.2931 79.7408 59.741 80.4612C56.3454 84.9415 52.8369 89.5711 55.6649 93.3709C56.4548 94.4298 57.4703 95.4001 58.4529 96.3392C60.1264 97.9397 61.7062 99.4517 61.4892 100.837C61.3577 101.536 61.1396 102.216 60.8399 102.861C60.4563 103.781 60.0604 104.73 59.9841 106.168C59.8834 108.034 60.7392 109.582 61.1993 110.414C61.2985 110.577 61.3856 110.747 61.4597 110.922C61.391 111.253 61.2946 111.577 61.1715 111.891C60.9267 112.599 60.6212 113.481 60.5813 114.349C60.491 116.258 61.4371 118.312 62.352 119.603C63.036 120.567 64.6261 123.153 64.6348 126.356C64.6487 131.265 66.2684 139.571 76.9604 140.017C96.1554 140.821 107.247 158.442 107.255 163.893H108.214C108.214 158.22 96.7769 139.889 77.0004 139.07C67.1052 138.655 65.5983 130.93 65.5862 126.361C65.5757 122.889 63.8623 120.095 63.1262 119.058C62.0759 117.576 61.4649 115.791 61.5291 114.403C61.5638 113.672 61.8433 112.863 62.069 112.212C62.3207 111.486 62.4856 111.007 62.3607 110.629C62.2682 110.397 62.1573 110.173 62.0291 109.959C61.5881 109.159 60.8469 107.82 60.9337 106.227C61.0014 104.954 61.3486 104.121 61.7166 103.239C62.0469 102.52 62.286 101.762 62.4284 100.983C62.7235 99.1027 60.9666 97.4224 59.1074 95.6431C58.1526 94.7318 57.1665 93.7892 56.427 92.7928C54.0278 89.5728 57.3158 85.2348 60.4962 81.0375C61.0465 80.3102 61.5916 79.5915 62.1037 78.8833C65.6382 74.0089 66.3031 70.0685 67.1746 63.5208C70.6084 37.7499 92.5706 21.1012 123.133 21.1012C142.533 21.1012 160.358 30.619 170.814 46.5595C181.346 62.6146 182.895 82.1641 175.064 100.198C166.109 120.805 158.686 134.662 152.713 145.798L150.616 149.717C149.496 151.818 148.572 153.851 147.758 155.644C146.126 159.239 144.836 162.079 142.925 163.514L143.501 164.28Z" fill="url(#paint6_linear_1_1142)"/>
<path d="M136 145.775C139.646 144.423 142.423 140.946 145.619 136.922C146.119 136.294 146.635 135.65 147.166 134.99C157.244 122.539 164.754 108.292 170.797 90.1542C176.046 74.3925 173.555 57.7281 163.964 44.4243C154.317 31.0425 139.184 23.3682 122.447 23.3682C96.6849 23.3682 77.1965 37.5017 72.7975 59.3772C71.8045 64.3175 71.0875 67.883 68.4904 72.1133C68.1658 72.6479 67.8256 73.1861 67.4818 73.7294C64.9785 77.6889 62.3901 81.7839 64.3206 85.3598C64.8518 86.3423 65.5531 87.2588 66.2302 88.1458C67.3846 89.6526 68.4748 91.076 68.3724 92.4178C68.3129 93.0405 68.1967 93.6563 68.0252 94.2579C67.7566 95.1745 67.6141 96.1235 67.6016 97.0787C67.6016 98.5298 68.1901 99.7484 68.579 100.55C68.6803 100.747 68.7707 100.948 68.8498 101.154C68.9036 101.318 68.8064 101.823 68.7265 102.229C68.5814 102.855 68.5103 103.496 68.5148 104.138C68.5755 105.501 69.1623 107.128 70.124 108.603C71.2623 110.346 72.0195 112.309 72.3461 114.365C73.3547 121.482 77.0194 125.557 83.2378 126.498C93.1938 128.012 102.81 134.454 111.814 145.626L112.561 145.025C103.4 133.652 93.5861 127.101 83.3802 125.554C77.6305 124.686 74.2384 120.867 73.2957 114.233C72.9474 112.039 72.1405 109.944 70.9278 108.084C70.0598 106.767 69.5251 105.279 69.473 104.092C69.4738 103.524 69.539 102.958 69.6674 102.404C69.7942 101.759 69.8931 101.248 69.7595 100.842C69.6687 100.596 69.5632 100.356 69.4435 100.123C69.0703 99.3527 68.5599 98.2955 68.5599 97.0648C68.5726 96.1898 68.7052 95.3207 68.954 94.4818C69.1405 93.8263 69.2672 93.1552 69.3324 92.4769C69.4626 90.7705 68.263 89.2047 66.994 87.5487C66.3378 86.6912 65.659 85.8128 65.1643 84.8893C63.5012 81.8099 65.9368 77.9562 68.2891 74.2293C68.6363 73.6808 68.9835 73.1392 69.3064 72.6028C71.9902 68.2319 72.7211 64.5917 73.7349 59.5525C78.0385 38.1474 97.1588 24.3142 122.444 24.3142C138.868 24.3142 153.718 31.8444 163.183 44.9711C172.592 58.0215 175.034 74.3751 169.882 89.8366C163.88 107.876 156.429 122.027 146.421 134.384C145.887 135.045 145.369 135.691 144.869 136.323C141.628 140.399 139.068 143.614 135.669 144.876L136 145.775Z" fill="url(#paint7_linear_1_1142)"/>
<path d="M128.523 127.229C134.007 126.422 138.649 123.183 142.849 119.803C154.45 110.466 162.332 96.6118 165.651 79.7148C166.932 73.2654 166.763 66.612 165.157 60.2359C163.551 53.8597 160.548 47.9201 156.365 42.8465C147.859 32.5181 135.252 26.5935 121.76 26.5935C101.422 26.5935 84.7829 37.8767 79.37 55.3483L78.9065 56.8533C77.9204 60.0733 77.0663 62.8525 75.6428 65.9302L75.2956 66.6853C73.6516 70.2265 71.9555 73.8718 72.9746 77.321C73.2734 78.256 73.6317 79.171 74.0474 80.0602C74.6568 81.4385 75.2331 82.7421 75.2626 84.0163C75.2765 84.577 75.2487 85.0838 75.221 85.5942C75.1599 86.3933 75.1599 87.1958 75.221 87.9949C75.313 89.052 75.6845 89.9755 75.9831 90.7185C76.0837 90.965 76.174 91.1889 76.2383 91.3851C76.3245 91.7623 76.3618 92.1491 76.3494 92.536C76.3482 93.009 76.3841 93.4815 76.457 93.949C76.7105 95.3602 77.3771 96.7142 77.8927 97.5943C78.7727 99.118 79.5024 100.724 80.0714 102.389C81.9289 107.93 85.0033 111.388 89.4683 112.96C95.461 115.071 101.034 118.527 105.96 121.579C110.03 124.115 113.55 126.295 116.487 127.212L116.772 126.295C113.955 125.427 110.481 123.264 106.457 120.767C101.499 117.691 95.8777 114.203 89.7912 112.059C85.6248 110.591 82.7413 107.329 80.9845 102.088C80.3958 100.362 79.64 98.6967 78.7277 97.1169C78.252 96.2976 77.6357 95.053 77.4083 93.7788C77.3446 93.3601 77.3138 92.937 77.3163 92.5134C77.3306 92.0315 77.2768 91.5499 77.1566 91.083C77.0872 90.8695 76.983 90.6265 76.8806 90.3574C76.6046 89.6752 76.2626 88.8246 76.1862 87.9116C76.1295 87.157 76.1295 86.3992 76.1862 85.6445C76.2157 85.1099 76.2452 84.577 76.2296 83.9902C76.1914 82.5252 75.5786 81.1382 74.9293 79.6696C74.5308 78.8187 74.187 77.9432 73.8999 77.0485C72.9832 73.9499 74.5943 70.4626 76.1688 67.088L76.516 66.3312C77.9691 63.1944 78.8301 60.3858 79.8283 57.131L80.2901 55.6278C85.5762 38.5693 101.855 27.5465 121.763 27.5465C134.969 27.5465 147.312 33.3443 155.629 43.4506C159.722 48.4147 162.66 54.2264 164.231 60.4651C165.801 66.7039 165.966 73.2137 164.712 79.5238C161.441 96.1882 153.674 109.858 142.252 119.051C138.156 122.35 133.643 125.502 128.386 126.274L128.523 127.229Z" fill="url(#paint8_linear_1_1142)"/>
<path d="M121.072 108.662C142.811 108.662 160.497 90.9772 160.497 69.2406C160.497 47.504 142.811 29.8188 121.072 29.8188C99.334 29.8188 81.6476 47.504 81.6476 69.2406C81.6476 90.9772 99.334 108.662 121.072 108.662ZM121.072 30.7771C142.283 30.7771 159.539 48.0317 159.539 69.2406C159.539 90.4495 142.283 107.704 121.072 107.704C99.8618 107.704 82.6059 90.4495 82.6059 69.2406C82.6059 48.0317 99.8618 30.7771 121.072 30.7771Z" fill="url(#paint9_linear_1_1142)"/>
</g>
</g>
<path d="M80.5277 228.729L104.494 143.858H123.642L147.732 228.729H131.919L126.731 209.58H100.788L95.7228 228.729H80.5277ZM103.753 196.979H123.766L117.342 171.407C117.177 170.748 116.93 169.925 116.601 168.936C116.354 167.866 116.065 166.713 115.736 165.477C115.489 164.242 115.201 163.007 114.871 161.771C114.624 160.453 114.377 159.259 114.13 158.189H113.389C113.142 159.506 112.812 161.03 112.4 162.759C111.989 164.407 111.577 166.054 111.165 167.701C110.836 169.266 110.547 170.501 110.3 171.407L103.753 196.979ZM155.373 228.729V143.858H170.321V228.729H155.373Z" fill="#E4E4E4"/>
<defs>
<linearGradient id="paint0_linear_1_1142" x1="114.448" y1="275.676" x2="114.448" y2="0.791504" gradientUnits="userSpaceOnUse">
<stop offset="0.04" stop-color="white"/>
<stop offset="0.05" stop-color="#FDFDFD"/>
<stop offset="0.14" stop-color="#CCCCCC"/>
<stop offset="0.24" stop-color="#A1A1A1"/>
<stop offset="0.34" stop-color="#7D7D7D"/>
<stop offset="0.45" stop-color="#5F5F5F"/>
<stop offset="0.57" stop-color="#484848"/>
<stop offset="0.69" stop-color="#383838"/>
<stop offset="0.82" stop-color="#2E2E2E"/>
<stop offset="1" stop-color="#2B2B2B"/>
</linearGradient>
<linearGradient id="paint1_linear_1_1142" x1="114.935" y1="257.094" x2="114.935" y2="4.01685" gradientUnits="userSpaceOnUse">
<stop offset="0.04" stop-color="white"/>
<stop offset="0.05" stop-color="#FDFDFD"/>
<stop offset="0.14" stop-color="#CCCCCC"/>
<stop offset="0.24" stop-color="#A1A1A1"/>
<stop offset="0.34" stop-color="#7D7D7D"/>
<stop offset="0.45" stop-color="#5F5F5F"/>
<stop offset="0.57" stop-color="#484848"/>
<stop offset="0.69" stop-color="#383838"/>
<stop offset="0.82" stop-color="#2E2E2E"/>
<stop offset="1" stop-color="#2B2B2B"/>
</linearGradient>
<linearGradient id="paint2_linear_1_1142" x1="115.434" y1="238.506" x2="115.434" y2="7.24194" gradientUnits="userSpaceOnUse">
<stop offset="0.04" stop-color="white"/>
<stop offset="0.05" stop-color="#FDFDFD"/>
<stop offset="0.14" stop-color="#CCCCCC"/>
<stop offset="0.24" stop-color="#A1A1A1"/>
<stop offset="0.34" stop-color="#7D7D7D"/>
<stop offset="0.45" stop-color="#5F5F5F"/>
<stop offset="0.57" stop-color="#484848"/>
<stop offset="0.69" stop-color="#383838"/>
<stop offset="0.82" stop-color="#2E2E2E"/>
<stop offset="1" stop-color="#2B2B2B"/>
</linearGradient>
<linearGradient id="paint3_linear_1_1142" x1="115.951" y1="219.911" x2="115.951" y2="10.4671" gradientUnits="userSpaceOnUse">
<stop offset="0.04" stop-color="white"/>
<stop offset="0.05" stop-color="#FDFDFD"/>
<stop offset="0.14" stop-color="#CCCCCC"/>
<stop offset="0.24" stop-color="#A1A1A1"/>
<stop offset="0.34" stop-color="#7D7D7D"/>
<stop offset="0.45" stop-color="#5F5F5F"/>
<stop offset="0.57" stop-color="#484848"/>
<stop offset="0.69" stop-color="#383838"/>
<stop offset="0.82" stop-color="#2E2E2E"/>
<stop offset="1" stop-color="#2B2B2B"/>
</linearGradient>
<linearGradient id="paint4_linear_1_1142" x1="116.501" y1="201.299" x2="116.501" y2="13.6924" gradientUnits="userSpaceOnUse">
<stop offset="0.04" stop-color="white"/>
<stop offset="0.05" stop-color="#FDFDFD"/>
<stop offset="0.14" stop-color="#CCCCCC"/>
<stop offset="0.24" stop-color="#A1A1A1"/>
<stop offset="0.34" stop-color="#7D7D7D"/>
<stop offset="0.45" stop-color="#5F5F5F"/>
<stop offset="0.57" stop-color="#484848"/>
<stop offset="0.69" stop-color="#383838"/>
<stop offset="0.82" stop-color="#2E2E2E"/>
<stop offset="1" stop-color="#2B2B2B"/>
</linearGradient>
<linearGradient id="paint5_linear_1_1142" x1="117.093" y1="182.729" x2="117.093" y2="16.9177" gradientUnits="userSpaceOnUse">
<stop offset="0.04" stop-color="white"/>
<stop offset="0.05" stop-color="#FDFDFD"/>
<stop offset="0.14" stop-color="#CCCCCC"/>
<stop offset="0.24" stop-color="#A1A1A1"/>
<stop offset="0.34" stop-color="#7D7D7D"/>
<stop offset="0.45" stop-color="#5F5F5F"/>
<stop offset="0.57" stop-color="#484848"/>
<stop offset="0.69" stop-color="#383838"/>
<stop offset="0.82" stop-color="#2E2E2E"/>
<stop offset="1" stop-color="#2B2B2B"/>
</linearGradient>
<linearGradient id="paint6_linear_1_1142" x1="117.795" y1="164.28" x2="117.795" y2="20.143" gradientUnits="userSpaceOnUse">
<stop offset="0.04" stop-color="white"/>
<stop offset="0.05" stop-color="#FDFDFD"/>
<stop offset="0.14" stop-color="#CCCCCC"/>
<stop offset="0.24" stop-color="#A1A1A1"/>
<stop offset="0.34" stop-color="#7D7D7D"/>
<stop offset="0.45" stop-color="#5F5F5F"/>
<stop offset="0.57" stop-color="#484848"/>
<stop offset="0.69" stop-color="#383838"/>
<stop offset="0.82" stop-color="#2E2E2E"/>
<stop offset="1" stop-color="#2B2B2B"/>
</linearGradient>
<linearGradient id="paint7_linear_1_1142" x1="118.571" y1="145.775" x2="118.571" y2="23.3682" gradientUnits="userSpaceOnUse">
<stop offset="0.04" stop-color="white"/>
<stop offset="0.05" stop-color="#FDFDFD"/>
<stop offset="0.14" stop-color="#CCCCCC"/>
<stop offset="0.24" stop-color="#A1A1A1"/>
<stop offset="0.34" stop-color="#7D7D7D"/>
<stop offset="0.45" stop-color="#5F5F5F"/>
<stop offset="0.57" stop-color="#484848"/>
<stop offset="0.69" stop-color="#383838"/>
<stop offset="0.82" stop-color="#2E2E2E"/>
<stop offset="1" stop-color="#2B2B2B"/>
</linearGradient>
<linearGradient id="paint8_linear_1_1142" x1="119.581" y1="127.229" x2="119.581" y2="26.5935" gradientUnits="userSpaceOnUse">
<stop offset="0.04" stop-color="white"/>
<stop offset="0.05" stop-color="#FDFDFD"/>
<stop offset="0.14" stop-color="#CCCCCC"/>
<stop offset="0.24" stop-color="#A1A1A1"/>
<stop offset="0.34" stop-color="#7D7D7D"/>
<stop offset="0.45" stop-color="#5F5F5F"/>
<stop offset="0.57" stop-color="#484848"/>
<stop offset="0.69" stop-color="#383838"/>
<stop offset="0.82" stop-color="#2E2E2E"/>
<stop offset="1" stop-color="#2B2B2B"/>
</linearGradient>
<linearGradient id="paint9_linear_1_1142" x1="121.072" y1="108.662" x2="121.072" y2="29.8188" gradientUnits="userSpaceOnUse">
<stop offset="0.04" stop-color="white"/>
<stop offset="0.05" stop-color="#FDFDFD"/>
<stop offset="0.14" stop-color="#CCCCCC"/>
<stop offset="0.24" stop-color="#A1A1A1"/>
<stop offset="0.34" stop-color="#7D7D7D"/>
<stop offset="0.45" stop-color="#5F5F5F"/>
<stop offset="0.57" stop-color="#484848"/>
<stop offset="0.69" stop-color="#383838"/>
<stop offset="0.82" stop-color="#2E2E2E"/>
<stop offset="1" stop-color="#2B2B2B"/>
</linearGradient>
<clipPath id="clip0_1_1142">
<rect width="227.703" height="274.885" fill="white" transform="matrix(-1 0 0 1 228.3 0.791504)"/>
</clipPath>
</defs>
</svg>
