<svg width="402" height="288" viewBox="0 0 402 288" fill="none" xmlns="http://www.w3.org/2000/svg">
<path fill-rule="evenodd" clip-rule="evenodd" d="M213.985 201.634C189.331 180.696 173.688 149.471 173.688 114.592C173.688 93.9245 179.18 74.5399 188.786 57.8184C213.44 78.7558 229.084 109.981 229.084 144.86C229.084 165.527 223.591 184.912 213.985 201.634Z" fill="#D63F40"/>
<path fill-rule="evenodd" clip-rule="evenodd" d="M287.835 228.738C350.875 228.738 401.98 177.633 401.98 114.593C401.98 51.5519 350.875 0.447266 287.835 0.447266C245.462 0.447266 208.481 23.5359 188.788 57.8187C168.882 40.9134 143.102 30.7148 114.94 30.7148C51.8995 30.7148 0.794922 81.8194 0.794922 144.86C0.794922 207.901 51.8995 259.005 114.94 259.005C157.313 259.005 194.294 235.917 213.987 201.634C233.893 218.539 259.673 228.738 287.835 228.738ZM213.987 201.634C223.593 184.912 229.086 165.528 229.086 144.86C229.086 109.981 213.442 78.7562 188.788 57.8187C179.182 74.5403 173.689 93.925 173.689 114.593C173.689 149.471 189.333 180.697 213.987 201.634Z" fill="#F0EFEF"/>
<path d="M209.919 287.238V276.162H207.943V273.562H209.919V271.82C209.919 271.213 210.014 270.641 210.205 270.104C210.413 269.549 210.768 269.098 211.271 268.752C211.774 268.405 212.476 268.232 213.377 268.232C213.637 268.232 213.897 268.249 214.157 268.284C214.434 268.318 214.694 268.37 214.937 268.44C215.18 268.492 215.388 268.552 215.561 268.622V270.832H214.261C213.88 270.832 213.585 270.936 213.377 271.144C213.186 271.334 213.091 271.62 213.091 272.002V273.562H215.561V276.162H213.091V287.238H209.919ZM215.682 287.238L222.624 269.402H226.888L233.856 287.238H230.19L228.76 283.442H220.596L219.166 287.238H215.682ZM221.662 280.582H227.668L225.874 275.746C225.804 275.572 225.718 275.356 225.614 275.096C225.527 274.818 225.432 274.524 225.328 274.212C225.224 273.882 225.12 273.553 225.016 273.224C224.912 272.894 224.816 272.6 224.73 272.34H224.6C224.496 272.686 224.366 273.085 224.21 273.536C224.071 273.986 223.932 274.411 223.794 274.81C223.655 275.208 223.542 275.52 223.456 275.746L221.662 280.582ZM235.961 287.238V269.402H239.341V287.238H235.961ZM243.013 287.238V273.562H245.665L245.925 275.72H246.107C246.281 275.286 246.489 274.888 246.731 274.524C246.991 274.142 247.321 273.839 247.719 273.614C248.118 273.371 248.603 273.25 249.175 273.25C249.453 273.25 249.704 273.276 249.929 273.328C250.172 273.38 250.354 273.432 250.475 273.484V276.474H249.513C248.976 276.474 248.499 276.552 248.083 276.708C247.667 276.846 247.312 277.072 247.017 277.384C246.74 277.696 246.532 278.086 246.393 278.554C246.255 279.022 246.185 279.568 246.185 280.192V287.238H243.013Z" fill="black"/>
<path d="M210.249 179.402C210.278 179.127 210.524 178.928 210.799 178.957L215.274 179.434C215.548 179.463 215.747 179.709 215.718 179.984C215.689 180.259 215.442 180.457 215.168 180.428L211.19 180.005L210.767 183.982C210.737 184.257 210.491 184.456 210.217 184.426C209.942 184.397 209.743 184.151 209.772 183.876L210.249 179.402ZM225.659 233.702L225.441 233.252L225.659 233.702ZM219.846 217.658L219.588 217.23L219.846 217.658ZM233.072 261.674C233.072 263.146 231.878 264.34 230.405 264.34C228.933 264.34 227.739 263.146 227.739 261.674C227.739 260.201 228.933 259.007 230.405 259.007C231.878 259.007 233.072 260.201 233.072 261.674ZM230.34 260.584C230.449 260.33 230.744 260.213 230.997 260.322C231.251 260.431 231.368 260.725 231.259 260.979L230.34 260.584ZM232.693 257.272C232.602 257.532 232.317 257.67 232.056 257.58C231.795 257.489 231.657 257.204 231.748 256.943L232.693 257.272ZM232.361 255.087C232.443 254.824 232.724 254.677 232.987 254.76C233.251 254.842 233.398 255.123 233.315 255.386L232.361 255.087ZM234.393 251.568C234.326 251.835 234.054 251.997 233.786 251.93C233.518 251.862 233.356 251.59 233.424 251.322L234.393 251.568ZM233.879 249.42C233.94 249.151 234.207 248.981 234.477 249.042C234.746 249.103 234.915 249.371 234.855 249.64L233.879 249.42ZM235.628 245.754C235.581 246.026 235.322 246.208 235.05 246.161C234.778 246.114 234.596 245.856 234.643 245.583L235.628 245.754ZM234.952 243.651C234.992 243.378 235.246 243.189 235.519 243.229C235.793 243.269 235.982 243.523 235.941 243.797L234.952 243.651ZM236.417 239.86C236.391 240.135 236.147 240.337 235.872 240.311C235.597 240.286 235.395 240.042 235.421 239.767L236.417 239.86ZM235.577 237.819C235.595 237.543 235.833 237.334 236.108 237.352C236.384 237.371 236.593 237.609 236.574 237.884L235.577 237.819ZM236.715 233.921C236.714 234.198 236.489 234.421 236.213 234.42C235.937 234.419 235.714 234.194 235.715 233.918L236.715 233.921ZM235.687 231.968C235.678 231.692 235.894 231.461 236.17 231.452C236.446 231.443 236.677 231.66 236.686 231.936L235.687 231.968ZM236.391 227.966C236.424 228.24 236.229 228.489 235.955 228.522C235.68 228.555 235.431 228.36 235.398 228.086L236.391 227.966ZM235.114 226.167C235.066 225.895 235.247 225.636 235.519 225.587C235.791 225.539 236.051 225.72 236.099 225.992L235.114 226.167ZM235.116 222.094C235.205 222.355 235.066 222.639 234.805 222.729C234.544 222.819 234.259 222.679 234.17 222.418L235.116 222.094ZM233.452 220.645C233.334 220.396 233.44 220.098 233.689 219.979C233.938 219.86 234.237 219.966 234.355 220.216L233.452 220.645ZM232.012 216.857C232.212 217.048 232.22 217.364 232.03 217.564C231.84 217.764 231.524 217.773 231.323 217.582L232.012 216.857ZM229.849 216.513C229.604 216.384 229.511 216.082 229.64 215.838C229.769 215.593 230.071 215.5 230.315 215.629L229.849 216.513ZM226.235 214.82C226.511 214.801 226.749 215.009 226.769 215.284C226.788 215.56 226.58 215.799 226.305 215.818L226.235 214.82ZM224.476 216.134C224.209 216.205 223.935 216.046 223.864 215.78C223.793 215.513 223.951 215.239 224.218 215.167L224.476 216.134ZM220.485 216.714C220.728 216.581 221.031 216.67 221.164 216.913C221.296 217.155 221.207 217.459 220.965 217.591L220.485 216.714ZM219.306 218.612C219.081 218.773 218.769 218.722 218.608 218.498C218.447 218.273 218.498 217.961 218.722 217.8L219.306 218.612ZM215.788 220.693C215.953 220.472 216.266 220.427 216.487 220.592C216.709 220.758 216.754 221.071 216.589 221.292L215.788 220.693ZM215.554 222.908C215.422 223.15 215.118 223.24 214.876 223.108C214.633 222.976 214.543 222.672 214.675 222.43L215.554 222.908ZM213.249 226.292C213.305 226.021 213.57 225.848 213.84 225.904C214.11 225.96 214.284 226.225 214.228 226.495L213.249 226.292ZM213.995 228.387C213.985 228.663 213.753 228.879 213.477 228.869C213.201 228.86 212.986 228.628 212.995 228.352L213.995 228.387ZM213.762 232.465C213.643 232.216 213.749 231.918 213.998 231.799C214.247 231.68 214.545 231.785 214.664 232.034L213.762 232.465ZM215.707 233.505C215.906 233.697 215.911 234.013 215.719 234.212C215.527 234.41 215.211 234.416 215.012 234.224L215.707 233.505ZM218.925 235.863C218.649 235.844 218.441 235.605 218.46 235.33C218.479 235.054 218.717 234.846 218.993 234.865L218.925 235.863ZM220.868 234.773C221.141 234.731 221.396 234.919 221.438 235.192C221.479 235.465 221.291 235.72 221.018 235.762L220.868 234.773ZM224.938 234.581C224.684 234.69 224.39 234.573 224.281 234.32C224.171 234.066 224.288 233.772 224.542 233.663L224.938 234.581ZM226.291 232.812C226.532 232.678 226.837 232.765 226.971 233.006C227.105 233.247 227.018 233.552 226.776 233.686L226.291 232.812ZM229.96 231.318C229.765 231.513 229.448 231.513 229.253 231.318C229.058 231.123 229.058 230.806 229.253 230.611L229.96 231.318ZM230.44 229.21C230.6 228.985 230.912 228.933 231.137 229.093C231.362 229.253 231.415 229.565 231.254 229.79L230.44 229.21ZM232.994 226.199C232.916 226.463 232.637 226.614 232.373 226.535C232.108 226.456 231.957 226.178 232.036 225.913L232.994 226.199ZM232.435 224.104C232.475 223.831 232.73 223.642 233.003 223.683C233.276 223.724 233.464 223.978 233.424 224.251L232.435 224.104ZM233.552 220.3C233.571 220.576 233.364 220.814 233.088 220.834C232.813 220.853 232.574 220.645 232.555 220.37L233.552 220.3ZM232.345 218.498C232.303 218.225 232.491 217.97 232.764 217.928C233.037 217.887 233.292 218.075 233.333 218.348L232.345 218.498ZM232.494 214.532C232.569 214.798 232.415 215.074 232.149 215.149C231.883 215.224 231.607 215.069 231.532 214.804L232.494 214.532ZM230.972 212.988C230.885 212.726 231.026 212.443 231.288 212.356C231.55 212.268 231.833 212.409 231.921 212.671L230.972 212.988ZM230.542 209.035C230.649 209.29 230.53 209.583 230.275 209.69C230.021 209.797 229.728 209.678 229.62 209.424L230.542 209.035ZM228.85 207.674C228.735 207.423 228.845 207.126 229.096 207.011C229.347 206.896 229.644 207.006 229.759 207.257L228.85 207.674ZM228.049 203.778C228.177 204.022 228.083 204.325 227.838 204.453C227.593 204.58 227.291 204.486 227.163 204.241L228.049 203.778ZM226.257 202.555C226.124 202.313 226.212 202.009 226.454 201.876C226.696 201.742 227 201.83 227.133 202.072L226.257 202.555ZM225.199 198.719C225.341 198.956 225.265 199.263 225.028 199.406C224.791 199.548 224.484 199.472 224.342 199.235L225.199 198.719ZM223.34 197.602C223.194 197.368 223.265 197.059 223.499 196.913C223.734 196.766 224.042 196.838 224.188 197.072L223.34 197.602ZM222.09 193.823C222.243 194.053 222.181 194.363 221.951 194.516C221.721 194.669 221.411 194.607 221.258 194.378L222.09 193.823ZM220.182 192.786C220.025 192.559 220.083 192.247 220.311 192.091C220.539 191.935 220.85 191.993 221.006 192.221L220.182 192.786ZM218.782 189.061C218.944 189.285 218.893 189.598 218.669 189.759C218.445 189.921 218.133 189.87 217.971 189.647L218.782 189.061ZM216.84 188.097C216.676 187.874 216.723 187.561 216.945 187.397C217.167 187.233 217.48 187.28 217.644 187.502L216.84 188.097ZM215.318 184.419C215.487 184.638 215.446 184.952 215.227 185.12C215.008 185.289 214.694 185.248 214.526 185.029L215.318 184.419ZM213.344 183.509C213.174 183.291 213.212 182.977 213.429 182.807C213.647 182.636 213.961 182.674 214.131 182.891L213.344 183.509ZM211.734 179.882C211.907 180.097 211.873 180.412 211.659 180.585C211.444 180.758 211.129 180.725 210.955 180.51L211.734 179.882ZM229.95 261.467C230.082 261.176 230.212 260.882 230.34 260.584L231.259 260.979C231.128 261.283 230.995 261.584 230.86 261.88L229.95 261.467ZM231.748 256.943C231.96 256.335 232.164 255.715 232.361 255.087L233.315 255.386C233.115 256.024 232.908 256.653 232.693 257.272L231.748 256.943ZM233.424 251.322C233.583 250.693 233.735 250.058 233.879 249.42L234.855 249.64C234.709 250.287 234.555 250.93 234.393 251.568L233.424 251.322ZM234.643 245.583C234.754 244.94 234.857 244.295 234.952 243.651L235.941 243.797C235.845 244.449 235.741 245.102 235.628 245.754L234.643 245.583ZM235.421 239.767C235.482 239.114 235.534 238.464 235.577 237.819L236.574 237.884C236.531 238.539 236.479 239.198 236.417 239.86L235.421 239.767ZM235.715 233.918C235.717 233.259 235.708 232.608 235.687 231.968L236.686 231.936C236.708 232.588 236.717 233.251 236.715 233.921L235.715 233.918ZM235.398 228.086C235.319 227.428 235.224 226.788 235.114 226.167L236.099 225.992C236.213 226.632 236.31 227.291 236.391 227.966L235.398 228.086ZM234.17 222.418C233.954 221.789 233.715 221.197 233.452 220.645L234.355 220.216C234.636 220.805 234.889 221.433 235.116 222.094L234.17 222.418ZM231.323 217.582C230.868 217.15 230.377 216.792 229.849 216.513L230.315 215.629C230.931 215.953 231.496 216.367 232.012 216.857L231.323 217.582ZM226.305 215.818C225.73 215.858 225.121 215.961 224.476 216.134L224.218 215.167C224.918 214.98 225.591 214.865 226.235 214.82L226.305 215.818ZM220.965 217.591C220.683 217.746 220.396 217.91 220.104 218.086L219.588 217.23C219.891 217.047 220.19 216.875 220.485 216.714L220.965 217.591ZM220.104 218.086C219.829 218.252 219.563 218.427 219.306 218.612L218.722 217.8C219.001 217.6 219.29 217.409 219.588 217.23L220.104 218.086ZM216.589 221.292C216.202 221.81 215.856 222.351 215.554 222.908L214.675 222.43C215 221.832 215.371 221.25 215.788 220.693L216.589 221.292ZM214.228 226.495C214.094 227.137 214.017 227.772 213.995 228.387L212.995 228.352C213.019 227.677 213.104 226.986 213.249 226.292L214.228 226.495ZM214.664 232.034C214.933 232.597 215.281 233.092 215.707 233.505L215.012 234.224C214.492 233.721 214.077 233.125 213.762 232.465L214.664 232.034ZM218.993 234.865C219.561 234.903 220.185 234.877 220.868 234.773L221.018 235.762C220.271 235.875 219.574 235.907 218.925 235.863L218.993 234.865ZM224.542 233.663C224.835 233.536 225.135 233.4 225.441 233.252L225.876 234.152C225.557 234.306 225.244 234.449 224.938 234.581L224.542 233.663ZM225.441 233.252C225.735 233.11 226.018 232.963 226.291 232.812L226.776 233.686C226.486 233.847 226.186 234.003 225.876 234.152L225.441 233.252ZM229.253 230.611C229.697 230.166 230.092 229.699 230.44 229.21L231.254 229.79C230.874 230.324 230.443 230.834 229.96 231.318L229.253 230.611ZM232.036 225.913C232.21 225.329 232.342 224.726 232.435 224.104L233.424 224.251C233.324 224.917 233.182 225.567 232.994 226.199L232.036 225.913ZM232.555 220.37C232.512 219.757 232.441 219.132 232.345 218.498L233.333 218.348C233.433 219.007 233.507 219.658 233.552 220.3L232.555 220.37ZM231.532 214.804C231.363 214.203 231.176 213.598 230.972 212.988L231.921 212.671C232.129 213.295 232.321 213.916 232.494 214.532L231.532 214.804ZM229.62 209.424C229.375 208.841 229.118 208.258 228.85 207.674L229.759 207.257C230.031 207.85 230.292 208.443 230.542 209.035L229.62 209.424ZM227.163 204.241C226.868 203.677 226.566 203.115 226.257 202.555L227.133 202.072C227.445 202.638 227.751 203.207 228.049 203.778L227.163 204.241ZM224.342 199.235C224.012 198.686 223.677 198.141 223.34 197.602L224.188 197.072C224.528 197.616 224.865 198.166 225.199 198.719L224.342 199.235ZM221.258 194.378C220.899 193.839 220.54 193.309 220.182 192.786L221.006 192.221C221.367 192.747 221.728 193.281 222.09 193.823L221.258 194.378ZM217.971 189.647C217.589 189.117 217.211 188.6 216.84 188.097L217.644 187.502C218.018 188.009 218.398 188.529 218.782 189.061L217.971 189.647ZM214.526 185.029C214.116 184.497 213.721 183.989 213.344 183.509L214.131 182.891C214.51 183.374 214.907 183.884 215.318 184.419L214.526 185.029ZM210.955 180.51C210.739 180.242 210.539 179.995 210.357 179.769L211.135 179.14C211.317 179.366 211.517 179.614 211.734 179.882L210.955 180.51Z" fill="#868B8E"/>
<path d="M84.3239 163.506V144.298H95.5799V146.09H86.3679V152.782H94.5999V154.574H86.3679V161.714H95.6919V163.506H84.3239ZM101.311 163.842C100.77 163.842 100.275 163.758 99.8274 163.59C99.3794 163.441 98.9874 163.208 98.6514 162.89C98.3341 162.573 98.0821 162.162 97.8954 161.658C97.7087 161.154 97.6154 160.557 97.6154 159.866C97.6154 159.082 97.7554 158.392 98.0354 157.794C98.3341 157.178 98.7914 156.665 99.4074 156.254C100.023 155.825 100.807 155.498 101.759 155.274C102.73 155.05 103.878 154.938 105.203 154.938V152.67C105.203 152.092 105.119 151.606 104.951 151.214C104.802 150.822 104.541 150.524 104.167 150.318C103.794 150.113 103.281 150.01 102.627 150.01C101.899 150.01 101.339 150.15 100.947 150.43C100.574 150.692 100.313 151.037 100.163 151.466C100.033 151.896 99.9674 152.372 99.9674 152.894V153.174H98.2034C98.1847 153.081 98.1754 152.988 98.1754 152.894C98.1754 152.801 98.1754 152.698 98.1754 152.586C98.1754 151.56 98.3807 150.748 98.7914 150.15C99.2021 149.534 99.7527 149.096 100.443 148.834C101.153 148.573 101.937 148.442 102.795 148.442C103.673 148.442 104.429 148.582 105.063 148.862C105.698 149.124 106.183 149.562 106.519 150.178C106.874 150.776 107.051 151.578 107.051 152.586V161.266C107.051 161.602 107.117 161.845 107.247 161.994C107.378 162.144 107.546 162.218 107.751 162.218H108.731V163.394C108.489 163.506 108.227 163.6 107.947 163.674C107.667 163.768 107.369 163.814 107.051 163.814C106.622 163.814 106.286 163.712 106.043 163.506C105.801 163.301 105.623 163.03 105.511 162.694C105.418 162.358 105.353 161.994 105.315 161.602H105.147C104.905 162.032 104.597 162.424 104.223 162.778C103.85 163.114 103.421 163.376 102.935 163.562C102.45 163.749 101.909 163.842 101.311 163.842ZM101.759 162.246C102.151 162.246 102.553 162.162 102.963 161.994C103.374 161.826 103.747 161.574 104.083 161.238C104.419 160.884 104.69 160.454 104.895 159.95C105.101 159.428 105.203 158.83 105.203 158.158V156.366C103.803 156.385 102.683 156.525 101.843 156.786C101.022 157.048 100.434 157.43 100.079 157.934C99.7247 158.42 99.5474 159.008 99.5474 159.698C99.5474 160.277 99.6314 160.753 99.7994 161.126C99.9861 161.5 100.247 161.78 100.583 161.966C100.919 162.153 101.311 162.246 101.759 162.246ZM113.956 163.842C113.153 163.842 112.463 163.74 111.884 163.534C111.324 163.329 110.867 163.04 110.512 162.666C110.157 162.293 109.896 161.845 109.728 161.322C109.56 160.781 109.476 160.184 109.476 159.53C109.476 159.437 109.476 159.344 109.476 159.25C109.495 159.138 109.513 159.036 109.532 158.942H111.296C111.277 159.054 111.268 159.157 111.268 159.25C111.268 159.344 111.268 159.437 111.268 159.53C111.268 160.146 111.371 160.66 111.576 161.07C111.781 161.481 112.089 161.789 112.5 161.994C112.911 162.2 113.396 162.302 113.956 162.302C114.553 162.302 115.048 162.2 115.44 161.994C115.832 161.789 116.131 161.481 116.336 161.07C116.541 160.66 116.644 160.165 116.644 159.586C116.644 158.952 116.495 158.457 116.196 158.102C115.897 157.748 115.515 157.468 115.048 157.262C114.581 157.038 114.087 156.824 113.564 156.618C113.097 156.432 112.64 156.236 112.192 156.03C111.763 155.806 111.371 155.536 111.016 155.218C110.661 154.901 110.381 154.509 110.176 154.042C109.971 153.557 109.868 152.969 109.868 152.278C109.868 151.681 109.961 151.149 110.148 150.682C110.353 150.197 110.643 149.786 111.016 149.45C111.389 149.114 111.837 148.862 112.36 148.694C112.901 148.526 113.499 148.442 114.152 148.442C114.861 148.442 115.477 148.536 116 148.722C116.523 148.89 116.952 149.142 117.288 149.478C117.624 149.814 117.867 150.206 118.016 150.654C118.184 151.102 118.268 151.597 118.268 152.138C118.268 152.269 118.259 152.409 118.24 152.558C118.24 152.689 118.231 152.82 118.212 152.95H116.476V152.25C116.476 151.765 116.392 151.354 116.224 151.018C116.056 150.682 115.795 150.43 115.44 150.262C115.104 150.076 114.656 149.982 114.096 149.982C113.667 149.982 113.293 150.038 112.976 150.15C112.677 150.262 112.435 150.421 112.248 150.626C112.061 150.832 111.921 151.074 111.828 151.354C111.753 151.634 111.716 151.933 111.716 152.25C111.716 152.792 111.837 153.221 112.08 153.538C112.341 153.856 112.677 154.117 113.088 154.322C113.517 154.528 113.965 154.733 114.432 154.938C114.899 155.106 115.365 155.302 115.832 155.526C116.317 155.732 116.765 155.993 117.176 156.31C117.587 156.628 117.913 157.038 118.156 157.542C118.399 158.028 118.52 158.662 118.52 159.446C118.52 160.193 118.408 160.846 118.184 161.406C117.96 161.948 117.643 162.405 117.232 162.778C116.84 163.133 116.364 163.394 115.804 163.562C115.263 163.749 114.647 163.842 113.956 163.842ZM125.547 163.842C124.353 163.842 123.373 163.581 122.607 163.058C121.861 162.517 121.31 161.677 120.955 160.538C120.601 159.4 120.423 157.934 120.423 156.142C120.423 154.294 120.61 152.81 120.983 151.69C121.357 150.552 121.926 149.73 122.691 149.226C123.475 148.704 124.474 148.442 125.687 148.442C126.733 148.442 127.601 148.666 128.291 149.114C129.001 149.562 129.533 150.29 129.887 151.298C130.261 152.288 130.447 153.604 130.447 155.246V156.562H122.327C122.327 157.888 122.43 158.97 122.635 159.81C122.859 160.65 123.205 161.276 123.671 161.686C124.138 162.078 124.763 162.274 125.547 162.274C126.014 162.274 126.425 162.2 126.779 162.05C127.153 161.882 127.47 161.649 127.731 161.35C127.993 161.052 128.198 160.669 128.347 160.202C128.497 159.717 128.581 159.166 128.599 158.55H130.391C130.373 159.372 130.251 160.109 130.027 160.762C129.822 161.416 129.514 161.976 129.103 162.442C128.711 162.89 128.217 163.236 127.619 163.478C127.022 163.721 126.331 163.842 125.547 163.842ZM122.327 155.162H128.543C128.543 154.248 128.478 153.473 128.347 152.838C128.235 152.185 128.058 151.653 127.815 151.242C127.591 150.813 127.293 150.505 126.919 150.318C126.546 150.113 126.107 150.01 125.603 150.01C124.819 150.01 124.194 150.216 123.727 150.626C123.261 151.037 122.915 151.625 122.691 152.39C122.486 153.156 122.365 154.08 122.327 155.162Z" fill="#687075"/>
<path d="M279.301 117.174C278.461 117.174 277.668 117.081 276.921 116.894C276.193 116.726 275.558 116.427 275.017 115.998C274.476 115.569 274.046 114.99 273.729 114.262C273.43 113.534 273.281 112.61 273.281 111.49C273.281 111.397 273.281 111.313 273.281 111.238C273.281 111.145 273.281 111.051 273.281 110.958H275.325C275.325 111.051 275.325 111.154 275.325 111.266C275.325 111.359 275.325 111.453 275.325 111.546C275.325 112.442 275.465 113.17 275.745 113.73C276.044 114.29 276.482 114.71 277.061 114.99C277.658 115.251 278.386 115.382 279.245 115.382C279.637 115.382 280.02 115.345 280.393 115.27C280.785 115.195 281.149 115.074 281.485 114.906C281.84 114.719 282.148 114.486 282.409 114.206C282.67 113.926 282.876 113.581 283.025 113.17C283.174 112.759 283.249 112.283 283.249 111.742C283.249 111.089 283.109 110.538 282.829 110.09C282.568 109.642 282.204 109.278 281.737 108.998C281.289 108.699 280.776 108.438 280.197 108.214C279.637 107.971 279.049 107.747 278.433 107.542C277.817 107.337 277.229 107.103 276.669 106.842C276.109 106.562 275.596 106.235 275.129 105.862C274.662 105.47 274.289 104.994 274.009 104.434C273.748 103.855 273.617 103.155 273.617 102.334C273.617 101.494 273.748 100.766 274.009 100.15C274.289 99.5152 274.681 98.9926 275.185 98.5819C275.689 98.1526 276.286 97.8352 276.977 97.6299C277.686 97.4059 278.48 97.2939 279.357 97.2939C280.178 97.2939 280.925 97.3966 281.597 97.6019C282.288 97.7886 282.876 98.0966 283.361 98.5259C283.865 98.9366 284.248 99.4779 284.509 100.15C284.789 100.803 284.929 101.597 284.929 102.53V102.922H282.913V102.418C282.913 101.709 282.782 101.111 282.521 100.626C282.26 100.122 281.868 99.7392 281.345 99.4779C280.841 99.2166 280.206 99.0859 279.441 99.0859C278.676 99.0859 278.013 99.1886 277.453 99.3939C276.912 99.5992 276.482 99.9259 276.165 100.374C275.866 100.822 275.717 101.401 275.717 102.11C275.717 102.745 275.848 103.277 276.109 103.706C276.389 104.117 276.753 104.471 277.201 104.77C277.668 105.05 278.181 105.302 278.741 105.526C279.32 105.731 279.917 105.946 280.533 106.17C281.149 106.375 281.737 106.618 282.297 106.898C282.857 107.159 283.37 107.486 283.837 107.878C284.304 108.27 284.668 108.765 284.929 109.362C285.209 109.959 285.349 110.678 285.349 111.518C285.349 112.881 285.088 113.973 284.565 114.794C284.061 115.615 283.352 116.222 282.437 116.614C281.541 116.987 280.496 117.174 279.301 117.174ZM287.95 121.766V102.11H289.378L289.546 104.126H289.714C289.994 103.435 290.424 102.875 291.002 102.446C291.6 101.998 292.318 101.774 293.158 101.774C294.092 101.774 294.876 102.026 295.51 102.53C296.164 103.034 296.658 103.855 296.994 104.994C297.33 106.114 297.498 107.626 297.498 109.53C297.498 111.341 297.33 112.806 296.994 113.926C296.658 115.046 296.173 115.867 295.538 116.39C294.904 116.913 294.12 117.174 293.186 117.174C292.72 117.174 292.281 117.099 291.87 116.95C291.46 116.801 291.086 116.577 290.75 116.278C290.433 115.961 290.162 115.569 289.938 115.102H289.798V121.766H287.95ZM292.766 115.494C293.401 115.494 293.924 115.307 294.334 114.934C294.745 114.542 295.053 113.926 295.258 113.086C295.464 112.246 295.566 111.154 295.566 109.81V109.11C295.566 107.766 295.464 106.674 295.258 105.834C295.072 104.994 294.764 104.378 294.334 103.986C293.924 103.594 293.401 103.398 292.766 103.398C292.057 103.398 291.478 103.622 291.03 104.07C290.601 104.518 290.284 105.171 290.078 106.03C289.892 106.889 289.798 107.934 289.798 109.166V109.782C289.798 110.827 289.873 111.714 290.022 112.442C290.172 113.17 290.377 113.758 290.638 114.206C290.9 114.654 291.208 114.981 291.562 115.186C291.936 115.391 292.337 115.494 292.766 115.494ZM304.709 117.174C303.514 117.174 302.534 116.913 301.769 116.39C301.022 115.849 300.472 115.009 300.117 113.87C299.762 112.731 299.585 111.266 299.585 109.474C299.585 107.626 299.772 106.142 300.145 105.022C300.518 103.883 301.088 103.062 301.853 102.558C302.637 102.035 303.636 101.774 304.849 101.774C305.894 101.774 306.762 101.998 307.453 102.446C308.162 102.894 308.694 103.622 309.049 104.63C309.422 105.619 309.609 106.935 309.609 108.578V109.894H301.489C301.489 111.219 301.592 112.302 301.797 113.142C302.021 113.982 302.366 114.607 302.833 115.018C303.3 115.41 303.925 115.606 304.709 115.606C305.176 115.606 305.586 115.531 305.941 115.382C306.314 115.214 306.632 114.981 306.893 114.682C307.154 114.383 307.36 114.001 307.509 113.534C307.658 113.049 307.742 112.498 307.761 111.882H309.553C309.534 112.703 309.413 113.441 309.189 114.094C308.984 114.747 308.676 115.307 308.265 115.774C307.873 116.222 307.378 116.567 306.781 116.81C306.184 117.053 305.493 117.174 304.709 117.174ZM301.489 108.494H307.705C307.705 107.579 307.64 106.805 307.509 106.17C307.397 105.517 307.22 104.985 306.977 104.574C306.753 104.145 306.454 103.837 306.081 103.65C305.708 103.445 305.269 103.342 304.765 103.342C303.981 103.342 303.356 103.547 302.889 103.958C302.422 104.369 302.077 104.957 301.853 105.722C301.648 106.487 301.526 107.411 301.489 108.494ZM316.85 117.174C315.655 117.174 314.675 116.913 313.91 116.39C313.163 115.849 312.612 115.009 312.258 113.87C311.903 112.731 311.726 111.266 311.726 109.474C311.726 107.626 311.912 106.142 312.286 105.022C312.659 103.883 313.228 103.062 313.994 102.558C314.778 102.035 315.776 101.774 316.99 101.774C318.035 101.774 318.903 101.998 319.594 102.446C320.303 102.894 320.835 103.622 321.19 104.63C321.563 105.619 321.75 106.935 321.75 108.578V109.894H313.63C313.63 111.219 313.732 112.302 313.938 113.142C314.162 113.982 314.507 114.607 314.974 115.018C315.44 115.41 316.066 115.606 316.85 115.606C317.316 115.606 317.727 115.531 318.082 115.382C318.455 115.214 318.772 114.981 319.034 114.682C319.295 114.383 319.5 114.001 319.65 113.534C319.799 113.049 319.883 112.498 319.902 111.882H321.694C321.675 112.703 321.554 113.441 321.33 114.094C321.124 114.747 320.816 115.307 320.406 115.774C320.014 116.222 319.519 116.567 318.922 116.81C318.324 117.053 317.634 117.174 316.85 117.174ZM313.63 108.494H319.846C319.846 107.579 319.78 106.805 319.65 106.17C319.538 105.517 319.36 104.985 319.118 104.574C318.894 104.145 318.595 103.837 318.222 103.65C317.848 103.445 317.41 103.342 316.906 103.342C316.122 103.342 315.496 103.547 315.03 103.958C314.563 104.369 314.218 104.957 313.994 105.722C313.788 106.487 313.667 107.411 313.63 108.494ZM328.178 117.174C327.264 117.174 326.48 116.922 325.826 116.418C325.192 115.914 324.706 115.093 324.37 113.954C324.034 112.815 323.866 111.294 323.866 109.39C323.866 107.579 324.025 106.123 324.342 105.022C324.678 103.902 325.164 103.081 325.798 102.558C326.452 102.035 327.245 101.774 328.178 101.774C328.664 101.774 329.102 101.849 329.494 101.998C329.905 102.147 330.269 102.371 330.586 102.67C330.904 102.969 331.174 103.361 331.398 103.846H331.566V96.5939H333.386V116.838H331.986L331.79 114.822H331.622C331.361 115.513 330.932 116.082 330.334 116.53C329.737 116.959 329.018 117.174 328.178 117.174ZM328.57 115.522C329.298 115.522 329.877 115.298 330.306 114.85C330.736 114.402 331.053 113.758 331.258 112.918C331.464 112.059 331.566 111.014 331.566 109.782V109.166C331.566 108.121 331.492 107.234 331.342 106.506C331.193 105.778 330.978 105.19 330.698 104.742C330.437 104.294 330.12 103.967 329.746 103.762C329.392 103.557 329 103.454 328.57 103.454C327.954 103.454 327.432 103.65 327.002 104.042C326.592 104.415 326.284 105.022 326.078 105.862C325.873 106.702 325.77 107.794 325.77 109.138V109.838C325.77 111.163 325.873 112.246 326.078 113.086C326.284 113.926 326.592 114.542 327.002 114.934C327.432 115.326 327.954 115.522 328.57 115.522Z" fill="#687075"/>
</svg>
