<svg width="20" height="15" viewBox="0 0 20 15" fill="none" xmlns="http://www.w3.org/2000/svg">
<path d="M1 12.522H19C19.5523 12.522 20 12.9697 20 13.522C20 14.0348 19.614 14.4575 19.1166 14.5152L19 14.522H1C0.447715 14.522 0 14.0743 0 13.522C0 13.0091 0.38604 12.5865 0.883379 12.5287L1 12.522H19H1ZM0.99988 6.52197L18.9999 6.51981C19.5522 6.51974 20 6.9674 20 7.51969C20 8.03252 19.6141 8.45524 19.1167 8.51307L19.0001 8.51981L1.00012 8.52197C0.447836 8.52204 0 8.07438 0 7.52209C0 7.00926 0.385936 6.58654 0.88326 6.52871L0.99988 6.52197L18.9999 6.51981L0.99988 6.52197ZM1 0.521973H19C19.5523 0.521973 20 0.969688 20 1.52197C20 2.03481 19.614 2.45748 19.1166 2.51524L19 2.52197H1C0.447715 2.52197 0 2.07426 0 1.52197C0 1.00914 0.38604 0.586465 0.883379 0.5287L1 0.521973H19H1Z" fill="#202325"/>
</svg>
