<svg width="1441" height="180" viewBox="0 0 1441 180" fill="none" xmlns="http://www.w3.org/2000/svg">
<g opacity="0.1" clip-path="url(#clip0_366_526)">
<path d="M17.7114 194.011C35.0453 169.713 54.7635 149.147 84.7274 139.818C98.9468 135.379 108.462 123.563 112.758 108.658C122.102 76.147 109.644 50.0052 88.744 26.2008C63.9997 -1.95696 -1.74902 -13.9664 -29.0924 24.7211C-49.0468 52.9217 -75.037 66.7969 -108.566 61.4141C-115.762 61.4141 -121.562 61.4141 -127.361 61.4141C-150.344 61.7358 -171.115 68.0407 -182.714 89.2931C-194.828 111.468 -188.9 133.406 -174.723 152.428C-151.576 183.374 -131.891 216.755 -116.02 251.978C-100.576 286.29 -72.6098 291.523 -46.5552 265.96C-23.6581 243.4 -1.06166 220.303 17.7114 194.011Z" stroke="white" stroke-width="0.461385" stroke-linejoin="round"/>
<path d="M-95.0562 239.282C-102.07 230.072 -108.327 220.312 -113.765 210.095C-125.349 188.793 -136.533 167.283 -147.316 145.566C-162.351 115.263 -151.332 96.8419 -117.846 95.1262C-110.607 94.7402 -103.39 93.9897 -95.1635 93.3249C-74.3929 96.7776 -52.7845 94.247 -31.0688 92.2312C-20.4365 91.2661 -11.8661 87.2559 -6.23852 78.785C1.83776 66.5825 12.7493 56.9535 21.8566 45.759C30.4484 35.2508 41.1882 33.7711 53.2381 37.7814C68.9182 42.9711 80.1304 53.0719 81.9347 69.9494C83.2449 82.1518 80.109 93.711 67.6723 100.466C59.0806 105.12 51.4338 112.283 42.348 115.156C19.5154 122.405 11.1169 139.325 5.46775 160.556C-4.24097 197.013 -26.5796 225.064 -57.6175 245.952C-71.3428 255.109 -84.8104 252.471 -95.0562 239.282Z" stroke="white" stroke-width="0.461385" stroke-linejoin="round"/>
<path d="M-746.055 594.009C-698.328 575.502 -649.398 564.779 -598.276 578.183C-579.375 583.137 -560.773 589.206 -541.979 594.589C-511.757 603.167 -502.478 597.269 -488.753 568.854C-476.638 543.806 -455.116 525.599 -434.517 507.327C-395.854 472.886 -357.9 437.523 -327.571 395.168C-317.083 380.75 -310.084 364.102 -307.122 346.53C-302.053 314.962 -280.853 302.524 -250.653 312.754C-220.904 322.854 -191.24 334.199 -158.678 328.044C-131.485 323.005 -124.719 312.067 -132.086 285.582C-142.976 246.444 -157.861 209.751 -188.061 180.629C-209.82 159.719 -219.701 132.462 -222.429 102.696C-224.577 77.7124 -210.465 60.4918 -193.818 44.6651C-191.131 42.2357 -188.297 39.9725 -185.334 37.8884C-159.043 18.4589 -157.818 -6.88961 -166.281 -35.7336C-175.475 -67.001 -157.818 -78.6243 -134.943 -84.436C-119.263 -88.4678 -102.724 -89.9475 -86.5066 -90.8696C-61.9126 -92.3279 -45.5023 -75.8579 -29.3927 -60.9748C-11.221 -44.1402 10.3014 -35.0259 33.3274 -27.7773C73.0214 -15.2747 107.861 3.94032 129.04 42.156C136.558 55.7309 140.596 70.3995 144.076 85.0467C148.715 104.798 152.775 124.613 160.593 143.442C163.02 149.34 161.023 154.83 159.262 160.363C163.364 175.375 159.369 179.449 144.355 181.551C111.663 186.097 76.9951 182.344 47.6971 202.117C23.2912 218.531 1.29274 238.257 -17.6649 260.727C-35.4069 281.808 -53.2134 302.717 -74.3062 320.474C-85.046 329.502 -86.077 339.582 -80.7501 351.505C-71.6643 371.879 -56.5427 388.413 -45.2445 407.263C-18.4811 452.17 0.206036 500.293 -2.62925 553.092C-5.37863 604.561 -37.8985 636.943 -82.361 658.453C-92.7571 663.492 -103.969 666.795 -114.795 670.891C-157.453 686.975 -194.162 669.647 -230.655 650.582C-257.721 636.159 -287.913 628.575 -318.592 628.494C-357.728 628.665 -394.372 638.981 -422.617 668.768C-425.395 671.656 -427.332 675.244 -428.223 679.148C-435.591 718.135 -453.612 753.799 -463.192 792.143C-468.113 811.805 -470.921 831.934 -471.569 852.19C-472.514 880.348 -452.495 893.816 -430.393 903.981C-402.727 916.719 -374.546 928.193 -346.494 940.181C-333.349 945.821 -321.385 953.048 -312.127 964.264C-293.741 986.267 -293.096 1012.6 -310.989 1034.84C-334.012 1062.91 -353.757 1093.5 -369.842 1126.03C-380.459 1148.31 -395.161 1168.4 -413.188 1185.28C-455.545 1224.8 -455.502 1266.77 -430.371 1316.61C-417.484 1341.9 -393.019 1349.83 -366.148 1349.74C-340.712 1349.38 -315.531 1344.62 -291.721 1335.68C-243.586 1318.35 -226.703 1330.46 -231.858 1381.14C-237.59 1438.18 -254.222 1493.59 -280.853 1544.38C-297.499 1576.01 -324.8 1588.95 -358.48 1576.55C-401.288 1560.9 -439.779 1572.26 -478.507 1587.27C-506.28 1598 -528.898 1591.67 -545.244 1566.84C-560.709 1543.25 -572.222 1517.51 -592.37 1496.77C-638.078 1449.59 -746.807 1459.59 -769.79 1531.94" stroke="white" stroke-width="0.461385" stroke-linejoin="round"/>
<path d="M407.134 -948.234C437.485 -919.862 450.587 -884.048 456.859 -844.653C457.647 -840.309 457.106 -835.828 455.305 -831.796C453.504 -827.764 450.527 -824.367 446.764 -822.05C438.043 -816.367 429.215 -819.283 421.332 -824.709C408.831 -833.287 397.576 -843.452 383.335 -849.693C371.328 -854.947 360.481 -857.241 348.173 -850.722C311.508 -831.314 269.945 -824.301 232.936 -805.815C220.929 -799.833 209.602 -792.578 199.149 -784.177C168.433 -759.322 133.701 -750.444 95.2095 -757.049C59.8421 -763.159 24.0458 -766.464 -11.8442 -766.935C-35.8367 -767.257 -57.1658 -776.178 -78.2372 -785.914C-92.3072 -792.581 -106.726 -798.487 -121.432 -803.607C-151.804 -813.857 -178.374 -828.783 -196.954 -857.091C-212.312 -880.51 -233.297 -883.34 -258.686 -870.43C-303.406 -847.698 -320.246 -810.748 -310.516 -761.552C-304.48 -730.928 -295.373 -701.119 -287.297 -671.096C-276.448 -631.719 -278.19 -589.942 -292.28 -551.602C-297.95 -536.21 -299.756 -519.665 -297.543 -503.414C-295.91 -492.005 -292.065 -480.79 -282.142 -474.485C-249.149 -453.575 -219.851 -427.005 -183.981 -410.47C-154.94 -397.131 -124.783 -388.103 -93.1225 -385.872C-50.8294 -382.913 -20.0923 -407.832 -6.47429 -453.297C1.64495 -480.296 8.15325 -507.939 24.8213 -531.551C49.3938 -566.335 85.9734 -576.243 123.863 -557.028C158.982 -539.207 189.053 -514.137 218.373 -488.274C227.931 -479.889 232.098 -468.115 234.955 -455.891C245.953 -408.926 249.067 -360.76 257.143 -313.344C263.372 -276.887 292.541 -255.635 329.572 -263.248C335.307 -264.427 337.262 -268.523 340.312 -272.705C359.106 -298.011 364.369 -331.079 387.717 -353.769C418.239 -383.428 451.597 -406.653 495.931 -410.77C521.147 -413.108 537.407 -397.753 531.694 -372.941C521.276 -327.798 496.124 -292.478 457.289 -267.515C443.413 -258.616 430.053 -248.815 419.292 -237.084C408.531 -225.354 415.898 -209.313 418.325 -194.794C422.9 -167.516 440.857 -146.95 451.769 -122.931C459.844 -104.957 462.637 -85.0622 459.824 -65.5644C456.924 -44.6337 432.459 -31.8736 405.459 -36.4201C382.206 -40.2123 358.674 -42.0417 335.114 -41.8887C315.782 -41.8887 301.198 -33.139 288.31 -20.4433C281.866 -14.0097 280.878 -5.66745 279.718 3.33961C275.422 36.344 271.492 69.8203 244.062 93.882C235.928 101.193 225.891 106.062 215.108 107.929C200.931 110.309 188.259 107.371 181.664 92.3379C176.874 81.4007 170.925 70.8925 167.144 59.6337C150.176 9.77321 110.632 -16.9477 66.0189 -37.2779C34.6804 -51.5605 5.10315 -66.9368 -17.751 -93.8937C-36.4596 -116.047 -61.0751 -126.062 -90.6093 -121.172C-106.697 -118.492 -122.829 -115.36 -138.917 -113.366C-195.537 -106.375 -220.066 -121.944 -237.722 -175.987C-247.341 -205.668 -252.869 -236.517 -254.154 -267.687C-255.701 -302.664 -267.901 -328.913 -304.803 -337.899C-332.726 -344.697 -352.831 -361.274 -368.575 -385.079C-380.539 -403.157 -403.63 -405.859 -433.443 -395.802C-458.08 -387.438 -479.603 -374.506 -495.003 -353.147C-507.891 -335.261 -520.779 -317.204 -532.141 -298.397C-547.048 -273.906 -545.716 -249.072 -533.903 -222.802C-500.545 -148.579 -441.648 -98.5473 -376.652 -54.2841C-353.969 -38.8649 -334.466 -22.116 -324.285 4.51914C-316.742 24.6026 -303.473 42.0406 -286.116 54.6798C-258.3 75.1172 -252.973 107.135 -246.421 137.909C-243.221 152.921 -241.503 167.933 -246.056 183.952C-254.498 213.311 -279.435 220.881 -302.977 230.918C-307.273 232.741 -311.934 233.813 -316.38 235.378C-351.241 247.495 -358.995 262.271 -350.275 298.149C-345.506 317.814 -340.179 337.566 -341.361 358.067C-343.272 391.672 -363.635 415.327 -386.038 437.415C-419.696 470.698 -460.894 494.396 -497.624 523.819C-500.18 525.963 -503.337 527.378 -505.292 529.845C-529.199 560.04 -561.955 564.157 -596.752 559.868C-642.288 554.185 -686.385 561.777 -730.397 571.599C-742.425 574.279 -754.368 577.325 -766.375 580.07" stroke="white" stroke-width="0.461385" stroke-linejoin="round"/>
<path d="M1424.27 596.09C1419.57 596.09 1414.78 597.548 1410.2 597.012C1374.59 592.723 1349.91 610.544 1329.59 636.729C1321.95 646.572 1311.96 652.942 1301.07 657.917C1269.64 672.264 1250.14 696.519 1236.63 727.915C1218.91 769.175 1193.67 805.118 1151.81 826.049C1130 836.986 1105.95 839.302 1082.13 841.618C1026.11 847.108 970.649 848.545 917.637 823.947C898.907 815.369 885.117 801.558 874.485 785.345C850.084 748.159 817.801 718.865 784.98 689.656C776.921 682.899 769.448 675.474 762.641 667.46C740.947 640.31 711.735 624.977 679.967 613.589C659.153 606.126 638.211 598.942 617.054 592.594C586.531 583.394 570.594 561.027 560.069 532.976C551.649 510.523 550.124 486.869 549.329 463.493C548.147 429.524 532.296 405.934 503.492 389.936C479.048 376.339 459.158 357.253 440.364 337.201C414.717 309.837 382.884 303.554 347.228 305.141C314.043 306.62 281.48 302.996 251.086 287.234C218.652 270.378 209.309 241.448 198.913 208.508C185.51 166.025 216.956 158.176 238.972 143.721C268.743 124.206 288.59 99.2223 298.599 65.3815C302.268 53.2687 307.169 41.5627 313.226 30.447C329.035 1.2384 356.851 -2.21434 385.612 0.659343C411.388 3.21134 436.862 4.47665 462.595 1.43141C485.341 -1.27071 504.652 -13.3445 525.293 -21.601C567.715 -38.457 609.901 -55.6133 656.297 -57.7578C675.091 -58.6371 693.95 -59.9023 712.745 -59.3662C737.876 -58.68 747.992 -66.4861 755.081 -90.4835C759.377 -104.659 762.706 -119.07 767.26 -132.988C775.551 -158.294 795.462 -171.59 821.151 -176.394C844.285 -180.683 867.998 -181.841 890.681 -188.918C917.53 -197.26 935.079 -218.534 936.496 -246.584C937.613 -268.93 947.386 -286.73 967.362 -295.265C987.338 -303.8 1006.71 -296.745 1025.36 -286.28C1071.99 -259.966 1108.1 -222.716 1141.75 -181.841C1161.88 -157.393 1192.06 -152.482 1222.56 -153.34C1228.85 -153.511 1233.3 -159.066 1237.38 -163.676C1268.27 -198.933 1292 -239.336 1319 -277.466C1326.69 -288.381 1334.04 -299.597 1340.76 -311.156C1351.74 -330.114 1353.48 -351.752 1351.76 -372.361C1348.32 -413.108 1361.42 -449.157 1377.73 -485.164C1394.59 -522.393 1412.95 -559.644 1408.79 -602.406C1407.18 -618.919 1405.33 -635.71 1400.86 -651.601C1391.32 -685.635 1419.96 -722.95 1444.7 -739.527C1458.23 -748.62 1474.19 -751.194 1489.53 -755.397" stroke="white" stroke-width="0.461385" stroke-linejoin="round"/>
<path d="M951.767 203.082C938.751 254.83 956.235 301.731 975.137 348.246C980.979 362.657 992.729 369.863 1007.68 372.35C1014.49 373.487 1021.27 374.859 1028.11 375.481C1060.32 378.398 1092.33 381.529 1124.51 383.652C1136.75 384.446 1144.67 379.363 1141.69 364.587C1139.76 354.636 1141.8 344.621 1143.84 334.564C1152.94 289.271 1167.46 244.75 1164.65 203.211C1165.56 184.698 1164.23 166.142 1160.7 147.946C1155.8 123.005 1142.12 110.181 1117.22 106.085C1092.82 102.053 1068.85 106.707 1044.73 109.43C991.075 115.456 963.001 158.411 951.767 203.082Z" stroke="white" stroke-width="0.461385" stroke-linejoin="round"/>
<path d="M1117.78 135.701C1134.71 146.423 1139.26 163.215 1142.23 180.886C1143.54 188.671 1143.15 196.756 1143.54 204.69C1146.09 248.846 1128.78 288.113 1110.35 326.007C1091.02 365.874 1016.57 366.753 993.674 328.773C967.04 284.574 955.161 237.695 972.367 186.719C991.354 130.511 1067.33 104.026 1117.78 135.701Z" stroke="white" stroke-width="0.461385" stroke-linejoin="round"/>
<path d="M-766.289 580.005C-754.282 577.239 -742.339 574.215 -730.311 571.535C-686.3 561.713 -642.245 554.121 -596.666 559.804C-561.869 564.093 -529.113 560.04 -505.142 529.973C-503.166 527.507 -500.03 525.963 -497.473 523.947C-460.744 494.524 -419.546 470.827 -385.78 437.544C-363.377 415.369 -343.015 391.715 -341.103 358.089C-339.922 337.608 -345.227 317.857 -350.017 298.192C-358.738 262.314 -350.983 247.538 -316.122 235.4C-311.676 233.856 -307.036 232.784 -302.719 230.961C-279.092 220.924 -254.24 213.354 -245.799 183.995C-241.245 168.083 -242.963 152.985 -246.164 137.952C-252.715 107.178 -258.042 75.1816 -285.858 54.7227C-303.215 42.0836 -316.484 24.6455 -324.027 4.56201C-334.208 -21.9874 -353.711 -38.8219 -376.394 -54.2411C-441.391 -98.5044 -500.287 -148.601 -533.645 -222.759C-545.459 -249.094 -546.79 -273.863 -531.884 -298.354C-520.414 -317.161 -507.633 -335.218 -494.746 -353.104C-479.345 -374.442 -457.822 -387.416 -433.185 -395.759C-403.393 -405.859 -380.281 -403.157 -368.317 -385.036C-352.573 -361.253 -332.447 -344.676 -304.545 -337.856C-267.643 -328.87 -255.443 -302.621 -253.896 -267.644C-252.613 -236.474 -247.085 -205.624 -237.464 -175.944C-219.765 -121.944 -195.236 -106.332 -138.659 -113.323C-122.485 -115.318 -106.44 -118.449 -90.3516 -121.129C-60.7958 -126.019 -36.2019 -116.004 -17.4933 -93.8507C5.29645 -66.8939 34.8522 -51.5176 66.2767 -37.235C110.89 -16.9048 150.433 9.81615 167.402 59.6766C171.225 70.914 177.132 81.4437 181.922 92.3808C188.495 107.393 201.254 110.352 215.366 107.972C226.149 106.11 236.182 101.232 244.299 93.9033C271.535 69.6915 275.465 36.3012 279.761 3.29674C280.921 -5.68887 281.909 -14.1169 288.353 -20.4862C301.241 -33.2033 315.718 -41.9315 335.157 -41.9315C358.718 -42.0668 382.248 -40.2303 405.502 -36.4415C432.502 -31.8951 457.053 -44.6766 459.866 -65.6072C462.702 -85.098 459.908 -104.992 451.812 -122.952C440.922 -146.971 422.943 -167.537 418.368 -194.816C415.941 -209.356 408.273 -225.096 419.335 -237.127C430.397 -249.158 443.478 -258.573 457.332 -267.558C496.188 -292.521 521.341 -327.841 531.737 -372.984C537.45 -397.774 521.19 -413.129 495.995 -410.792C451.64 -406.674 418.304 -383.449 387.76 -353.811C364.412 -331.122 359.149 -298.054 340.355 -272.727C337.24 -268.545 335.286 -264.449 329.615 -263.269C292.606 -255.656 263.415 -276.823 257.186 -313.366C249.131 -360.781 245.995 -408.969 235.019 -455.913C232.141 -468.158 227.974 -479.932 218.437 -488.295C189.032 -514.03 158.961 -539.228 123.928 -557.049C86.0378 -576.35 49.4583 -566.357 24.8858 -531.572C8.21768 -507.982 1.70941 -480.318 -6.38835 -453.318C-20.0493 -407.854 -50.7649 -382.934 -93.058 -385.894C-124.697 -388.038 -154.876 -397.174 -183.895 -410.513C-219.873 -427.026 -249.085 -453.597 -282.056 -474.527C-292.001 -480.811 -295.824 -492.027 -297.457 -503.436C-299.693 -519.686 -297.885 -536.236 -292.194 -551.624C-278.148 -589.968 -276.436 -631.733 -287.297 -671.096C-295.266 -701.119 -304.48 -730.885 -310.43 -761.509C-320.225 -810.769 -303.406 -847.72 -258.686 -870.538C-233.276 -883.405 -212.312 -880.595 -196.954 -857.199C-178.374 -828.869 -151.847 -813.943 -121.432 -803.692C-106.716 -798.582 -92.289 -792.676 -78.2157 -786C-57.1443 -776.264 -35.8367 -767.364 -11.8227 -767.042C24.0596 -766.561 59.8479 -763.255 95.2095 -757.156C133.593 -750.529 168.433 -759.429 199.17 -784.263C209.616 -792.639 220.937 -799.865 232.936 -805.815C269.945 -824.301 311.508 -831.314 348.173 -850.722C360.481 -857.156 371.35 -855.011 383.335 -849.693C397.597 -843.474 408.831 -833.287 421.332 -824.709C429.215 -819.305 438.043 -816.367 446.764 -822.05C450.529 -824.371 453.506 -827.771 455.307 -831.807C457.108 -835.843 457.649 -840.327 456.859 -844.674C450.587 -884.048 437.528 -919.733 407.134 -948.234" stroke="white" stroke-width="0.461385" stroke-linejoin="round"/>
<path d="M337.756 -954.367C318.532 -937.404 306.181 -917.545 301.95 -892.947C300.635 -883.927 297.045 -875.389 291.518 -868.134C285.991 -860.879 278.708 -855.146 270.353 -851.472C236.18 -835.302 204.304 -815.294 172.536 -795.135C147.92 -779.501 121.2 -778.708 93.8136 -782.268C66.4273 -785.828 39.3846 -795.607 12.0412 -792.261C-28.5764 -787.308 -63.6094 -800.647 -98.4276 -817.653C-129.551 -832.836 -155.52 -851.622 -158.699 -890.567C-160.074 -907.444 -171.071 -915.165 -189.715 -915.958C-237.894 -918.21 -300.743 -883.404 -321.664 -839.999C-334.401 -813.514 -332.189 -785.592 -325.702 -758.099C-320.311 -735.195 -312.986 -712.785 -307.079 -690.01C-295.781 -646.411 -299.046 -604.228 -318.291 -563.01C-328.365 -541.415 -335.969 -518.597 -343.422 -495.929C-354.377 -462.582 -377.79 -441.78 -409.364 -430.006C-463.987 -409.612 -509.652 -378.795 -539.594 -327.326C-546.468 -315.509 -555.597 -305.001 -563.587 -293.828C-578.494 -272.94 -576.475 -251.731 -564.188 -230.65C-527.295 -168.24 -480.871 -111.961 -426.591 -63.8481C-393.942 -34.5966 -368.102 -1.22763 -357.577 42.7354C-351.928 66.3253 -328.795 75.1394 -311.268 87.9637C-293.74 100.788 -280.402 116.786 -277.459 138.811C-274.86 158.111 -282.721 173.273 -299.54 183.846C-311.204 191.239 -324.126 196.436 -337.666 199.179C-386.725 208.744 -406.851 244.536 -390.548 292.038C-384.577 309.43 -375.985 325.793 -372.484 344.236C-366.792 374.367 -376.522 398.686 -397.959 418.694C-422.145 441.276 -448.65 461.178 -479.409 473.873C-505.184 484.596 -524.859 503.275 -546.146 520.045C-562.105 532.633 -580.319 538.274 -600.532 538.702C-629.519 539.607 -658.398 542.689 -686.922 547.924C-711.28 552.213 -735.638 555.494 -760.489 553.007" stroke="white" stroke-width="0.461385" stroke-linejoin="round"/>
<path d="M972.367 186.719C955.183 237.695 967.04 284.575 993.674 328.774C1016.51 366.86 1090.98 365.874 1110.35 326.114C1128.78 288.22 1146.07 248.911 1143.54 204.798C1143.15 196.863 1143.54 188.778 1142.23 180.994C1139.22 163.323 1134.71 146.445 1117.78 135.808C1067.33 104.026 991.355 130.511 972.367 186.719Z" stroke="white" stroke-width="0.461385" stroke-linejoin="round"/>
<path d="M1125.6 207.393C1124.98 252.428 1108.7 291.587 1074.65 321.418C1058.74 335.336 1036.14 332.548 1019.77 318.973C980.83 286.805 968.844 217.687 995.135 175.418C1009.74 151.828 1031.82 141.556 1053.13 140.848C1101.27 140.655 1126.18 164.802 1125.6 207.393Z" stroke="white" stroke-width="0.461385" stroke-linejoin="round"/>
<path d="M1479.69 102.954C1467.49 96.6703 1456.06 88.9499 1443.88 82.5592C1427.54 73.9811 1410.44 71.4505 1395.02 83.7601C1380.35 95.4693 1364.58 107.972 1366.92 129.632C1370.57 163.387 1397.62 182.237 1425.05 187.341" stroke="white" stroke-width="0.461385" stroke-linejoin="round"/>
<path d="M1489.33 -755.483C1474 -751.194 1458.04 -748.706 1444.51 -739.613C1419.76 -722.993 1391.13 -685.699 1400.69 -651.687C1405.16 -635.796 1407 -619.004 1408.61 -602.491C1412.76 -559.729 1394.42 -522.479 1377.56 -485.25C1361.23 -449.243 1348.13 -413.3 1351.56 -372.447C1353.3 -351.838 1351.56 -330.2 1340.57 -311.242C1333.89 -299.683 1326.52 -288.467 1318.81 -277.551C1291.92 -239.421 1268.2 -199.018 1237.19 -163.762C1233.15 -159.151 1228.59 -153.597 1222.39 -153.425C1191.87 -152.568 1161.69 -157.479 1141.56 -181.905C1107.9 -222.801 1071.79 -260.052 1025.18 -286.344C1006.6 -296.831 987.101 -303.822 967.19 -295.351C947.278 -286.88 937.441 -269.016 936.302 -246.67C934.885 -218.619 917.358 -197.346 890.487 -189.003C867.804 -181.926 844.113 -180.811 820.958 -176.479C795.182 -171.697 775.378 -158.379 767.087 -133.074C762.533 -119.156 759.075 -104.744 754.908 -90.5691C747.82 -66.5717 737.725 -58.7657 712.551 -59.4519C693.778 -59.9666 674.919 -58.7228 656.103 -57.8435C609.729 -55.699 567.521 -38.5426 525.078 -21.6223C504.436 -13.3658 485.105 -1.29207 462.358 1.41005C436.583 4.45529 411.151 3.19005 385.375 0.638048C356.614 -2.23563 328.82 1.21704 312.99 30.4256C306.926 41.5434 302.031 53.2578 298.384 65.3816C288.632 99.2224 268.763 124.206 238.95 143.829C216.933 158.283 185.466 166.132 198.869 208.615C209.265 241.555 218.609 270.485 251.064 287.341C281.458 303.146 314.021 306.642 347.206 305.269C382.862 303.683 414.673 309.944 440.32 337.309C459.136 357.382 478.983 376.447 503.47 390.043C532.252 406.041 548.104 429.631 549.285 463.6C550.101 486.976 551.605 510.63 560.025 533.084C570.55 561.134 586.509 583.502 617.01 592.702C638.189 599.135 659.131 606.234 679.945 613.697C711.692 625.084 740.925 640.439 762.598 667.567C769.406 675.587 776.887 683.012 784.958 689.763C817.779 718.865 850.062 748.266 874.463 785.453C885.203 801.665 898.864 815.476 917.594 824.054C970.605 848.652 1026.09 847.215 1082.08 841.747C1105.93 839.409 1129.96 837.093 1151.78 826.156C1193.54 805.225 1218.86 769.283 1236.61 728.022C1250.1 696.626 1269.58 672.264 1301.05 658.024C1311.94 653.049 1321.94 646.68 1329.57 636.836C1349.91 610.651 1374.68 592.873 1410.18 597.119C1414.78 597.655 1419.57 596.283 1424.27 596.197" stroke="white" stroke-width="0.461385" stroke-linejoin="round"/>
<path d="M1421.05 321.825C1389.24 303.489 1357.69 307.885 1328.86 330.639C1325.45 333.341 1321.97 335.957 1318.57 338.659C1271.94 376.017 1242.04 353.435 1214.12 323.969C1207.67 317.128 1208.53 306.813 1208.66 299.222C1209.41 252.428 1185.59 208.186 1194.85 160.727C1199.81 135.207 1196.61 108.701 1203.74 83.524C1210.6 59.3122 1229.95 44.0645 1246.47 27.0798C1264.47 8.57245 1274.99 -13.6664 1280.34 -38.1141C1289.51 -79.8897 1292.41 -122.416 1292.82 -165.114C1293.16 -201.571 1309.34 -231.894 1329.14 -261.06C1344.18 -283.063 1362.52 -303.093 1368.04 -330.629C1370.7 -343.904 1372.77 -357.071 1371.8 -370.474C1368.88 -411.993 1380.65 -450.337 1399.08 -486.408C1424.98 -537.083 1439.09 -589.882 1438.02 -647.012C1437.4 -680.124 1459.91 -708.41 1486.41 -711.52" stroke="white" stroke-width="0.461385" stroke-linejoin="round"/>
<path d="M1117.29 106.042C1142.18 110.159 1155.95 122.962 1160.76 147.903C1164.3 166.099 1165.63 184.655 1164.72 203.168C1167.62 244.729 1153.01 289.228 1143.9 334.521C1141.86 344.621 1139.82 354.636 1141.75 364.544C1144.68 379.449 1136.75 384.403 1124.57 383.609C1092.35 381.465 1060.28 378.355 1028.17 375.438C1021.32 374.816 1014.55 373.444 1007.74 372.329C992.708 369.841 981.045 362.614 975.202 348.224C956.3 301.645 938.816 254.787 951.833 203.039C963.066 158.368 991.14 115.413 1044.86 109.344C1068.92 106.664 1092.89 102.01 1117.29 106.042Z" stroke="white" stroke-width="0.461385" stroke-linejoin="round"/>
<path d="M1066.83 -137.577C1063.55 -135.433 1059.75 -133.867 1056.55 -131.508C1048.36 -125.461 1033.8 -122.115 1045.25 -106.996C1058.13 -85.701 1082.62 -88.0172 1101.97 -80.0609C1118.64 -73.1984 1133.08 -65.0492 1138.7 -46.3917C1146.65 -20.1426 1157.54 5.48461 1157.07 33.578C1156.77 52.0425 1146.05 63.0655 1130 70.7214C1102.08 84.039 1072.2 90.4511 1042.07 94.3113C987.51 101.281 958.298 134.135 941.114 183.438C927.625 221.933 926.079 259.548 937.312 298.428C941.608 313.333 944.014 328.816 946.721 344.128C953.959 385.046 966.675 396.734 1008.26 394.461C1057.19 391.801 1098.19 406.363 1130.16 443.957C1152.32 470.056 1180.33 488.284 1209.22 506.019C1238.91 524.227 1260.58 551.484 1280.64 579.277C1290.93 593.559 1285.22 611.252 1270.07 620.452C1242.43 637.244 1227.93 662.163 1218.2 692.444C1205.05 733.19 1187.48 772.349 1151.23 799.113C1133.61 812.131 1112.67 815.347 1091.79 818.135C1070.91 820.923 1049.97 822.596 1029.12 825.277C970.541 832.761 922.857 815.819 885.654 767.889C856.335 730.102 816.383 701.558 786.333 664.565C747.67 616.978 695.883 596.476 639.671 581.957C593.534 570.055 566.469 526.628 571.216 472.179C572.548 457.06 573.944 441.898 574.803 426.736C575.942 406.663 570.164 388.821 552.723 377.605C516.916 354.615 486.286 324.999 451.533 300.702C422.385 280.328 391.841 267.161 354.875 276.297C333.632 281.529 311.916 281.872 290.437 274.86C268.549 267.697 257.294 251.484 257.229 228.602C257.229 198.193 269.623 174.989 294.303 157.833C304.463 150.691 310.327 140.397 314.107 128.688C319.67 111.532 325.77 94.3757 331.14 77.2194C339.453 50.5628 360.503 39.5613 385.29 37.0308C420.059 33.1295 455.253 38.0112 487.64 51.2276C523.661 66.2394 574.675 53.7367 598.495 16.1215C619.653 -17.3118 654.621 -29.7287 692.747 -22.0941C709.415 -18.7486 724.451 -12.2507 740.002 -6.26742C750.183 -2.34292 760.644 0.573658 771.77 0.0375243C795.075 -1.07763 809.059 -10.7924 813.183 -33.7389C816.297 -51.1097 822.44 -67.88 822.762 -85.9155C823.085 -103.951 849.247 -128.806 870.833 -135.24C900.303 -143.968 931.427 -146.949 959.329 -161.275C966.826 -164.846 973.02 -170.664 977.05 -177.916C984.547 -191.932 992.829 -205.514 1001.86 -218.598C1014.45 -236.097 1034.36 -237.363 1055.56 -223.273C1081.33 -206.117 1092.69 -181.026 1085.13 -151.538C1083.7 -145.684 1073.28 -142.017 1066.83 -137.577Z" stroke="white" stroke-width="0.461385" stroke-linejoin="round"/>
<path d="M-769.919 1531.99C-746.936 1459.61 -638.185 1449.66 -592.498 1496.82C-572.329 1517.6 -560.816 1543.4 -545.244 1566.88C-528.898 1591.71 -506.301 1598.08 -478.507 1587.32C-439.844 1572.3 -401.31 1560.98 -358.501 1576.59C-324.8 1588.92 -297.499 1575.97 -280.874 1544.43C-254.201 1493.62 -237.526 1438.19 -231.751 1381.12C-226.596 1330.44 -243.5 1318.35 -291.614 1335.68C-315.425 1344.61 -340.606 1349.36 -366.04 1349.72C-392.911 1349.72 -417.484 1341.9 -430.264 1316.59C-455.395 1266.84 -455.459 1224.78 -413.08 1185.26C-395.089 1168.38 -380.423 1148.29 -369.842 1126.03C-353.728 1093.53 -333.962 1062.98 -310.924 1034.95C-293.032 1012.73 -293.741 986.395 -312.084 964.371C-321.385 953.241 -333.327 945.95 -346.451 940.309C-374.374 928.321 -402.684 916.827 -430.328 904.11C-452.452 893.923 -472.471 880.52 -471.505 852.319C-470.855 832.063 -468.047 811.934 -463.128 792.272C-453.548 753.949 -435.527 718.285 -428.159 679.298C-427.281 675.389 -425.342 671.798 -422.553 668.918C-394.307 639.131 -357.663 628.794 -318.528 628.644C-287.867 628.731 -257.696 636.323 -230.655 650.754C-194.14 669.819 -157.453 687.211 -114.817 671.063C-103.969 666.988 -92.7571 663.664 -82.3611 658.624C-37.8986 637.179 -5.37863 604.818 -2.62926 553.263C0.184553 500.422 -18.4811 452.277 -45.2445 407.435C-56.5427 388.499 -71.6643 371.964 -80.7501 351.677C-86.0555 339.753 -85.046 329.674 -74.3063 320.646C-53.2134 302.889 -35.4069 282.044 -17.6649 260.899C1.29855 238.434 23.2962 218.709 47.6971 202.289C77.0166 182.516 111.706 186.269 144.355 181.722C159.39 179.578 163.364 175.632 159.261 160.534C161.023 155.002 163.02 149.512 160.593 143.614C152.775 124.807 148.715 105.012 144.075 85.2184C140.66 70.5712 136.622 55.8811 129.04 42.3277C107.926 3.89757 73.0858 -15.3175 33.3918 -27.7344C10.3658 -34.9829 -11.1566 -44.0972 -29.3283 -60.9318C-45.4379 -75.8149 -61.8482 -92.285 -86.4422 -90.8267C-102.681 -89.8616 -119.198 -88.3819 -134.878 -84.3931C-157.775 -78.517 -175.432 -66.9579 -166.238 -35.6906C-157.754 -6.84658 -158.978 18.5018 -185.269 37.9313C-188.233 40.0155 -191.066 42.2786 -193.754 44.7081C-210.4 60.5347 -224.598 77.7553 -222.364 102.761C-219.701 132.505 -209.82 159.762 -187.997 180.672C-157.711 209.794 -142.89 246.466 -132.022 285.754C-124.654 312.218 -131.42 323.155 -158.613 328.216C-191.176 334.242 -220.904 323.005 -250.61 312.904C-280.896 302.61 -301.989 315.048 -307.058 346.702C-310.026 364.276 -317.032 380.924 -327.528 395.34C-357.835 437.673 -395.682 473.036 -434.453 507.478C-455.051 525.771 -476.574 543.935 -488.688 569.004C-502.414 597.419 -511.693 603.317 -541.936 594.739C-560.709 589.356 -579.31 583.287 -598.212 578.354C-649.398 564.93 -698.263 575.652 -745.991 594.16" stroke="white" stroke-width="0.461385" stroke-linejoin="round"/>
<path d="M-116.063 251.935C-131.932 216.718 -151.617 183.343 -174.766 152.407C-188.943 133.385 -194.871 111.446 -182.757 89.2932C-171.158 68.0837 -150.387 61.7787 -127.404 61.4142C-121.604 61.4142 -115.805 61.4142 -108.609 61.4142C-75.037 66.8184 -49.0468 52.9432 -29.1354 24.7426C-1.79199 -13.8591 63.9567 -1.95689 88.701 26.2223C109.601 50.0267 122.059 76.1685 112.715 108.68C108.419 123.584 98.9037 135.401 84.6843 139.818C54.7205 149.169 35.0024 169.842 17.6684 194.011C-1.10463 220.324 -23.701 243.335 -46.6411 265.917C-72.6528 291.48 -100.619 286.247 -116.063 251.935Z" stroke="white" stroke-width="0.461385" stroke-linejoin="round"/>
<path d="M-760.511 552.92C-735.659 555.387 -711.28 552.041 -686.944 547.816C-658.412 542.58 -629.527 539.498 -600.532 538.595C-580.341 538.166 -562.126 532.526 -546.146 519.937C-524.881 503.189 -505.335 484.445 -479.43 473.765C-448.672 461.07 -422.166 441.168 -397.98 418.587C-376.501 398.599 -366.792 374.259 -372.506 344.15C-375.985 325.685 -384.577 309.322 -390.548 291.93C-406.851 244.45 -386.747 208.658 -337.687 199.072C-324.151 196.327 -311.231 191.138 -299.561 183.76C-282.743 173.294 -274.881 158.025 -277.459 138.724C-280.423 116.807 -293.483 100.938 -311.289 88.0705C-329.096 75.2033 -351.95 66.4965 -357.599 42.8423C-368.124 -1.14219 -393.942 -34.5112 -426.612 -63.7412C-480.887 -111.868 -527.31 -168.152 -564.21 -230.565C-576.582 -251.624 -578.515 -272.855 -563.587 -293.743C-555.597 -304.916 -546.403 -315.424 -539.594 -327.24C-509.652 -378.709 -463.987 -409.505 -409.364 -429.921C-377.897 -441.673 -354.377 -462.496 -343.444 -495.822C-335.991 -518.512 -328.408 -541.33 -318.313 -562.925C-298.981 -604.207 -295.781 -646.326 -307.101 -689.903C-312.986 -712.678 -320.311 -735.11 -325.702 -757.992C-332.146 -785.507 -334.423 -813.407 -321.664 -839.913C-300.743 -883.405 -237.894 -918.125 -189.694 -916.023C-171.05 -915.208 -160.052 -907.445 -158.678 -890.632C-155.499 -851.623 -129.508 -832.729 -98.4061 -817.717C-63.5664 -800.733 -28.5334 -787.372 12.0628 -792.348C39.4276 -795.693 66.5777 -785.914 93.8351 -782.354C121.093 -778.794 147.942 -779.48 172.579 -795.221C204.347 -815.38 236.201 -835.388 270.396 -851.537C278.75 -855.215 286.031 -860.953 291.554 -868.212C297.077 -875.471 300.662 -884.012 301.971 -893.034C306.267 -917.631 318.553 -937.49 337.777 -954.453" stroke="white" stroke-width="0.461385" stroke-linejoin="round"/>
<path d="M995.135 175.439C968.844 217.686 980.83 286.719 1019.77 318.994C1036.14 332.548 1058.74 335.336 1074.65 321.418C1108.7 291.587 1124.98 252.385 1125.6 207.414C1126.18 164.802 1101.24 140.655 1053.19 140.934C1031.8 141.555 1009.74 151.935 995.135 175.439Z" stroke="white" stroke-width="0.461385" stroke-linejoin="round"/>
<path d="M1106.72 208.786C1107.99 241.105 1095.04 268.233 1069.3 288.134C1048.66 304.047 1022.74 293.174 1008.41 263.751C1002.14 250.884 998.4 237.395 998.529 228.581C997.627 196.563 1014.75 171 1038.52 163.086C1073.81 151.248 1105.26 171.707 1106.72 208.786Z" stroke="white" stroke-width="0.461385" stroke-linejoin="round"/>
<path d="M1486.31 -711.584C1459.8 -708.475 1437.29 -680.188 1437.91 -647.077C1438.99 -589.946 1424.87 -537.148 1398.97 -486.472C1380.54 -450.401 1368.77 -412.057 1371.69 -370.539C1372.64 -357.135 1370.6 -343.947 1367.93 -330.693C1362.41 -303.157 1343.98 -283.127 1329.03 -261.124C1309.23 -231.959 1293.06 -201.614 1292.71 -165.178C1292.3 -122.48 1289.43 -79.9326 1280.23 -38.1785C1274.86 -13.7308 1264.34 8.50808 1246.36 27.0154C1229.84 44.0002 1210.49 59.1835 1203.64 83.4597C1196.5 108.679 1199.71 135.207 1194.72 160.663C1185.49 208.122 1209.31 252.363 1208.55 299.157C1208.43 306.642 1207.55 317.064 1214.01 323.905C1241.93 353.392 1272.01 375.974 1318.55 338.681C1321.97 335.979 1325.45 333.363 1328.86 330.682C1357.69 307.907 1389.24 303.532 1421.05 321.846" stroke="white" stroke-width="0.461385" stroke-linejoin="round"/>
<path d="M1380.43 262.1C1362.71 257.596 1352.66 245.844 1344.91 232.784C1329.29 206.556 1309.55 183.76 1290.35 160.491C1257.4 120.517 1261.95 84.8107 1291.79 45.8874C1305.35 28.4009 1316.58 9.23352 1325.21 -11.1359C1328.97 -20.0358 1326 -29.2571 1324.67 -37.964C1317.78 -83.1708 1321.3 -128.892 1317.28 -174.292C1314.81 -202 1324.46 -228.635 1342.26 -250.059C1378.78 -294.107 1391.99 -345.598 1395.3 -400.97C1397.32 -434.618 1410.63 -463.998 1430.7 -490.547C1449.17 -514.995 1458.62 -542.938 1465.23 -572.49C1469.02 -588.969 1474.22 -605.091 1480.79 -620.677" stroke="white" stroke-width="0.461385" stroke-linejoin="round"/>
<path d="M786.226 664.565C816.297 701.558 856.228 730.102 885.547 767.889C922.75 815.819 970.434 832.782 1029.01 825.277C1049.87 822.617 1070.85 820.987 1091.69 818.135C1112.52 815.283 1133.51 812.131 1151.12 799.135C1187.36 772.349 1204.95 733.255 1218.07 692.444C1227.82 662.185 1242.32 637.265 1269.97 620.452C1285 611.252 1290.82 593.559 1280.53 579.277C1260.47 551.505 1238.8 524.227 1209.11 506.019C1180.22 488.306 1152.21 470.056 1130.05 443.957C1098.09 406.384 1057.02 391.801 1008.15 394.482C966.568 396.755 953.852 385.046 946.613 344.128C943.907 328.816 941.523 313.333 937.205 298.45C925.95 259.548 927.518 221.933 941.007 183.46C958.191 134.135 987.489 101.281 1041.96 94.3112C1072.03 90.4511 1101.97 84.039 1129.9 70.7214C1145.94 63.0654 1156.66 52.0425 1156.96 33.578C1157.43 5.4846 1146.54 -20.0354 1138.6 -46.3703C1132.97 -65.0063 1118.54 -73.177 1101.85 -80.0609C1082.51 -88.0172 1058.11 -85.7011 1045.14 -106.996C1033.69 -122.137 1048.23 -125.482 1056.44 -131.53C1059.62 -133.889 1063.44 -135.347 1066.73 -137.599C1073.17 -142.017 1083.59 -145.641 1085.07 -151.453C1092.61 -180.961 1081.31 -206.074 1055.49 -223.187C1034.23 -237.277 1014.32 -236.055 1001.79 -218.512C992.661 -205.491 984.271 -191.966 976.663 -178.002C972.641 -170.739 966.445 -164.913 958.943 -161.339C931.019 -147.035 899.917 -144.032 870.447 -135.304C848.968 -128.871 822.698 -103.801 822.376 -85.9799C822.054 -68.1588 815.932 -51.1955 812.796 -33.8033C808.672 -10.8567 794.689 -1.16345 771.405 -0.0482899C760.258 0.487844 749.797 -2.40729 739.616 -6.35323C724.129 -12.3365 709.093 -18.8344 692.361 -22.1585C654.213 -29.8145 619.331 -17.3976 598.088 16.0357C574.267 53.6509 523.253 66.0678 487.232 51.1632C454.879 37.9901 419.732 33.131 385.011 37.0308C360.224 39.5613 339.174 50.5627 330.861 77.1979C325.492 94.4614 319.391 111.51 313.85 128.667C310.069 140.354 304.205 150.67 294.024 157.79C269.344 175.053 256.886 198.193 256.972 228.559C256.972 251.442 268.292 267.654 290.179 274.817C311.659 281.851 333.417 281.508 354.618 276.275C391.648 267.14 422.192 280.307 451.275 300.659C486.008 324.956 516.637 354.594 552.444 377.583C569.885 388.778 575.663 406.642 574.524 426.693C573.687 441.876 572.377 457.017 570.959 472.157C566.212 526.607 593.255 570.012 639.414 581.936C695.776 596.476 747.563 616.978 786.226 664.565Z" stroke="white" stroke-width="0.461385" stroke-linejoin="round"/>
<path d="M662.225 572.35C613.638 562.206 589.495 537.694 589.624 482.922C587.476 465.015 596.691 445.436 602.147 425.32C609.171 399.393 603.049 379.427 581.397 363.386C540.393 332.976 503.62 296.905 459.867 270.291C432.48 253.65 404.75 237.609 384.302 212.775C372.037 197.763 356.013 184.489 362.371 159.162C367.161 140.161 361.813 119.188 369.803 99.5221C377.794 79.8567 394.483 74.6026 411.645 72.0506C430.228 69.4856 449.097 74.0114 464.485 84.7248C491.076 102.567 520.783 110.91 552.078 114.019C561.937 115.006 569.927 110.717 578.562 103.082C604.724 79.921 618.321 48.0961 639.628 21.8255C650.196 8.80815 665.619 5.72005 681.728 5.44126C707.246 4.99091 728.188 18.6087 750.462 28.0018C805.643 51.4201 830.302 30.7897 852.082 -17.0335C856.228 -26.2933 859.444 -35.9409 861.683 -45.8346C867.246 -69.9821 883.034 -85.6372 903.418 -97.4536C917.53 -105.624 932.544 -100.906 946.957 -98.1828C964.785 -94.8158 981.324 -87.0312 997.369 -79.0321C1022.78 -66.4436 1049.35 -57.0076 1075.98 -47.5717C1119.93 -31.9595 1136.75 21.2465 1107.64 52.1493C1098.76 61.8601 1087.16 68.694 1074.35 71.7718C1053.88 76.5755 1033.39 81.3793 1012.77 85.4968C983.622 91.3299 960.553 106.256 947.236 132.677C931.298 164.287 915.854 196.391 911.43 232.29C908.337 257.317 915.36 281.164 920.193 305.205C923.737 322.661 924.747 340.311 926.379 357.939C928.012 375.567 930.009 393.624 945.711 405.655C960.875 417.235 978.424 415.97 995.758 413.589C1031.26 408.678 1063.68 415.155 1091.47 438.723C1105.44 450.22 1118.66 462.591 1131.06 475.76C1150.39 496.776 1174.17 512.217 1197.11 528.644C1210.9 538.819 1221.54 552.675 1227.8 568.618C1235.08 586.053 1228.32 600.014 1218.46 613.911C1205.23 632.547 1195.84 652.126 1191.65 675.63C1184.95 713.267 1170.88 748.802 1142.25 776.424C1133.56 785.313 1122.42 791.413 1110.24 793.945C1073.86 800.378 1037.36 807.048 1000.7 810.586C969.338 813.61 939.804 803.123 918.797 779.855C880.521 737.865 836.08 701.279 801.712 656.051C765.691 608.549 719.382 584.273 662.225 572.35Z" stroke="white" stroke-width="0.461385" stroke-linejoin="round"/>
<path d="M1456.45 -440.751C1431.66 -430.972 1425.09 -409.29 1419.35 -386.987C1406.34 -336.548 1394.63 -285.958 1362.56 -242.596C1349.68 -225.311 1343.4 -204.123 1342.82 -181.476C1341.34 -124.389 1361.34 -74.6569 1392.48 -28.2277C1409.13 -3.41539 1406.19 19.381 1383.36 38.253C1367.57 51.2703 1354.21 66.3679 1340.93 81.7228C1323.58 101.796 1321.6 124.378 1331.85 147.581C1343.64 174.302 1364.69 193.539 1387.37 211.403C1406.7 226.736 1431.66 228.731 1452.58 240.418" stroke="white" stroke-width="0.461385" stroke-linejoin="round"/>
<path d="M1425.05 187.341C1397.62 182.237 1370.58 163.387 1366.92 129.632C1364.56 107.972 1380.35 95.4693 1395.02 83.7601C1410.44 71.4505 1427.54 73.9596 1443.88 82.5592C1456.02 88.9928 1467.51 96.6702 1479.69 102.954" stroke="white" stroke-width="0.461385" stroke-linejoin="round"/>
<path d="M924.812 759.311C948.697 787.19 977.2 794.931 1011.35 788.948C1032.42 785.26 1053.32 780.713 1074.33 776.81C1111.66 769.84 1136.47 749.832 1145.96 711.788C1152.84 684.209 1141.37 659.911 1115.01 649.596C1105.6 645.929 1096.02 642.305 1088.36 635.249C1075.47 623.454 1076.13 614.876 1089.45 604.218C1096.43 598.389 1105.32 595.335 1114.41 595.64C1126.74 595.768 1138.96 594.589 1150.58 589.528C1175.54 578.676 1177.78 568.747 1162.1 545.801C1139.58 512.903 1111.51 485.389 1081.91 459.075C1058.71 438.509 1032.77 427.701 1001.11 433.513C990.109 435.528 978.768 435.786 967.599 436.858C926.573 437.18 904.879 416.699 904.127 373.68C903.482 337.695 900.239 302.374 890.423 267.611C883.946 245.095 885.767 221.006 895.557 199.715C906.769 174.217 916.155 147.903 927.303 122.362C941.394 90.1937 965.601 70.6784 1001.19 65.746C1019.11 63.2583 1037.26 62.0574 1054.72 56.6317C1081.01 48.4396 1093.68 28.7527 1086.72 4.96982C1082.62 -9.01255 1072.55 -18.4056 1059.64 -24.6034C1028.64 -39.465 995.329 -46.9708 961.928 -53.4473C934.005 -58.8516 905.351 -46.1559 895.041 -24.6677C887.545 -9.01257 879.275 6.04206 870.791 21.161C848.967 60.1916 812.302 75.5894 769.494 61.5856C749.518 55.152 729.95 47.3459 710.081 40.5691C685.573 32.2055 670.366 37.1593 656.039 58.7977C649.058 69.3274 643.366 80.7148 637.201 91.7806C620.49 121.804 605.519 153.093 570.035 166.668C564.399 169.047 558.305 170.149 552.191 169.893C546.077 169.637 540.097 168.03 534.68 165.188C513.48 154.98 492.258 144.558 468.566 141.019C452.113 138.574 434.843 146.659 433.232 159.076C430.225 182.001 432.824 203.725 450.094 221.654C466.203 238.381 487.941 246.938 505.704 261.242C544.84 292.724 577.016 332.012 620.233 359.119C642.507 373.058 645.664 391.93 635.526 416.249C631.019 426.515 625.838 436.473 620.018 446.058C594.543 489.742 610.932 535.678 658.466 552.191C675.993 558.26 694.53 560.019 712.831 562.549C740.947 566.431 769.236 571.814 785.99 597.291C799.758 618.179 814.557 638.273 829.507 658.174C857.559 695.361 894.676 724.183 924.812 759.311Z" stroke="white" stroke-width="0.461385" stroke-linejoin="round"/>
<path d="M926.058 35.122C922.707 29.6749 924.318 24.1849 925.564 17.8156C928.871 0.766547 940.062 -1.93555 954.539 -5.15236C978.038 -10.3636 1000.23 -9.87034 1022.5 -0.863283C1030.81 2.52509 1038.52 6.9643 1038.07 16.1858C1037.62 25.4073 1028.02 26.4152 1020.72 27.895C1014.17 28.8946 1007.57 29.5603 1000.96 29.8894C981.002 23.4558 962.293 37.4382 941.866 38.103C936.26 38.3389 929.945 41.4699 926.058 35.122Z" stroke="white" stroke-width="0.461385" stroke-linejoin="round"/>
<path d="M821.645 581.829C819.347 573.251 818.96 563.686 815.201 555.708C805.041 533.791 781.586 524.827 749.989 528.795C728.811 531.454 707.825 535.786 686.217 534.263C636.814 530.81 617.354 492.359 644.589 451.227C651.785 440.375 659.947 430.082 666.327 418.78C686.646 382.752 673.028 344.493 634.387 328.838C603.778 316.421 579.056 297.12 562.581 268.426C548.104 243.207 550.767 228.645 574.072 211.746C613.981 182.838 646.243 147.56 665.167 101.946C678.785 69.1345 709.694 66.0035 737.016 73.5738C748.215 76.6398 759.213 80.4001 769.944 84.8326C805.235 99.5655 839.086 89.3147 872.895 79.364C890.895 74.067 896.737 79.4927 896.952 97.8929C897.317 131.97 885.997 161.757 867.203 189.186C849.353 215.263 844.112 242.606 860.759 270.678C881.036 304.991 880.09 342.949 881.658 380.264C883.806 430.875 910.269 458.132 960.51 458.068C971.378 458.068 982.268 457.446 993.073 456.416C1033.45 452.599 1078.41 479.02 1094.28 516.185C1100.3 530.231 1090.68 544.6 1071.54 555.065C1038.31 573.251 1021.9 603.682 1016.12 639.774C1013.61 655.537 1023.44 666.431 1037.77 672.328C1051.09 677.818 1065.91 679.748 1077.92 688.541C1085.99 698.106 1101.54 703.553 1094.48 721.267C1091.56 728.472 1087.88 733.726 1080.45 736.6C1057.47 745.436 1034.87 755.365 1011.72 763.407C987.423 771.792 964.612 768.146 947.429 747.752C933.931 732.105 919.082 717.674 903.052 704.625C863.422 671.621 834.769 631.968 821.645 581.829Z" stroke="white" stroke-width="0.461385" stroke-linejoin="round"/>
<path d="M1480.79 -620.677C1474.23 -605.074 1469.02 -588.938 1465.21 -572.447C1458.66 -542.895 1449.17 -514.952 1430.67 -490.504C1410.61 -463.955 1397.3 -434.575 1395.3 -400.927C1391.99 -345.576 1378.84 -294.065 1342.26 -250.016C1324.44 -228.57 1314.81 -201.957 1317.26 -174.249C1321.32 -128.871 1317.76 -83.1494 1324.67 -37.9426C1326.01 -29.2357 1328.97 -19.9928 1325.21 -11.1144C1316.58 9.25826 1305.34 28.4262 1291.77 45.9089C1261.95 84.8322 1257.4 120.539 1290.35 160.513C1309.55 183.803 1329.29 206.599 1344.91 232.827C1352.66 245.887 1362.71 257.639 1380.43 262.142" stroke="white" stroke-width="0.461385" stroke-linejoin="round"/>
<path d="M1452.54 240.333C1431.62 228.645 1406.75 226.65 1387.33 211.317C1364.65 193.453 1343.6 174.238 1331.8 147.496C1321.52 124.335 1323.66 101.774 1340.85 81.6368C1354.12 66.2819 1367.46 51.1844 1383.27 38.1671C1406.1 19.3381 1409.04 -3.45837 1392.4 -28.3135C1361.25 -74.7428 1341.23 -124.475 1342.74 -181.562C1343.32 -204.209 1349.68 -225.397 1362.48 -242.681C1394.55 -286.044 1406.25 -336.634 1419.27 -387.073C1425 -409.376 1431.58 -431.058 1456.36 -440.837" stroke="white" stroke-width="0.461385" stroke-linejoin="round"/>
<path d="M602.147 425.32C596.691 445.436 587.541 465.016 589.625 482.923C589.496 537.694 613.639 562.27 662.225 572.35C719.382 584.273 765.692 608.55 801.713 655.987C836.08 701.215 880.521 737.715 918.626 779.962C939.633 803.231 969.167 813.739 1000.53 810.694C1037.26 807.155 1073.77 800.507 1110.18 794.052C1122.34 791.514 1133.48 785.423 1142.16 776.552C1170.82 748.888 1184.91 713.332 1191.57 675.759C1195.86 652.169 1205.14 632.676 1218.37 614.04C1228.23 600.143 1235 586.161 1227.72 568.725C1221.45 552.792 1210.81 538.944 1197.02 528.773C1174.08 512.281 1150.2 496.905 1130.99 475.889C1118.59 462.718 1105.37 450.341 1091.41 438.831C1063.59 415.241 1031.26 408.807 995.694 413.697C978.339 416.099 960.811 417.343 945.625 405.762C929.859 393.731 927.905 375.932 926.294 358.068C924.683 340.204 923.63 322.79 920.108 305.312C915.253 281.293 908.251 257.425 911.323 232.398C915.769 196.498 931.191 164.416 947.129 132.784C960.468 106.342 983.515 91.416 1012.68 85.6043C1033.3 81.4868 1053.8 76.683 1074.27 71.9007C1087.07 68.8142 1098.66 61.9728 1107.54 52.2567C1136.66 21.3539 1119.85 -31.852 1075.88 -47.4428C1049.26 -56.9002 1022.69 -66.3361 997.283 -78.9246C981.174 -86.9022 964.699 -94.6869 946.85 -98.0539C932.437 -100.777 917.423 -105.495 903.311 -97.3247C882.948 -85.5298 867.161 -69.8747 861.598 -45.7272C859.365 -35.8222 856.141 -26.1662 851.975 -16.9046C830.195 30.8542 805.536 51.5061 750.356 28.1307C728.189 18.7162 707.246 5.09835 681.621 5.5487C665.512 5.82749 650.111 8.91568 639.521 21.9545C618.214 48.225 604.617 80.0499 578.455 103.189C569.863 110.824 561.83 115.113 551.971 114.127C520.697 111.017 490.969 102.696 464.399 84.8322C448.999 74.1292 430.128 69.6046 411.538 72.158C394.355 74.7314 377.644 80.0928 369.718 99.6296C361.792 119.166 367.076 140.376 362.286 159.291C355.842 184.553 371.952 197.892 384.216 212.904C404.643 237.759 432.373 253.779 459.781 270.42C503.535 296.991 540.308 333.105 581.312 363.515C603.049 379.427 609.171 399.393 602.147 425.32Z" stroke="white" stroke-width="0.461385" stroke-linejoin="round"/>
<path d="M620.318 359.119C577.08 332.033 544.904 292.638 505.768 261.242C488.005 246.938 466.268 238.381 450.158 221.654C432.974 203.725 430.289 182.001 433.296 159.076C434.929 146.681 452.177 138.574 468.63 141.019C492.258 144.558 513.565 154.98 534.744 165.188C540.159 168.034 546.14 169.644 552.255 169.9C558.369 170.155 564.464 169.052 570.099 166.668C605.605 153.093 620.555 121.804 637.266 91.7806C643.43 80.7148 649.122 69.3274 656.103 58.7977C670.43 37.1593 685.637 32.2054 710.145 40.5691C730.035 47.3673 749.582 55.0662 769.558 61.5856C812.302 75.5894 849.032 60.1488 870.812 21.204C879.275 6.08499 887.544 -8.96969 895.041 -24.6034C905.351 -46.0487 934.004 -58.8087 961.928 -53.4045C995.328 -46.9709 1028.64 -39.4221 1059.64 -24.5604C1072.53 -18.3627 1082.64 -8.9697 1086.72 5.01268C1093.68 28.7956 1081.03 48.4824 1054.72 56.6746C1037.26 62.1002 1019.11 63.3012 1001.19 65.7888C965.601 70.7213 941.329 90.2151 927.324 122.383C916.155 147.925 906.79 174.238 895.556 199.737C885.767 221.027 883.946 245.116 890.423 267.633C900.26 302.396 903.482 337.716 904.126 373.701C904.9 416.742 926.594 437.201 967.598 436.88C978.768 435.829 990.109 435.55 1001.11 433.534C1032.77 427.722 1058.74 438.531 1081.91 459.118C1111.51 485.367 1139.61 512.903 1162.09 545.8C1177.77 568.747 1175.54 578.676 1150.6 589.528C1138.96 594.589 1126.74 595.768 1114.41 595.639C1105.32 595.349 1096.44 598.401 1089.45 604.218C1076.13 614.94 1075.53 623.519 1088.36 635.249C1096.02 642.305 1105.54 645.972 1115.03 649.596C1141.37 659.847 1152.84 684.145 1145.96 711.788C1136.47 749.81 1111.6 769.84 1074.33 776.789C1053.32 780.692 1032.42 785.367 1011.37 788.927C977.2 794.91 948.696 787.19 924.833 759.311C894.761 724.204 857.494 695.36 829.571 658.196C814.536 638.294 799.822 618.2 786.054 597.312C769.3 571.835 740.947 566.474 712.895 562.571C694.594 560.04 676.058 558.282 658.53 552.213C610.996 535.7 594.607 489.764 620.082 446.08C625.902 436.494 631.083 426.536 635.59 416.27C645.728 391.93 642.571 373.058 620.318 359.119Z" stroke="white" stroke-width="0.461385" stroke-linejoin="round"/>
<path d="M5.46839 160.47C11.1175 139.261 19.516 122.319 42.3487 115.07C51.4345 112.218 59.0812 105.034 67.673 100.38C80.1096 93.6249 83.2456 82.0659 81.9353 69.8635C80.131 53.0718 68.9188 42.971 53.2388 37.6954C41.1458 33.6851 30.4275 35.1649 21.8572 45.6731C12.7499 56.889 1.8384 66.518 -6.23788 78.699C-11.8655 87.1699 -20.4358 91.1801 -31.0681 92.1666C-52.7839 94.161 -74.3922 96.713 -95.1629 93.2603C-103.39 93.9037 -110.607 94.6757 -117.845 95.0403C-151.332 96.7559 -162.308 115.178 -147.315 145.501C-136.575 167.233 -125.392 188.735 -113.764 210.009C-108.331 220.229 -102.074 229.99 -95.0555 239.196C-84.8098 252.385 -71.4281 255.023 -57.6168 245.78C-26.579 224.978 -4.24033 196.884 5.46839 160.47Z" stroke="white" stroke-width="0.461385" stroke-linejoin="round"/>
<path d="M665.232 101.946C646.309 147.538 614.047 182.838 574.116 211.746C550.833 228.645 548.148 243.206 562.646 268.426C579.121 297.12 603.844 316.421 634.452 328.838C673.115 344.493 686.712 382.773 666.392 418.78C659.948 430.081 651.851 440.375 644.655 451.226C617.397 492.38 636.815 530.81 686.282 534.263C707.89 535.785 728.876 531.454 750.055 528.794C781.651 524.827 805.107 533.791 815.266 555.708C818.961 563.686 819.347 573.143 821.71 581.829C834.856 631.968 863.509 671.62 903.053 704.603C919.082 717.638 933.931 732.054 947.43 747.687C964.613 768.082 987.424 771.727 1011.7 763.342C1034.96 755.3 1057.55 745.371 1080.43 736.535C1087.88 733.662 1091.54 728.429 1094.46 721.202C1101.63 703.488 1085.97 698.041 1077.9 688.476C1065.87 679.748 1051.09 677.754 1037.75 672.264C1023.42 666.388 1013.59 655.493 1016.1 639.71C1021.88 603.639 1038.27 573.229 1071.49 555.022C1090.65 544.535 1100.28 530.188 1094.26 516.141C1078.37 478.955 1033.43 452.556 993.052 456.373C982.312 457.381 971.358 458.003 960.489 458.003C910.249 458.003 883.829 430.832 881.616 380.221C880.005 342.906 881.015 304.905 860.738 270.635C844.156 242.606 849.419 215.263 867.182 189.143C885.977 161.692 897.253 131.926 896.91 97.8496C896.716 79.4281 890.874 74.0239 872.874 79.3209C839.066 89.2715 805.214 99.5009 769.902 84.7894C759.179 80.3537 748.189 76.5934 736.995 73.5306C709.759 66.0033 678.85 69.1342 665.232 101.946Z" stroke="white" stroke-width="0.461385" stroke-linejoin="round"/>
<path d="M831.483 138.639C838.829 144.236 839.366 152.986 835.972 160.47C823.084 188.907 806.524 214.599 777.226 229.096C764.338 235.529 751.45 235.915 736.415 233.964C709.394 230.468 684.134 216.379 655.781 221.097C647.189 222.512 646.094 215.607 648.349 209.516C652.645 198.064 657.692 186.891 662.74 175.74C673.201 152.621 678.184 126.587 699.019 108.916C706.715 102 716.786 98.3129 727.136 98.622C763.672 107.372 800.638 115.114 831.483 138.639Z" stroke="white" stroke-width="0.461385" stroke-linejoin="round"/>
<path d="M925.564 17.8153C924.318 24.2489 922.707 29.6746 926.058 35.1218C929.924 41.5554 936.26 38.3386 941.866 38.167C962.336 37.4808 981.002 23.5627 1000.96 29.9534C1007.6 29.6486 1014.23 29.0044 1020.8 28.0234C1028.11 26.5436 1037.71 25.7073 1038.16 16.3142C1038.61 6.92113 1030.9 2.65348 1022.59 -0.734888C1000.31 -9.80628 978.145 -10.2995 954.625 -5.02396C940.062 -2.00016 928.871 0.766276 925.564 17.8153Z" stroke="white" stroke-width="0.461385" stroke-linejoin="round"/>
<path d="M998.55 228.516C998.421 237.33 1002.16 250.819 1008.43 263.687C1022.76 293.11 1048.68 303.982 1069.32 288.07C1095.1 268.233 1107.99 241.083 1106.74 208.722C1105.26 171.557 1073.81 151.184 1038.54 162.958C1014.77 170.957 997.648 196.477 998.55 228.516Z" stroke="white" stroke-width="0.461385" stroke-linejoin="round"/>
<path d="M836.08 160.47C839.473 152.986 838.958 144.236 831.59 138.639C800.746 115.049 763.78 107.414 727.308 98.6218C716.954 98.3058 706.877 101.985 699.169 108.894C678.356 126.587 673.394 152.6 662.891 175.739C657.843 186.87 652.774 198.043 648.521 209.494C646.244 215.585 647.361 222.512 655.931 221.075C684.284 216.336 709.63 230.447 736.565 233.942C751.601 235.872 764.489 235.422 777.376 229.053C806.524 214.598 823.192 188.864 836.08 160.47Z" stroke="white" stroke-width="0.461385" stroke-linejoin="round"/>
<path d="M720.09 156.053C720.519 148.847 727.049 141.277 739.056 140.44C751.536 139.582 770.588 156.932 768.59 167.483C766.443 179.321 754.715 182.623 745.393 183.438C728.682 184.875 719.939 175.825 720.09 156.053Z" stroke="white" stroke-width="0.461385" stroke-linejoin="round"/>
<path d="M720.09 156.053C719.897 175.825 728.682 184.875 745.393 183.438C754.715 182.623 766.357 179.321 768.591 167.483C770.588 156.932 751.536 139.604 739.056 140.44C727.092 141.277 720.563 148.847 720.09 156.053Z" stroke="white" stroke-width="0.461385" stroke-linejoin="round"/>
</g>
<defs>
<clipPath id="clip0_366_526">
<rect width="1440" height="180" fill="white" transform="translate(0.5)"/>
</clipPath>
</defs>
</svg>
