<svg width="17" height="17" viewBox="0 0 17 17" fill="none" xmlns="http://www.w3.org/2000/svg">
<g clip-path="url(#clip0_1084_3278)">
<g filter="url(#filter0_f_1084_3278)">
<path d="M1.06836 14.2047L4.02046 15.756L10.4041 14.8252L13.5522 15.9211L10.5489 12.2769L3.98097 12.8652L1.06836 14.2047Z" fill="black"/>
</g>
<mask id="mask0_1084_3278" style="mask-type:luminance" maskUnits="userSpaceOnUse" x="10" y="1" width="4" height="16">
<path d="M10.603 1.48702L13.91 2.5347L13.8109 16.3773L10.603 14.7164L10.3507 14.4727L10.3027 1.80333L10.603 1.48702Z" fill="white"/>
</mask>
<g mask="url(#mask0_1084_3278)">
<mask id="mask1_1084_3278" style="mask-type:luminance" maskUnits="userSpaceOnUse" x="1" y="-4" width="13" height="21">
<path d="M1.14844 -3.24512V9.98392L13.7476 16.284V3.05495L1.14844 -3.24512Z" fill="white"/>
</mask>
<g mask="url(#mask1_1084_3278)">
<path d="M1.14648 -3.24512V9.98392L13.7457 16.284V3.05495L5.34626 -1.14507L1.14648 -3.24512Z" fill="url(#paint0_linear_1084_3278)"/>
<path d="M8.25815 1.6743L8.49438 3.31377L9.0456 4.50716L10.148 6.18288L10.3449 7.26523L10.9433 10.9792L11.715 12.5061L12.6325 12.4992C12.6325 12.4992 12.5981 12.1091 12.5546 11.9063C12.5062 11.6806 12.4514 11.4485 12.3525 11.219C12.2459 10.9717 12.0428 10.7465 11.9407 10.4987C11.8111 10.1844 11.8245 9.87892 11.7016 9.56418C11.5958 9.29329 11.3859 9.03827 11.2819 8.76732C11.1382 8.39252 11.0647 8.0173 11.0142 7.6578C10.9414 7.13932 11.0933 6.7036 10.967 6.17071C10.8341 5.61013 10.5787 5.01001 10.2425 4.46902C9.9422 3.98572 9.44817 3.6529 9.14009 3.17363C8.95368 2.88364 8.81968 2.56541 8.71487 2.25821C8.53871 1.74194 8.38579 0.737683 8.38579 0.737683L8.19515 0.576201L8.25815 1.6743ZM5.23828 10.3577C5.23828 10.3577 6.23533 10.8722 6.72784 11.1909C7.09715 11.4299 7.46478 11.696 7.81918 11.995C8.11538 12.245 8.36534 12.639 8.67633 12.8158C8.93967 12.9656 9.2288 13.0321 9.43707 12.9661C9.62266 12.9072 9.72339 12.7055 9.79293 12.5044C9.8623 12.3038 9.88427 12.0556 9.84335 11.7926C9.78025 11.3871 9.39855 10.531 9.39855 10.531L11.0906 12.6969L10.8386 14.6746L10.1841 14.5351L8.71562 13.8174L5.27353 11.706L5.23828 10.3577Z" fill="#FFF3AA"/>
<path d="M8.56059 0.362115L7.59338 -0.109832C7.43589 0.142143 7.13204 0.718997 7.13204 1.40076C7.13204 3.21975 7.81021 3.4398 8.23447 4.76318C8.6585 6.08591 8.63996 7.42539 8.86443 8.71617C9.02192 9.62174 9.28602 10.9348 9.96686 11.6652C10.1624 11.8749 10.5968 13.0551 10.5968 13.5511C10.5968 14.0668 10.3723 14.2869 10.0817 14.5172L13.7939 16.3404L13.8411 14.9915C13.6836 13.5899 11.6992 10.7951 11.1594 9.79295C10.3967 8.37718 10.6635 7.94562 10.4393 6.60984C10.1823 5.07803 9.01709 4.40453 8.70696 3.18045C8.17723 1.08962 8.5606 1.02353 8.5606 0.362076L8.56059 0.362115ZM5.60309 10.3929C4.85509 9.93573 4.22831 9.95438 3.60407 9.95137C3.24866 9.94963 3.0218 9.4753 2.38477 10.6519L8.81791 13.8853C8.42077 13.2412 7.87812 12.2618 7.02867 11.7154C6.33425 11.2687 6.71481 11.0722 5.60315 10.3929L5.60309 10.3929Z" fill="#316ED9"/>
</g>
</g>
<mask id="mask2_1084_3278" style="mask-type:luminance" maskUnits="userSpaceOnUse" x="0" y="0" width="5" height="17">
<path d="M0.60158 0.751474L3.98759 2.74682L4.1366 2.93544L4.21039 15.7741L3.98817 15.9752L0.601562 16.0532L0.60158 0.751474Z" fill="white"/>
</mask>
<g mask="url(#mask2_1084_3278)">
<mask id="mask3_1084_3278" style="mask-type:luminance" maskUnits="userSpaceOnUse" x="0" y="1" width="14" height="20">
<path d="M0.835938 1.16797V14.397L13.4351 20.7101V7.48107L0.835938 1.16797Z" fill="white"/>
</mask>
<g mask="url(#mask3_1084_3278)">
<path d="M0.833984 1.16748V14.3965L13.4332 20.7096V7.48058L5.03377 3.27187L0.833984 1.16748Z" fill="url(#paint1_linear_1084_3278)"/>
<path d="M8.24809 4.78257L7.28088 4.30962C7.12339 4.56143 6.81954 5.13797 6.81954 5.81973C6.81954 7.63872 7.49771 7.85947 7.92197 9.1833C8.346 10.5065 8.32746 11.8459 8.55193 13.1369C8.70942 14.0427 8.97351 15.356 9.65436 16.0871C9.84988 16.2971 10.2843 17.4776 10.2843 17.9737C10.2843 18.4893 10.0598 18.7092 9.76917 18.9393L13.4814 20.7663L13.5286 19.4174C13.3711 18.0156 11.3867 15.2188 10.8469 14.2161C10.0842 12.7995 10.351 12.3683 10.1268 11.0322C9.86979 9.50016 8.70459 8.82546 8.39446 7.60105C7.86472 5.50968 8.2481 5.44398 8.2481 4.78253L8.24809 4.78257ZM5.29059 14.8102C4.54259 14.3523 3.91581 14.3704 3.29157 14.3667C2.93616 14.3646 2.7093 13.89 2.07227 15.066L8.50541 18.306C8.10827 17.6615 7.56562 16.6815 6.71617 16.1342C6.02175 15.6869 6.40231 15.4908 5.29065 14.8103L5.29059 14.8102Z" fill="#316ED9"/>
<path d="M6.0344 3.71522C5.87691 3.96703 5.49712 4.35831 5.09672 4.42044C4.70888 4.48062 3.67525 4.1055 3.06652 3.73287C2.35411 3.29677 2.21281 3.03513 0.740234 2.52573L0.787481 1.07787L6.0344 3.71522Z" fill="#009D00"/>
</g>
<mask id="mask4_1084_3278" style="mask-type:luminance" maskUnits="userSpaceOnUse" x="0" y="1" width="14" height="20">
<path d="M13.4351 7.48107L0.835938 1.16797V14.397L13.4351 20.7101V7.48107Z" fill="white"/>
</mask>
<g mask="url(#mask4_1084_3278)">
<path d="M2.33202 4.81844L-1.8457 3.18604L-1.35648 8.31967L2.82125 9.95208L2.33202 4.81844Z" fill="#8C133F"/>
<path d="M5.29917 7.71096L3.59961 7.04688L3.91729 10.3804L5.61685 11.0445L5.29917 7.71096Z" fill="#33757C"/>
<path d="M-0.789062 10.0373L6.41578 12.8523" stroke="#234868" stroke-opacity="0.87879" stroke-width="0.853367"/>
<path d="M-0.115234 13.9592L2.49847 11.3223" stroke="#234868" stroke-opacity="0.87879" stroke-width="0.682694"/>
<path d="M3.0531 11.444C3.1349 11.8056 2.9537 12.0444 2.64836 11.9773C2.34302 11.9102 2.02919 11.5627 1.94738 11.2011C1.86557 10.8395 2.04677 10.6007 2.35211 10.6678C2.65745 10.7349 2.97128 11.0825 3.0531 11.444Z" fill="white" stroke="#0D4474" stroke-opacity="0.87879" stroke-width="0.136539" stroke-linecap="round" stroke-linejoin="round"/>
</g>
</g>
<mask id="mask5_1084_3278" style="mask-type:luminance" maskUnits="userSpaceOnUse" x="3" y="0" width="8" height="18">
<path d="M10.6003 0.731433L3.98633 0.731445V17.1087L10.6003 17.1087V0.731433Z" fill="white"/>
</mask>
<g mask="url(#mask5_1084_3278)">
<mask id="mask6_1084_3278" style="mask-type:luminance" maskUnits="userSpaceOnUse" x="0" y="0" width="14" height="17">
<path d="M0.662109 3.37939V16.6084L13.8912 14.0878V0.858751L0.662109 3.37939Z" fill="white"/>
</mask>
<g mask="url(#mask6_1084_3278)">
<path d="M0.660156 3.37939V16.6084L13.8892 14.0878V0.858751L5.06989 2.53917L0.660156 3.37939Z" fill="url(#paint2_linear_1084_3278)"/>
<path d="M8.12787 3.32132L8.37591 4.7954L8.95468 5.60288L10.1122 6.5068L10.3189 7.45132L10.9473 10.7463L11.7576 11.733L12.7209 11.0837C12.7209 11.0837 12.6848 10.7177 12.6392 10.5454C12.5883 10.3536 12.5307 10.1598 12.4269 9.99962C12.315 9.82693 12.1017 9.74387 11.9945 9.56761C11.8585 9.34391 11.8725 9.02913 11.7434 8.80046C11.6323 8.60364 11.4119 8.49557 11.3028 8.29737C11.1519 8.02319 11.0747 7.69946 11.0217 7.37529C10.9453 6.90777 11.1047 6.36574 10.9721 5.92128C10.8326 5.45373 10.5644 5.03242 10.2114 4.72678C9.89611 4.45373 9.37738 4.46678 9.0539 4.2032C8.85817 4.04371 8.71747 3.8193 8.60742 3.58548C8.42246 3.19253 8.26189 2.29534 8.26189 2.29534L8.06172 2.26732L8.12787 3.32132ZM4.95703 14.119C4.95703 14.119 6.00393 13.9354 6.52105 13.9093C6.90883 13.8897 7.29483 13.8985 7.66695 13.9494C7.97797 13.9919 8.24041 14.211 8.56696 14.1701C8.84346 14.1354 9.14705 13.9995 9.36573 13.7877C9.56059 13.5989 9.66636 13.3267 9.73938 13.0769C9.81222 12.8277 9.83528 12.5642 9.79231 12.3298C9.72606 11.9685 9.32528 11.3796 9.32528 11.3796L11.1019 12.3609L10.8374 14.5151L10.1501 14.8338L8.60821 15.1441L4.99404 15.4425L4.95703 14.119Z" fill="#FFF3AA"/>
<path d="M8.4455 1.79671L7.42994 2.00191C7.26458 2.36415 6.94554 3.15372 6.94554 3.83548C6.94554 5.65447 7.65761 5.39974 8.10308 6.4261C8.54831 7.45196 8.52884 8.80442 8.76453 9.93805C8.9299 10.7334 9.2072 11.8615 9.92208 12.1153C10.1274 12.1881 10.5835 13.0641 10.5835 13.5602C10.5835 14.0758 10.3478 14.4531 10.0426 14.8869L13.9404 14.1112L13.99 12.7292C13.8246 11.4378 11.7411 10.0324 11.1742 9.40814C10.3734 8.52631 10.6535 7.90797 10.4182 6.72911C10.1483 5.37727 8.92482 5.51954 8.59919 4.51257C8.04297 2.79262 8.44552 2.45812 8.44552 1.79666L8.4455 1.79671ZM5.34015 13.898C4.55476 13.9646 3.89664 14.422 3.24119 14.856C2.86802 15.1031 2.62981 14.7876 1.96094 16.4102L8.71569 15.1397C8.29869 14.7737 7.72892 14.1742 6.837 14.2225C6.10786 14.262 6.50745 13.7991 5.34021 13.898L5.34015 13.898Z" fill="#316ED9"/>
<path d="M6.12133 2.28112C5.95596 2.64336 5.55719 3.30092 5.13677 3.64379C4.72955 3.97589 3.64424 4.32549 3.00508 4.37966C2.25706 4.44306 2.10869 4.28048 0.5625 4.80356L0.612109 3.32258L6.12133 2.28112Z" fill="#009D00"/>
</g>
<mask id="mask7_1084_3278" style="mask-type:luminance" maskUnits="userSpaceOnUse" x="0" y="0" width="14" height="17">
<path d="M13.8912 0.858751L0.662109 3.37939V16.6084L13.8912 14.0878V0.858751Z" fill="white"/>
</mask>
<g mask="url(#mask7_1084_3278)">
<path d="M5.34508 6.79277L3.56055 7.32031L3.89411 10.4311L5.67864 9.90358L5.34508 6.79277Z" fill="#33757C"/>
<path d="M-1.04688 13.3889L6.51815 11.1523" stroke="#234868" stroke-opacity="0.87879" stroke-width="0.834219"/>
<path d="M7.09959 10.886C7.18548 11.1902 6.99522 11.556 6.67462 11.703C6.35402 11.85 6.0245 11.7225 5.93859 11.4183C5.8527 11.114 6.04296 10.7482 6.36356 10.6012C6.68416 10.4543 7.01368 10.5817 7.09959 10.886Z" fill="white" stroke="#0D4474" stroke-opacity="0.87879" stroke-width="0.133475" stroke-linecap="round" stroke-linejoin="round"/>
</g>
</g>
<mask id="mask8_1084_3278" style="mask-type:luminance" maskUnits="userSpaceOnUse" x="0" y="1" width="14" height="16">
<path d="M0.835938 14.3976L3.98604 15.976L10.5995 14.7147L13.7401 16.2853V3.05657L10.5995 1.48608L3.98604 2.7473L0.835938 1.16895V14.3976Z" fill="white"/>
</mask>
<g mask="url(#mask8_1084_3278)">
<path d="M0.823399 1.15381L0.818359 14.4208L3.98689 16.0022V2.71894L0.823399 1.15381ZM10.5989 1.48047V14.7701L13.7821 16.3201L13.7614 3.04053L10.5989 1.48047Z" fill="white" fill-opacity="0.40909"/>
</g>
<g filter="url(#filter1_f_1084_3278)">
<path d="M8.26022 9.82642L6.43906 11.2413L10.0875 9.87528L10.6001 9.3529L13.4378 8.56589L13.3187 5.55777L10.2043 7.17958L8.26022 9.82642Z" fill="url(#paint3_linear_1084_3278)"/>
</g>
<path d="M6.44141 11.2414L9.57597 10.3111L9.52098 9.52734L6.44141 11.2414Z" fill="url(#paint4_linear_1084_3278)"/>
<path d="M7.70516 7.90926L6.90489 10.0243L6.8223 10.6463L6.4441 11.2422L6.95092 10.7694L7.61597 10.6789L9.65588 9.69833L10.083 8.74318L8.61994 7.40135L7.70516 7.90926Z" fill="url(#paint5_linear_1084_3278)"/>
<mask id="mask9_1084_3278" style="mask-type:luminance" maskUnits="userSpaceOnUse" x="7" y="1" width="9" height="9">
<path d="M7.70508 7.90967C7.93377 7.7827 8.22846 7.82851 8.22846 7.82851C8.52316 7.87432 8.82796 8.15387 8.82796 8.15387C9.00578 8.20473 9.24962 8.42837 9.31563 8.60115C9.31563 8.60115 9.62043 8.88069 9.69148 9.17034C9.69148 9.17034 9.76254 9.45999 9.65577 9.69878L15.694 3.11518L15.8974 2.40387L15.6334 1.71276L15.1457 1.26548L14.4344 1.06204L13.7433 1.32607L7.70508 7.90967Z" fill="white"/>
</mask>
<g mask="url(#mask9_1084_3278)">
<path d="M7.62305 8.73291L8.84223 9.8511L16.2223 1.80449L15.0031 0.686296L7.62305 8.73291Z" fill="#853909"/>
<path d="M15.3705 1.02176L14.8828 0.574482L13.8105 1.49897L8.44314 7.35105L7.50278 8.6211L7.99045 9.06837L15.3705 1.02176Z" fill="#974613"/>
<path d="M15.8566 1.4695L16.3443 1.91678L15.5158 3.0649L9.98071 9.09986L8.96424 9.96339L8.47656 9.51611L15.8566 1.4695Z" fill="#642B06"/>
<path d="M7.25781 8.39746L7.50165 8.6211L14.8817 0.574485L14.6379 0.350847L7.25781 8.39746Z" fill="#B25C28"/>
<path d="M8.96484 9.96338L9.20868 10.187L16.5887 2.1404L16.3449 1.91676L8.96484 9.96338Z" fill="#4D2105"/>
</g>
<g filter="url(#filter2_f_1084_3278)">
<path d="M13.6553 3.0387C13.6108 3.08722 13.5944 3.12319 13.592 3.15193C13.5907 3.1663 13.5934 3.17851 13.5972 3.18722C13.6011 3.19592 13.6082 3.20316 13.6082 3.20316L13.8549 3.4294C13.8549 3.4294 13.8627 3.43585 13.8718 3.43898C13.8808 3.4421 13.8932 3.4437 13.9074 3.44122C13.9358 3.43625 13.9702 3.41686 14.0147 3.36834C14.0592 3.31982 14.0756 3.28384 14.0781 3.2551C14.0793 3.24073 14.0766 3.22852 14.0728 3.21981C14.0689 3.21111 14.0617 3.20387 14.0617 3.20387L13.8151 2.97764C13.8151 2.97764 13.8073 2.97118 13.7983 2.96805C13.7892 2.96493 13.7769 2.96333 13.7626 2.96582C13.7342 2.97078 13.6998 2.99017 13.6553 3.0387ZM13.9074 2.76383C13.8629 2.81235 13.8465 2.84835 13.844 2.87709C13.8428 2.89146 13.8455 2.90364 13.8493 2.91235C13.8532 2.92107 13.8603 2.9283 13.8603 2.9283L13.9308 2.99294C13.9444 3.00539 13.9607 3.00599 13.9737 3.00458C13.9867 3.00318 13.9994 2.99931 14.0129 2.99431C14.0398 2.98432 14.0701 2.96918 14.0999 2.95435C14.1297 2.93953 14.1591 2.92501 14.1813 2.91681C14.1923 2.91271 14.2017 2.91035 14.2066 2.90981C14.2079 2.90965 14.2076 2.90971 14.208 2.90973L14.2725 2.96893C14.2727 2.96937 14.2734 2.9706 14.273 2.97529C14.2721 2.98562 14.2641 3.01158 14.2245 3.05468C14.185 3.09778 14.1598 3.10805 14.1496 3.10983C14.1447 3.11068 14.1432 3.11 14.1429 3.1099C14.1135 3.08909 14.0804 3.13032 14.107 3.15453C14.107 3.15453 14.1148 3.16099 14.1239 3.16411C14.1329 3.16724 14.1452 3.16885 14.1594 3.16637C14.1879 3.16141 14.2223 3.14199 14.2668 3.09347C14.3113 3.04495 14.3277 3.00897 14.3302 2.98023C14.3314 2.96586 14.3287 2.95366 14.3249 2.94495C14.321 2.93623 14.3138 2.929 14.3138 2.929L14.2434 2.86438C14.2298 2.85194 14.2135 2.85134 14.2005 2.85274C14.1874 2.85415 14.1748 2.85799 14.1613 2.86299C14.1343 2.87298 14.1041 2.88814 14.0743 2.90297C14.0445 2.91779 14.0151 2.93229 13.9929 2.94049C13.9819 2.94459 13.9725 2.94698 13.9676 2.94751C13.9663 2.94765 13.9666 2.94759 13.9662 2.94757L13.9017 2.88836C13.9015 2.88793 13.9008 2.8867 13.9012 2.88201C13.9021 2.87168 13.9101 2.84569 13.9497 2.80259C13.9892 2.75949 14.0144 2.74925 14.0246 2.74747C14.0295 2.74661 14.0309 2.7473 14.0313 2.74741C14.0606 2.76824 14.0938 2.72699 14.0672 2.70277C14.0672 2.70277 14.0594 2.69631 14.0504 2.69318C14.0413 2.69006 14.029 2.68847 14.0147 2.69095C13.9863 2.69591 13.9519 2.71531 13.9074 2.76383ZM13.4937 3.22845C13.4831 3.24029 13.4842 3.2584 13.496 3.26894L13.7766 3.52628C13.7768 3.53293 13.7767 3.54302 13.772 3.54804L13.7074 3.61852C13.7009 3.62557 13.6795 3.62543 13.6795 3.62543C13.6408 3.61834 13.6317 3.67713 13.6707 3.68211C13.6707 3.68211 13.7174 3.69255 13.7497 3.65731L13.8143 3.58683C13.8467 3.55159 13.8322 3.50599 13.8322 3.50599C13.8309 3.50048 13.8279 3.49549 13.8238 3.49165L13.5348 3.22665C13.5231 3.21554 13.5044 3.21635 13.4937 3.22845ZM14.0835 2.58597C14.0729 2.59661 14.0707 2.6152 14.0842 2.6276L14.3873 2.90553C14.4155 2.9316 14.4545 2.88907 14.4261 2.86324L14.202 2.6577L14.3776 2.69681C14.3992 2.7016 14.4178 2.68126 14.4112 2.66019L14.3571 2.48856L14.5812 2.6941C14.6094 2.72017 14.6484 2.67764 14.62 2.65181L14.3169 2.37388C14.305 2.36293 14.2864 2.36401 14.2758 2.37627C14.2693 2.38381 14.2672 2.39416 14.2702 2.40364L14.3415 2.63L14.1099 2.57845C14.0991 2.57606 14.0898 2.57958 14.0835 2.58597ZM13.6976 3.07746C13.7371 3.03436 13.7623 3.02412 13.7725 3.02233C13.7771 3.02152 13.7784 3.0221 13.7789 3.02226L14.0204 3.2438C14.0206 3.24423 14.0213 3.24547 14.0209 3.25016C14.02 3.26048 14.012 3.28645 13.9724 3.32955C13.9329 3.37265 13.9077 3.38291 13.8975 3.3847C13.8929 3.38551 13.8916 3.38493 13.8911 3.38477L13.6496 3.16323C13.6494 3.1628 13.6487 3.16156 13.6491 3.15687C13.65 3.14655 13.658 3.12056 13.6976 3.07746Z" fill="#120E02" fill-opacity="0.84343"/>
</g>
<mask id="mask10_1084_3278" style="mask-type:luminance" maskUnits="userSpaceOnUse" x="6" y="7" width="5" height="5">
<path d="M7.70709 7.90929L6.44605 11.2422L9.65778 9.6984L10.0849 8.74325L8.62184 7.40142L7.70709 7.90929Z" fill="white"/>
</mask>
<g mask="url(#mask10_1084_3278)">
<path d="M6.38806 11.3032L6.62722 10.0635C7.14555 9.86546 7.75514 10.4246 7.60256 10.958L6.38806 11.3032Z" fill="#3D3D3D"/>
</g>
<path d="M13.6392 3.0363C13.5947 3.08482 13.5783 3.12081 13.5758 3.14955C13.5746 3.16392 13.5773 3.17612 13.5811 3.18483C13.585 3.19354 13.5921 3.20077 13.5921 3.20077L13.8388 3.427C13.8388 3.427 13.8466 3.43346 13.8556 3.43659C13.8646 3.43971 13.877 3.44131 13.8912 3.43883C13.9197 3.43387 13.9541 3.41447 13.9986 3.36595C14.0431 3.31743 14.0595 3.28144 14.062 3.2527C14.0632 3.23833 14.0605 3.22613 14.0566 3.21742C14.0528 3.20871 14.0456 3.20148 14.0456 3.20148L13.799 2.97525C13.799 2.97525 13.7912 2.96879 13.7821 2.96566C13.7731 2.96254 13.7608 2.96094 13.7465 2.96342C13.7181 2.96838 13.6837 2.98778 13.6392 3.0363ZM13.8913 2.76145C13.8468 2.80997 13.8304 2.84596 13.8279 2.8747C13.8267 2.88907 13.8293 2.90127 13.8332 2.90998C13.8371 2.91869 13.8442 2.92592 13.8442 2.92592L13.9147 2.99056C13.9283 3.003 13.9446 3.00359 13.9576 3.00219C13.9707 3.00078 13.9832 2.99693 13.9967 2.99193C14.0237 2.98193 14.0539 2.96679 14.0838 2.95196C14.1136 2.93714 14.143 2.92263 14.1651 2.91443C14.1762 2.91033 14.1856 2.90795 14.1905 2.90742C14.1918 2.90728 14.1914 2.90733 14.1918 2.90735L14.2564 2.96656C14.2566 2.96699 14.2573 2.96821 14.2569 2.97291C14.256 2.98324 14.2479 3.00922 14.2084 3.05232C14.1689 3.09541 14.1437 3.10567 14.1335 3.10745C14.1286 3.1083 14.1271 3.10764 14.1268 3.10752C14.1208 3.1033 14.1135 3.10152 14.1062 3.10254C14.099 3.10355 14.0924 3.10728 14.0879 3.11297C14.0833 3.11866 14.0811 3.12588 14.0816 3.13316C14.0822 3.14044 14.0855 3.14723 14.0909 3.15215C14.0909 3.15215 14.0987 3.15861 14.1077 3.16173C14.1167 3.16485 14.1291 3.16646 14.1433 3.16398C14.1717 3.15901 14.2062 3.13962 14.2507 3.0911C14.2952 3.04258 14.3115 3.00659 14.314 2.97784C14.3153 2.96348 14.3126 2.95128 14.3087 2.94257C14.3049 2.93386 14.2977 2.92662 14.2977 2.92662L14.2273 2.86199C14.2137 2.84954 14.1974 2.84895 14.1844 2.85036C14.1713 2.85176 14.1587 2.85562 14.1452 2.86061C14.1182 2.87061 14.088 2.88576 14.0582 2.90058C14.0284 2.91541 13.999 2.92991 13.9768 2.93811C13.9657 2.94221 13.9564 2.94459 13.9514 2.94513C13.9502 2.94528 13.9505 2.94521 13.9501 2.94519L13.8856 2.88598C13.8854 2.88555 13.8847 2.88433 13.8851 2.87963C13.886 2.8693 13.894 2.84333 13.9335 2.80023C13.9731 2.75713 13.9983 2.74687 14.0085 2.74509C14.0134 2.74424 14.0148 2.7449 14.0152 2.74503C14.0211 2.74924 14.0285 2.75103 14.0357 2.75002C14.0429 2.74901 14.0495 2.74527 14.0541 2.73958C14.0587 2.73389 14.0609 2.72667 14.0603 2.71939C14.0598 2.71211 14.0565 2.70531 14.0511 2.70039C14.0511 2.70039 14.0432 2.69394 14.0342 2.69081C14.0252 2.68769 14.0128 2.68609 13.9986 2.68857C13.9702 2.69353 13.9358 2.71293 13.8913 2.76145ZM13.4776 3.22605C13.4725 3.23173 13.4699 3.23918 13.4704 3.24678C13.4708 3.25437 13.4742 3.26148 13.4799 3.26654L13.7605 3.52389C13.7607 3.53054 13.7605 3.54063 13.7559 3.54565L13.6913 3.61613C13.6848 3.62318 13.6634 3.62302 13.6634 3.62302C13.6596 3.62237 13.6558 3.62248 13.6521 3.62333C13.6484 3.62418 13.6449 3.62577 13.6418 3.62799C13.6387 3.63021 13.6361 3.63302 13.6341 3.63627C13.6321 3.63951 13.6307 3.64312 13.6302 3.64689C13.6296 3.65065 13.6297 3.65449 13.6307 3.65819C13.6316 3.66188 13.6332 3.66536 13.6355 3.66842C13.6378 3.67147 13.6406 3.67404 13.6439 3.67598C13.6472 3.67792 13.6508 3.67919 13.6546 3.67971C13.6546 3.67971 13.7013 3.69015 13.7336 3.65491L13.7982 3.58443C13.8305 3.5492 13.8161 3.50358 13.8161 3.50358C13.8148 3.49808 13.8118 3.4931 13.8076 3.48927L13.5187 3.22425C13.5159 3.22161 13.5126 3.21957 13.509 3.21823C13.5054 3.21689 13.5016 3.21628 13.4977 3.21645C13.4939 3.21662 13.4901 3.21755 13.4867 3.2192C13.4832 3.22084 13.4801 3.22318 13.4776 3.22605ZM14.2597 2.37388C14.2565 2.37758 14.2543 2.38204 14.2533 2.38683C14.2524 2.39162 14.2526 2.39658 14.2541 2.40124L14.3254 2.62761L14.0937 2.57606C14.0876 2.57469 14.0811 2.5754 14.0754 2.57807C14.0697 2.58073 14.065 2.58521 14.0621 2.59081C14.0592 2.59641 14.0582 2.60281 14.0593 2.60903C14.0604 2.61525 14.0635 2.62093 14.0681 2.6252L14.3712 2.90315C14.3739 2.90576 14.3772 2.9078 14.3808 2.90915C14.3843 2.91049 14.3881 2.91111 14.3919 2.91098C14.3957 2.91084 14.3995 2.90995 14.4029 2.90836C14.4064 2.90677 14.4095 2.9045 14.412 2.9017C14.4146 2.89889 14.4166 2.89561 14.4179 2.89203C14.4192 2.88845 14.4197 2.88465 14.4195 2.88085C14.4194 2.87705 14.4184 2.87332 14.4168 2.86989C14.4151 2.86646 14.4128 2.86339 14.41 2.86086L14.1859 2.65533L14.3615 2.69441C14.3664 2.6955 14.3715 2.69527 14.3763 2.69376C14.3811 2.69225 14.3854 2.6895 14.3889 2.68579C14.3923 2.68208 14.3946 2.67754 14.3957 2.67262C14.3968 2.66771 14.3966 2.66259 14.3951 2.65779L14.341 2.48619L14.5651 2.69172C14.5679 2.69434 14.5711 2.69637 14.5747 2.69772C14.5782 2.69906 14.582 2.69968 14.5858 2.69955C14.5896 2.69941 14.5934 2.69852 14.5968 2.69693C14.6003 2.69534 14.6034 2.69307 14.606 2.69027C14.6085 2.68746 14.6105 2.68418 14.6118 2.6806C14.6131 2.67702 14.6137 2.67322 14.6135 2.66942C14.6133 2.66562 14.6123 2.66189 14.6107 2.65846C14.609 2.65503 14.6067 2.65196 14.6039 2.64943L14.3008 2.37149C14.298 2.36889 14.2947 2.36689 14.2911 2.36561C14.2874 2.36432 14.2836 2.36377 14.2798 2.36399C14.2759 2.36422 14.2722 2.36521 14.2687 2.36691C14.2653 2.3686 14.2622 2.37098 14.2597 2.37388ZM13.6815 3.07508C13.721 3.03198 13.7462 3.02173 13.7564 3.01995C13.761 3.01914 13.7623 3.01972 13.7628 3.01988L14.0043 3.24142C14.0045 3.24185 14.0052 3.24307 14.0048 3.24777C14.0039 3.25809 13.9959 3.28407 13.9563 3.32717C13.9168 3.37027 13.8916 3.38052 13.8814 3.38231C13.8768 3.38312 13.8755 3.38254 13.875 3.38237L13.6335 3.16084C13.6333 3.1604 13.6326 3.15918 13.633 3.15448C13.6339 3.14416 13.6419 3.11818 13.6815 3.07508Z" fill="url(#paint6_linear_1084_3278)" stroke="black" stroke-opacity="0.13433" stroke-width="0.00827158"/>
</g>
<defs>
<filter id="filter0_f_1084_3278" x="0.63286" y="11.8414" width="13.3554" height="4.51504" filterUnits="userSpaceOnUse" color-interpolation-filters="sRGB">
<feFlood flood-opacity="0" result="BackgroundImageFix"/>
<feBlend mode="normal" in="SourceGraphic" in2="BackgroundImageFix" result="shape"/>
<feGaussianBlur stdDeviation="0.21775" result="effect1_foregroundBlur_1084_3278"/>
</filter>
<filter id="filter1_f_1084_3278" x="6.10858" y="5.22674" width="7.6598" height="6.34535" filterUnits="userSpaceOnUse" color-interpolation-filters="sRGB">
<feFlood flood-opacity="0" result="BackgroundImageFix"/>
<feBlend mode="normal" in="SourceGraphic" in2="BackgroundImageFix" result="shape"/>
<feGaussianBlur stdDeviation="0.165439" result="effect1_foregroundBlur_1084_3278"/>
</filter>
<filter id="filter2_f_1084_3278" x="13.4698" y="2.34967" width="1.17566" height="1.35047" filterUnits="userSpaceOnUse" color-interpolation-filters="sRGB">
<feFlood flood-opacity="0" result="BackgroundImageFix"/>
<feBlend mode="normal" in="SourceGraphic" in2="BackgroundImageFix" result="shape"/>
<feGaussianBlur stdDeviation="0.00827158" result="effect1_foregroundBlur_1084_3278"/>
</filter>
<linearGradient id="paint0_linear_1084_3278" x1="2.19332" y1="-1.5327" x2="11.5586" y2="15.9287" gradientUnits="userSpaceOnUse">
<stop stop-color="#FFD555"/>
<stop offset="1" stop-color="#FFCB27"/>
</linearGradient>
<linearGradient id="paint1_linear_1084_3278" x1="1.88082" y1="2.88098" x2="11.236" y2="20.3574" gradientUnits="userSpaceOnUse">
<stop stop-color="#FFD555"/>
<stop offset="1" stop-color="#FFCB27"/>
</linearGradient>
<linearGradient id="paint2_linear_1084_3278" x1="1.75932" y1="4.35892" x2="12.853" y2="13.7797" gradientUnits="userSpaceOnUse">
<stop stop-color="#FFD555"/>
<stop offset="1" stop-color="#FFCB27"/>
</linearGradient>
<linearGradient id="paint3_linear_1084_3278" x1="7.06826" y1="10.4252" x2="12.3551" y2="6.18742" gradientUnits="userSpaceOnUse">
<stop/>
<stop offset="1" stop-color="#3C3C3C" stop-opacity="0"/>
</linearGradient>
<linearGradient id="paint4_linear_1084_3278" x1="6.5411" y1="11.1803" x2="7.91213" y2="10.9326" gradientUnits="userSpaceOnUse">
<stop stop-opacity="0.36869"/>
<stop offset="1" stop-color="#3C3C3C" stop-opacity="0"/>
</linearGradient>
<linearGradient id="paint5_linear_1084_3278" x1="8.7613" y1="10.6737" x2="6.8106" y2="8.88461" gradientUnits="userSpaceOnUse">
<stop stop-color="#AD7A4A"/>
<stop offset="1" stop-color="#EDB096"/>
</linearGradient>
<linearGradient id="paint6_linear_1084_3278" x1="13.788" y1="3.3645" x2="14.0571" y2="2.15332" gradientUnits="userSpaceOnUse">
<stop stop-color="#E6B636"/>
<stop offset="0.5" stop-color="#F1CF09"/>
<stop offset="0.5625" stop-color="#F0D609"/>
<stop offset="0.625" stop-color="#F0B10A"/>
<stop offset="0.6875" stop-color="#F0CE0B"/>
<stop offset="0.75" stop-color="#F0AA0C"/>
<stop offset="1" stop-color="#FFD900"/>
</linearGradient>
<clipPath id="clip0_1084_3278">
<rect width="16" height="16" fill="white" transform="translate(0.328125 0.62793)"/>
</clipPath>
</defs>
</svg>
